<svg width="400" height="400" viewBox="0 0 400 400" fill="none" xmlns="http://www.w3.org/2000/svg">
<rect width="400" height="400" fill="#3B72D9"/>
<path d="M196.5 130H132.5V66H196.5V130Z" fill="#F1511B"/>
<path d="M268.5 130H204.5V66H268.5V130Z" fill="#80CC28"/>
<path d="M196.5 202H132.5V138H196.5V202Z" fill="#00ADEF"/>
<path d="M268.5 202H204.5V138H268.5V202Z" fill="#FBBC09"/>
<path d="M120.836 322.07C115.66 324.805 109.215 326.172 101.5 326.172C91.5391 326.172 83.5638 322.965 77.5742 316.553C71.5846 310.14 68.5898 301.725 68.5898 291.309C68.5898 280.111 71.959 271.061 78.6973 264.16C85.4355 257.259 93.9805 253.809 104.332 253.809C110.973 253.809 116.474 254.769 120.836 256.689V265.43C115.823 262.63 110.289 261.23 104.234 261.23C96.194 261.23 89.6673 263.916 84.6543 269.287C79.6738 274.658 77.1836 281.836 77.1836 290.82C77.1836 299.349 79.5111 306.152 84.166 311.23C88.8535 316.276 94.9896 318.799 102.574 318.799C109.605 318.799 115.693 317.236 120.836 314.111V322.07ZM141.027 325H133.02V250.977H141.027V325ZM192.029 325H184.021V317.188H183.826C180.343 323.177 175.216 326.172 168.445 326.172C163.465 326.172 159.559 324.854 156.727 322.217C153.927 319.58 152.527 316.081 152.527 311.719C152.527 302.376 158.029 296.94 169.031 295.41L184.021 293.311C184.021 284.814 180.587 280.566 173.719 280.566C167.697 280.566 162.26 282.617 157.41 286.719V278.516C162.326 275.391 167.99 273.828 174.402 273.828C186.154 273.828 192.029 280.046 192.029 292.48V325ZM184.021 299.707L171.961 301.367C168.25 301.888 165.451 302.816 163.562 304.15C161.674 305.452 160.73 307.78 160.73 311.133C160.73 313.574 161.593 315.576 163.318 317.139C165.076 318.669 167.404 319.434 170.301 319.434C174.272 319.434 177.544 318.05 180.115 315.283C182.719 312.484 184.021 308.952 184.021 304.688V299.707ZM232.191 283.105C230.792 282.031 228.773 281.494 226.137 281.494C222.719 281.494 219.854 283.105 217.543 286.328C215.264 289.551 214.125 293.945 214.125 299.512V325H206.117V275H214.125V285.303H214.32C215.46 281.787 217.201 279.053 219.545 277.1C221.889 275.114 224.509 274.121 227.406 274.121C229.49 274.121 231.085 274.349 232.191 274.805V283.105ZM243.984 262.305C242.552 262.305 241.331 261.816 240.322 260.84C239.313 259.863 238.809 258.626 238.809 257.129C238.809 255.632 239.313 254.395 240.322 253.418C241.331 252.409 242.552 251.904 243.984 251.904C245.449 251.904 246.686 252.409 247.695 253.418C248.737 254.395 249.258 255.632 249.258 257.129C249.258 258.561 248.737 259.782 247.695 260.791C246.686 261.8 245.449 262.305 243.984 262.305ZM247.891 325H239.883V275H247.891V325ZM286.295 324.512C284.407 325.553 281.917 326.074 278.824 326.074C270.068 326.074 265.689 321.191 265.689 311.426V281.836H257.096V275H265.689V262.793L273.697 260.205V275H286.295V281.836H273.697V310.01C273.697 313.363 274.267 315.755 275.406 317.188C276.546 318.62 278.434 319.336 281.07 319.336C283.089 319.336 284.83 318.783 286.295 317.676V324.512ZM335.783 275L312.785 333.008C308.684 343.359 302.922 348.535 295.5 348.535C293.417 348.535 291.675 348.324 290.275 347.9V340.723C292.001 341.309 293.579 341.602 295.012 341.602C299.048 341.602 302.076 339.193 304.094 334.375L308.098 324.902L288.566 275H297.453L310.979 313.477C311.141 313.965 311.483 315.234 312.004 317.285H312.297C312.46 316.504 312.785 315.267 313.273 313.574L327.482 275H335.783Z" fill="white"/>
</svg>
