<svg width="80" height="80" viewBox="0 0 80 80" fill="none" xmlns="http://www.w3.org/2000/svg">
<rect width="80" height="80" rx="4" fill="#FF90E8"/>
<g clip-path="url(#clip0_2046_1649)">
<path d="M36.8001 65.3996C50.8282 65.3996 62.2001 54.0276 62.2001 39.9996C62.2001 25.9716 50.8282 14.5996 36.8001 14.5996C22.7721 14.5996 11.4001 25.9716 11.4001 39.9996C11.4001 54.0276 22.7721 65.3996 36.8001 65.3996Z" fill="#F5F5F5"/>
<path d="M34.5944 52.8008C27.154 52.8008 22.7773 46.8331 22.7773 39.4097C22.7773 31.6954 27.5918 25.4365 36.7828 25.4365C46.2655 25.4365 49.4751 31.8409 49.621 35.4797H42.7643C42.6184 33.442 40.8677 30.3854 36.6369 30.3854C32.1142 30.3854 29.1964 34.3153 29.1964 39.1186C29.1964 43.9219 32.1142 47.8519 36.6369 47.8519C40.7218 47.8519 42.4725 44.6498 43.202 41.4475H36.6369V38.8276H50.4126V52.2186H44.3689V43.7765C43.9313 46.8331 42.0348 52.8008 34.5944 52.8008Z" fill="black"/>
</g>
<circle cx="60.0002" cy="58.4016" r="11.2" fill="white" stroke="#FF90E8" stroke-width="1.2"/>
<path d="M52.8656 60.7415L54.9997 53.5878L56.6009 56.3612C57.1742 56.0303 58.3456 55.354 59.6702 54.5892C61.5418 53.5086 68.6969 52.6758 67.9963 61.5762C66.0362 55.7614 61.8109 57.9509 61.8109 57.9509L58.5917 59.8094L60.2796 62.7329L52.8656 60.7415Z" fill="black"/>
<defs>
<clipPath id="clip0_2046_1649">
<rect width="50.8" height="50.8" fill="white" transform="translate(11.4001 14.5996)"/>
</clipPath>
</defs>
</svg>
