<svg width="400" height="400" viewBox="0 0 400 400" fill="none" xmlns="http://www.w3.org/2000/svg">
<g clip-path="url(#clip0_1070_33770)">
<path fill-rule="evenodd" clip-rule="evenodd" d="M0 95.833H399.805L407.805 374.669C407.805 393.077 392.892 407.999 374.491 407.999L17.3138 415.999C-1.08541 415.999 -16 401.071 -16 382.669L0 95.833Z" fill="#518FF5"/>
<path fill-rule="evenodd" clip-rule="evenodd" d="M141.057 287.123L244.884 192.139L416 363.099L415.928 382.666C415.86 401.075 400.891 416 382.487 416L254.376 400L141.057 287.123Z" fill="url(#paint0_linear_1070_33770)"/>
<path fill-rule="evenodd" clip-rule="evenodd" d="M-20 13.3329C-20 -5.07621 -5.08736 -20 13.3138 -20L382.491 -16C400.89 -16 415.805 -1.07816 415.805 17.3329L399.805 95.8328H0L-20 13.3329Z" fill="#4758B8"/>
<path fill-rule="evenodd" clip-rule="evenodd" d="M183.244 45.833H143.674C135.626 45.833 129.104 52.3622 129.104 60.4169C129.104 68.4725 135.627 74.9999 143.674 74.9999H256.131C264.179 74.9999 270.701 68.4706 270.701 60.4169C270.701 52.3603 264.178 45.833 256.131 45.833H216.56V41.6669C216.56 32.458 209.103 25 199.902 25C190.7 25 183.244 32.4619 183.244 41.6669V45.833Z" fill="white"/>
<g filter="url(#filter0_d_1070_33770)">
<path d="M134.017 196.093C125.661 196.093 118.887 189.316 118.887 180.957C118.887 172.597 125.661 165.82 134.017 165.82C142.372 165.82 149.146 172.597 149.146 180.957C149.146 189.316 142.372 196.093 134.017 196.093ZM295.426 242.609L204.064 151.203C200.41 147.547 195.334 145.312 189.751 145.312H118.692C116.023 145.303 113.379 145.822 110.912 146.839C108.444 147.857 106.202 149.353 104.315 151.241C102.428 153.129 100.933 155.372 99.9161 157.84C98.899 160.309 98.3802 162.955 98.3895 165.625V236.718C98.3895 242.304 100.623 247.382 104.379 251.038L195.639 342.444C199.395 346.101 204.47 348.437 210.054 348.437C215.637 348.437 220.713 346.101 224.367 342.444L295.426 271.351C299.182 267.695 301.415 262.616 301.415 257.031C301.415 251.343 299.08 246.265 295.426 242.609Z" fill="black"/>
</g>
<path d="M134.017 196.093C125.661 196.093 118.887 189.316 118.887 180.957C118.887 172.597 125.661 165.82 134.017 165.82C142.372 165.82 149.146 172.597 149.146 180.957C149.146 189.316 142.372 196.093 134.017 196.093ZM295.426 242.609L204.064 151.203C200.41 147.547 195.334 145.312 189.751 145.312H118.692C116.023 145.303 113.379 145.822 110.912 146.839C108.444 147.857 106.202 149.353 104.315 151.241C102.428 153.129 100.933 155.372 99.9161 157.84C98.899 160.309 98.3802 162.955 98.3895 165.625V236.718C98.3895 242.304 100.623 247.382 104.379 251.038L195.639 342.444C199.395 346.101 204.47 348.437 210.054 348.437C215.637 348.437 220.713 346.101 224.367 342.444L295.426 271.351C299.182 267.695 301.415 262.616 301.415 257.031C301.415 251.343 299.08 246.265 295.426 242.609Z" fill="white"/>
</g>
<defs>
<filter id="filter0_d_1070_33770" x="43.4846" y="90.4072" width="361.64" height="361.738" filterUnits="userSpaceOnUse" color-interpolation-filters="sRGB">
<feFlood flood-opacity="0" result="BackgroundImageFix"/>
<feColorMatrix in="SourceAlpha" type="matrix" values="0 0 0 0 0 0 0 0 0 0 0 0 0 0 0 0 0 0 127 0" result="hardAlpha"/>
<feOffset dx="24.4021" dy="24.4021"/>
<feGaussianBlur stdDeviation="39.6535"/>
<feColorMatrix type="matrix" values="0 0 0 0 0 0 0 0 0 0 0 0 0 0 0 0 0 0 0.16 0"/>
<feBlend mode="normal" in2="BackgroundImageFix" result="effect1_dropShadow_1070_33770"/>
<feBlend mode="normal" in="SourceGraphic" in2="effect1_dropShadow_1070_33770" result="shape"/>
</filter>
<linearGradient id="paint0_linear_1070_33770" x1="400" y1="400" x2="197.058" y2="147.185" gradientUnits="userSpaceOnUse">
<stop stop-color="#4385F5"/>
<stop offset="1" stop-color="#3569D3"/>
</linearGradient>
<clipPath id="clip0_1070_33770">
<rect width="400" height="400" fill="white"/>
</clipPath>
</defs>
</svg>
