<svg width="400" height="400" viewBox="0 0 400 400" fill="none" xmlns="http://www.w3.org/2000/svg">
<g clip-path="url(#clip0_1070_33795)">
<rect width="400" height="400" fill="#5653A4"/>
<g filter="url(#filter0_f_1070_33795)">
<circle cx="200" cy="189.75" r="106.556" fill="#8884F9"/>
</g>
<path d="M137.716 61.5547C192.541 56.0027 184.095 44.9112 200 43.5986C215.904 44.9112 207.458 56.0027 262.284 61.5547C317.16 67.1118 323.465 49.396 335.06 73.9959C336.979 78.0684 354.616 145.529 316.659 234.801C279.223 322.849 202.108 355.507 200 356.386C197.892 355.507 120.777 322.849 83.3406 234.801C45.3836 145.529 63.0206 78.0684 64.9401 73.9959C76.5346 49.396 82.8397 67.1118 137.716 61.5547Z" fill="url(#paint0_linear_1070_33795)"/>
<path d="M276.629 147.855C276.609 147.855 276.59 147.847 276.576 147.833C276.562 147.819 276.554 147.8 276.554 147.78C275.467 145.93 273.91 144.399 272.042 143.343L205.865 106.119C204.072 105.118 202.053 104.592 199.999 104.592C197.946 104.592 195.927 105.118 194.134 106.119L127.957 143.343C126.088 144.399 124.532 145.93 123.445 147.78C123.445 147.8 123.437 147.819 123.423 147.833C123.409 147.847 123.39 147.855 123.37 147.855V148.006C122.33 149.758 121.784 151.759 121.791 153.796V227.944C121.794 230.088 122.367 232.192 123.451 234.042C124.534 235.892 126.089 237.42 127.957 238.472L194.134 275.697C195.8 276.605 197.652 277.12 199.548 277.201H200.601C202.449 277.119 204.252 276.604 205.865 275.697L272.042 238.472C273.91 237.42 275.465 235.892 276.548 234.042C277.632 232.192 278.204 230.088 278.208 227.944V153.796C278.219 151.711 277.674 149.66 276.629 147.855ZM199.999 116.572L259.934 150.262L236.923 163.347L176.236 129.882L199.999 116.572ZM200.676 183.952L140.14 150.262L163.903 136.876L224.665 170.34L200.676 183.952ZM206.091 261.785L206.692 194.405L230.832 180.643V209.294C230.832 210.89 231.466 212.42 232.594 213.548C233.722 214.677 235.252 215.31 236.848 215.31C238.443 215.31 239.974 214.677 241.102 213.548C242.23 212.42 242.864 210.89 242.864 209.294V173.8L266.176 160.564V227.944L206.091 261.785Z" fill="#5653A4"/>
</g>
<defs>
<filter id="filter0_f_1070_33795" x="43.2201" y="32.9709" width="313.559" height="313.559" filterUnits="userSpaceOnUse" color-interpolation-filters="sRGB">
<feFlood flood-opacity="0" result="BackgroundImageFix"/>
<feBlend mode="normal" in="SourceGraphic" in2="BackgroundImageFix" result="shape"/>
<feGaussianBlur stdDeviation="25.1119" result="effect1_foregroundBlur_1070_33795"/>
</filter>
<linearGradient id="paint0_linear_1070_33795" x1="59.1853" y1="43.595" x2="578.749" y2="551.041" gradientUnits="userSpaceOnUse">
<stop stop-color="#F9E7CF"/>
<stop offset="1" stop-color="#FFD398"/>
</linearGradient>
<clipPath id="clip0_1070_33795">
<rect width="400" height="400" fill="white"/>
</clipPath>
</defs>
</svg>
