<svg width="20" height="20" viewBox="0 0 20 20" fill="none" xmlns="http://www.w3.org/2000/svg">
<path d="M17.0449 6.5233C16.9629 6.57464 15.0109 7.65797 15.0109 10.06C15.1029 12.7993 17.4742 13.76 17.5149 13.76C17.4742 13.8113 17.1569 15.0686 16.2169 16.3866C15.4709 17.522 14.6429 18.6666 13.3856 18.6666C12.1896 18.6666 11.7602 17.91 10.3802 17.91C8.89824 17.91 8.47891 18.6666 7.34424 18.6666C6.08691 18.6666 5.19758 17.4606 4.41091 16.336C3.38891 14.864 2.52024 12.554 2.48958 10.336C2.46891 9.16064 2.69424 8.00531 3.26624 7.02397C4.07358 5.65397 5.51491 4.72397 7.08891 4.69331C8.29491 4.65264 9.36824 5.5213 10.1042 5.5213C10.8096 5.5213 12.1282 4.69331 13.6202 4.69331C14.2642 4.69397 15.9816 4.88797 17.0449 6.5233ZM10.0022 4.45864C9.78758 3.3853 10.3802 2.31197 10.9322 1.6273C11.6376 0.799305 12.7516 0.237305 13.7122 0.237305C13.7736 1.31064 13.3849 2.3633 12.6902 3.12997C12.0669 3.95797 10.9936 4.58131 10.0022 4.45864Z" fill="#1A181E"/>
</svg>
