<?xml version="1.0" encoding="utf-8"?>
<!-- Generator: Adobe Illustrator 26.0.2, SVG Export Plug-In . SVG Version: 6.00 Build 0)  -->
<svg version="1.1" id="Layer_1" xmlns="http://www.w3.org/2000/svg" xmlns:xlink="http://www.w3.org/1999/xlink" x="0px" y="0px"
	 viewBox="0 0 288.6 84.2" style="enable-background:new 0 0 288.6 84.2;" xml:space="preserve">
<style type="text/css">
	.st0{fill:#FFFFFF;}
	.st1{opacity:0.3;fill:#FFFFFF;}
</style>
<g>
	<g>
		<path class="st0" d="M131.1,20.7V59c0,0.9-0.5,1.4-1.4,1.4h-4.8c-0.9,0-1.4-0.5-1.4-1.4V57c-2.1,2.7-5.2,4.3-9.5,4.3
			c-7.8,0-14.3-6.7-14.3-15.5s6.5-15.5,14.3-15.5c4.3,0,7.4,1.6,9.5,4.3V20.7c0-0.9,0.5-1.4,1.4-1.4h4.8
			C130.6,19.3,131.1,19.8,131.1,20.7z M123.5,45.7c0-4.9-3.5-8.3-8.1-8.3c-4.7,0-8.1,3.4-8.1,8.3s3.5,8.3,8.1,8.3
			C120,54,123.5,50.7,123.5,45.7z"/>
		<path class="st0" d="M158.6,31c0.9,0,1.4,0.5,1.4,1.4V59c0,0.9-0.5,1.4-1.4,1.4h-4.8c-0.9,0-1.4-0.5-1.4-1.4v-1.6
			c-1.6,2.5-4.3,3.8-8,3.8c-5.5,0-9.6-4.2-9.6-11.4V32.4c0-0.9,0.5-1.4,1.4-1.4h4.8c0.9,0,1.4,0.5,1.4,1.4v16.8c0,3.4,2,5,4.7,5
			c3,0,5.3-1.7,5.3-6.1V32.4c0-0.9,0.5-1.4,1.4-1.4H158.6L158.6,31z"/>
		<path class="st0" d="M189,60.4h-5.6c-0.7,0-1.3-0.3-1.7-0.9l-9.7-12.4V59c0,0.9-0.5,1.4-1.4,1.4h-4.8c-0.9,0-1.4-0.5-1.4-1.4V20.7
			c0-0.9,0.5-1.4,1.4-1.4h4.8c0.9,0,1.4,0.5,1.4,1.4V44l9.1-12.1c0.4-0.6,1-0.9,1.7-0.9h5.6c1.1,0,1.5,0.8,0.8,1.7l-9.9,12.9
			l10.4,13.2C190.6,59.7,190.2,60.4,189,60.4z"/>
		<path class="st0" d="M204.6,30.2c6.5,0,12,3.9,12,11.5V59c0,0.9-0.5,1.4-1.4,1.4h-4.6c-0.9,0-1.4-0.5-1.4-1.4v-1.1
			c-1.7,2.1-4.2,3.3-8,3.3c-5.2,0-9.9-3.1-9.9-9.2c0-6.2,4.7-9.2,9.9-9.2c3.7,0,6.3,1.1,8,2.6v-3.1c0-3.5-1.8-4.9-4.6-4.9
			c-2.2,0-3.9,0.9-4.4,2.5c-0.3,0.8-0.6,1.2-1.5,1.2h-4.7c-0.9,0-1.5-0.5-1.4-1.5C193.5,33.6,198.6,30.2,204.6,30.2L204.6,30.2z
			 M209.2,52c0-2.3-2.1-3.7-5.4-3.7c-3.3,0-4.9,1.5-4.9,3.7s1.6,3.7,4.9,3.7C207.1,55.6,209.2,54.1,209.2,52z"/>
		<path class="st0" d="M233.4,30.2c6.5,0,12,3.9,12,11.5V59c0,0.9-0.5,1.4-1.4,1.4h-4.6c-0.9,0-1.4-0.5-1.4-1.4v-1.1
			c-1.7,2.1-4.2,3.3-8,3.3c-5.2,0-9.9-3.1-9.9-9.2c0-6.2,4.7-9.2,9.9-9.2c3.7,0,6.3,1.1,8,2.6v-3.1c0-3.5-1.8-4.9-4.6-4.9
			c-2.2,0-3.9,0.9-4.4,2.5c-0.3,0.8-0.6,1.2-1.5,1.2h-4.7c-0.9,0-1.5-0.5-1.4-1.5C222.2,33.6,227.4,30.2,233.4,30.2L233.4,30.2z
			 M237.9,52c0-2.3-2.1-3.7-5.4-3.7c-3.3,0-4.9,1.5-4.9,3.7s1.6,3.7,4.9,3.7C235.9,55.6,237.9,54.1,237.9,52z"/>
		<path class="st0" d="M264.8,30.2c5.5,0,9.6,4.2,9.6,11.4V59c0,0.9-0.5,1.4-1.4,1.4h-4.8c-0.9,0-1.4-0.5-1.4-1.4V42.2
			c0-3.4-2-5-4.7-5c-3,0-5.3,1.7-5.3,6.1V59c0,0.9-0.5,1.4-1.4,1.4h-4.8c-0.9,0-1.4-0.5-1.4-1.4V32.4c0-0.9,0.5-1.4,1.4-1.4h4.8
			c0.9,0,1.4,0.5,1.4,1.4v1.6C258.4,31.6,261.1,30.2,264.8,30.2L264.8,30.2z"/>
	</g>
	<g>
		<circle class="st1" cx="42.1" cy="42.1" r="42.1"/>
		<path class="st0" d="M58.7,20H25.5c-3.2,0-5.8,2.6-5.8,5.8v32.5c0,3.2,2.6,5.8,5.8,5.8h33.2c3.2,0,5.8-2.6,5.8-5.8V25.8
			C64.5,22.6,61.9,20,58.7,20z M42.1,45.9c-8.2,0-15-6.4-15.7-14.5c-0.1-0.9,0.2-1.7,0.8-2.3c0.6-0.6,1.3-1,2.2-1.1
			c0.8-0.1,1.7,0.2,2.3,0.7c0.7,0.6,1,1.3,1.1,2.2c0.4,4.8,4.4,8.6,9.3,8.6c4.8,0,8.9-3.8,9.3-8.6c0.1-1.7,1.7-3,3.4-2.9
			c0.9,0.1,1.6,0.5,2.2,1.1c0.6,0.6,0.8,1.5,0.8,2.3C57.1,39.5,50.2,45.9,42.1,45.9z"/>
	</g>
	<g id="surface1">
		<path class="st0" d="M281.2,16.4c-4,0-7.3,3.3-7.3,7.3s3.3,7.3,7.3,7.3c4,0,7.3-3.3,7.3-7.3S285.3,16.4,281.2,16.4z M281.2,17.5
			c3.4,0,6.2,2.8,6.2,6.2s-2.8,6.2-6.2,6.2c-3.4,0-6.2-2.8-6.2-6.2S277.8,17.5,281.2,17.5z M279,20.3v6.8h1.1v-2.5h1.5l1.6,2.5h1.1
			l-1.6-2.6c0.2,0,0.4-0.1,0.5-0.1c0.3-0.1,0.6-0.3,0.8-0.5c0.2-0.2,0.3-0.4,0.4-0.7c0.1-0.2,0.1-0.5,0.1-0.7c0-0.2,0-0.5-0.1-0.7
			c-0.1-0.2-0.2-0.4-0.4-0.7c-0.2-0.2-0.5-0.4-0.8-0.5c-0.3-0.2-0.8-0.2-1.3-0.2H279z M280.1,21.2h1.5c0.2,0,0.4,0,0.6,0.1
			c0.2,0,0.4,0.1,0.6,0.2c0.2,0.1,0.3,0.2,0.4,0.3c0.1,0.2,0.2,0.3,0.2,0.6c0,0.2,0,0.5-0.2,0.6s-0.2,0.3-0.4,0.4
			c-0.2,0.1-0.4,0.1-0.6,0.2c-0.2,0.1-0.4,0.1-0.6,0.1h-1.5V21.2z"/>
	</g>
</g>
</svg>
