<svg width="400" height="400" viewBox="0 0 400 400" fill="none" xmlns="http://www.w3.org/2000/svg">
<rect width="400" height="400" fill="white"/>
<rect width="400" height="400" fill="#3B579D"/>
<path d="M295.594 65.0938H104.406C99.8084 65.0938 96.0938 68.8084 96.0938 73.4062V264.594C96.0938 269.192 99.8084 272.906 104.406 272.906H295.594C300.192 272.906 303.906 269.192 303.906 264.594V73.4062C303.906 68.8084 300.192 65.0938 295.594 65.0938ZM271.591 125.749H254.992C241.978 125.749 239.458 131.931 239.458 141.023V161.051H270.526L266.474 192.405H239.458V272.906H207.066V192.431H179.972V161.051H207.066V137.932C207.066 111.098 223.457 96.4734 247.407 96.4734C258.889 96.4734 268.734 97.3307 271.617 97.7203V125.749H271.591Z" fill="white"/>
<path d="M48.8 334V300.3H66.95V303.95H53.15V315.15H65.9V318.75H53.15V334H48.8Z" fill="white"/>
<path d="M87.7691 319.15V328.2C87.7691 329.867 87.7858 331.017 87.8191 331.65C87.8858 332.283 88.0025 333.067 88.1691 334H84.1691L83.8191 330.95C83.0191 331.983 81.9525 332.85 80.6191 333.55C79.3191 334.217 77.8691 334.55 76.2691 334.55C73.9358 334.55 72.0858 333.833 70.7191 332.4C69.4858 331.1 68.8691 329.5 68.8691 327.6C68.8691 324.667 70.1025 322.433 72.5691 320.9C75.0691 319.367 78.6858 318.6 83.4191 318.6V318.1C83.4191 316.6 83.1358 315.417 82.5691 314.55C81.6691 313.183 80.1191 312.5 77.9191 312.5C75.5858 312.5 73.4858 313.1 71.6191 314.3L70.6191 311.4C71.6191 310.733 72.8191 310.217 74.2191 309.85C75.6191 309.45 77.0691 309.25 78.5691 309.25C81.9358 309.25 84.3858 310.283 85.9191 312.35C87.1525 314.017 87.7691 316.283 87.7691 319.15ZM83.5191 325.85V321.65C80.5191 321.65 78.2191 321.967 76.6191 322.6C74.3858 323.467 73.2691 324.967 73.2691 327.1C73.2691 328.467 73.6525 329.517 74.4191 330.25C75.2191 330.95 76.2191 331.3 77.4191 331.3C78.8858 331.3 80.1358 330.917 81.1691 330.15C82.2025 329.35 82.9025 328.383 83.2691 327.25C83.3691 327.05 83.4358 326.783 83.4691 326.45C83.5025 326.083 83.5191 325.883 83.5191 325.85Z" fill="white"/>
<path d="M111.39 329.8L112.14 333.1C111.407 333.467 110.44 333.8 109.24 334.1C108.04 334.4 106.69 334.55 105.19 334.55C101.557 334.55 98.6402 333.417 96.4402 331.15C94.2402 328.883 93.1402 325.883 93.1402 322.15C93.1402 318.383 94.3236 315.3 96.6902 312.9C99.0569 310.5 102.207 309.3 106.14 309.3C107.307 309.3 108.44 309.433 109.54 309.7C110.674 309.933 111.574 310.217 112.24 310.55L111.24 313.95C110.64 313.617 109.924 313.35 109.09 313.15C108.29 312.917 107.307 312.8 106.14 312.8C103.44 312.8 101.34 313.667 99.8402 315.4C98.3402 317.1 97.5902 319.283 97.5902 321.95C97.5902 324.683 98.3736 326.883 99.9402 328.55C101.54 330.183 103.557 331 105.99 331C107.09 331 108.074 330.883 108.94 330.65C109.807 330.417 110.624 330.133 111.39 329.8Z" fill="white"/>
<path d="M136.458 322.7L119.508 322.65C119.508 325.417 120.342 327.55 122.008 329.05C123.508 330.383 125.442 331.05 127.808 331.05C129.308 331.05 130.558 330.95 131.558 330.75C132.558 330.517 133.542 330.2 134.508 329.8L135.258 332.95C133.992 333.517 132.692 333.917 131.358 334.15C130.058 334.383 128.675 334.5 127.208 334.5C123.508 334.5 120.592 333.4 118.458 331.2C116.358 328.967 115.308 326 115.308 322.3C115.308 318.5 116.325 315.383 118.358 312.95C120.425 310.483 123.192 309.25 126.658 309.25C130.192 309.25 132.842 310.583 134.608 313.25C135.975 315.317 136.658 317.767 136.658 320.6C136.658 321.033 136.642 321.4 136.608 321.7C136.575 321.967 136.525 322.3 136.458 322.7ZM119.558 319.5H132.408C132.408 317.7 132.025 316.183 131.258 314.95C130.192 313.25 128.542 312.4 126.308 312.4C124.308 312.4 122.675 313.2 121.408 314.8C120.375 316.1 119.758 317.667 119.558 319.5Z" fill="white"/>
<path d="M142.107 327.75V298.5H146.457V313.7C147.324 312.267 148.44 311.167 149.807 310.4C151.207 309.633 152.874 309.25 154.807 309.25C157.84 309.25 160.29 310.4 162.157 312.7C164.057 314.967 165.007 317.933 165.007 321.6C165.007 325.667 163.874 328.9 161.607 331.3C159.574 333.467 157.09 334.55 154.157 334.55C152.324 334.55 150.74 334.2 149.407 333.5C148.074 332.767 146.957 331.6 146.057 330L145.707 334H141.907C141.907 333.433 141.94 332.317 142.007 330.65C142.074 328.95 142.107 327.983 142.107 327.75ZM146.457 319.95V324.3C146.457 324.933 146.524 325.467 146.657 325.9C147.057 327.433 147.857 328.683 149.057 329.65C150.29 330.583 151.69 331.05 153.257 331.05C155.524 331.05 157.307 330.217 158.607 328.55C159.94 326.85 160.607 324.583 160.607 321.75C160.607 319.183 160.007 317.083 158.807 315.45C157.474 313.65 155.674 312.75 153.407 312.75C151.874 312.75 150.474 313.25 149.207 314.25C147.974 315.217 147.14 316.517 146.707 318.15C146.64 318.483 146.574 318.8 146.507 319.1C146.474 319.4 146.457 319.683 146.457 319.95Z" fill="white"/>
<path d="M180.523 334.55C177.156 334.55 174.373 333.417 172.173 331.15C169.973 328.883 168.873 325.867 168.873 322.1C168.873 318.133 170.006 315 172.273 312.7C174.539 310.4 177.406 309.25 180.873 309.25C184.339 309.25 187.139 310.4 189.273 312.7C191.439 314.967 192.523 317.967 192.523 321.7C192.523 325.867 191.256 329.117 188.723 331.45C186.489 333.517 183.756 334.55 180.523 334.55ZM180.573 331.25C182.706 331.25 184.473 330.367 185.873 328.6C187.273 326.833 187.973 324.583 187.973 321.85C187.973 319.483 187.423 317.433 186.323 315.7C184.989 313.6 183.123 312.55 180.723 312.55C178.289 312.55 176.406 313.533 175.073 315.5C173.873 317.267 173.273 319.417 173.273 321.95C173.273 324.617 173.956 326.833 175.323 328.6C176.689 330.367 178.439 331.25 180.573 331.25Z" fill="white"/>
<path d="M208.013 334.55C204.646 334.55 201.863 333.417 199.663 331.15C197.463 328.883 196.363 325.867 196.363 322.1C196.363 318.133 197.496 315 199.763 312.7C202.03 310.4 204.896 309.25 208.363 309.25C211.83 309.25 214.63 310.4 216.763 312.7C218.93 314.967 220.013 317.967 220.013 321.7C220.013 325.867 218.746 329.117 216.213 331.45C213.98 333.517 211.246 334.55 208.013 334.55ZM208.063 331.25C210.196 331.25 211.963 330.367 213.363 328.6C214.763 326.833 215.463 324.583 215.463 321.85C215.463 319.483 214.913 317.433 213.813 315.7C212.48 313.6 210.613 312.55 208.213 312.55C205.78 312.55 203.896 313.533 202.563 315.5C201.363 317.267 200.763 319.417 200.763 321.95C200.763 324.617 201.446 326.833 202.813 328.6C204.18 330.367 205.93 331.25 208.063 331.25Z" fill="white"/>
<path d="M229.904 298.5V320.9L232.154 318.15L239.254 309.8H244.554L235.204 319.75L245.854 334H240.504L232.154 322.4L229.904 324.9V334H225.554V298.5H229.904Z" fill="white"/>
<path d="M259.737 334V300.7C260.804 300.533 262.037 300.383 263.437 300.25C264.871 300.117 266.421 300.05 268.087 300.05C272.321 300.05 275.454 300.95 277.487 302.75C279.521 304.55 280.537 306.933 280.537 309.9C280.537 312.867 279.654 315.267 277.887 317.1C275.521 319.567 272.087 320.8 267.587 320.8C266.821 320.8 266.171 320.783 265.637 320.75C265.104 320.717 264.587 320.633 264.087 320.5V334H259.737ZM264.087 303.8V316.95C264.987 317.183 266.187 317.3 267.687 317.3C270.354 317.3 272.421 316.683 273.887 315.45C275.387 314.183 276.137 312.4 276.137 310.1C276.137 307.933 275.421 306.3 273.987 305.2C272.587 304.067 270.654 303.5 268.187 303.5C267.321 303.5 266.504 303.533 265.737 303.6C265.004 303.667 264.454 303.733 264.087 303.8Z" fill="white"/>
<path d="M290.355 334H285.955V309.8H290.355V334ZM288.105 305.35C287.305 305.35 286.638 305.067 286.105 304.5C285.571 303.933 285.305 303.267 285.305 302.5C285.305 301.7 285.571 301.033 286.105 300.5C286.638 299.967 287.321 299.7 288.155 299.7C289.021 299.7 289.705 299.967 290.205 300.5C290.705 301.033 290.955 301.7 290.955 302.5C290.955 303.3 290.688 303.983 290.155 304.55C289.655 305.083 288.971 305.35 288.105 305.35Z" fill="white"/>
<path d="M294.823 309.8H299.723L303.173 315L305.623 318.95L308.173 314.95L311.573 309.8H316.323L308.073 321.5L316.573 334H311.573L308.023 328.55C307.39 327.617 306.94 326.933 306.673 326.5C306.107 325.533 305.69 324.817 305.423 324.35C304.99 325.05 304.54 325.75 304.073 326.45C303.64 327.15 303.207 327.85 302.773 328.55L299.273 334H294.423L303.023 321.65L294.823 309.8Z" fill="white"/>
<path d="M339.486 322.7L322.536 322.65C322.536 325.417 323.369 327.55 325.036 329.05C326.536 330.383 328.469 331.05 330.836 331.05C332.336 331.05 333.586 330.95 334.586 330.75C335.586 330.517 336.569 330.2 337.536 329.8L338.286 332.95C337.019 333.517 335.719 333.917 334.386 334.15C333.086 334.383 331.702 334.5 330.236 334.5C326.536 334.5 323.619 333.4 321.486 331.2C319.386 328.967 318.336 326 318.336 322.3C318.336 318.5 319.352 315.383 321.386 312.95C323.452 310.483 326.219 309.25 329.686 309.25C333.219 309.25 335.869 310.583 337.636 313.25C339.002 315.317 339.686 317.767 339.686 320.6C339.686 321.033 339.669 321.4 339.636 321.7C339.602 321.967 339.552 322.3 339.486 322.7ZM322.586 319.5H335.436C335.436 317.7 335.052 316.183 334.286 314.95C333.219 313.25 331.569 312.4 329.336 312.4C327.336 312.4 325.702 313.2 324.436 314.8C323.402 316.1 322.786 317.667 322.586 319.5Z" fill="white"/>
<path d="M345.134 334V298.5H349.534V334H345.134Z" fill="white"/>
</svg>
