<svg width="400" height="400" viewBox="0 0 400 400" fill="none" xmlns="http://www.w3.org/2000/svg">
<rect width="400" height="400" fill="white"/>
<rect width="400" height="400" fill="#393A3F"/>
<path d="M230.966 172.614C230.966 181.502 224.013 188.051 215.481 188.051C206.948 188.051 199.995 181.502 199.995 172.614C199.995 163.664 206.948 157.178 215.481 157.178C224.013 157.178 230.966 163.664 230.966 172.614ZM224.187 172.614C224.187 167.061 220.157 163.261 215.481 163.261C210.804 163.261 206.774 167.061 206.774 172.614C206.774 178.113 210.804 181.968 215.481 181.968C220.157 181.968 224.187 178.106 224.187 172.614Z" fill="white"/>
<path d="M264.372 172.614C264.372 181.502 257.419 188.051 248.887 188.051C240.354 188.051 233.402 181.502 233.402 172.614C233.402 163.671 240.354 157.178 248.887 157.178C257.419 157.178 264.372 163.664 264.372 172.614ZM257.593 172.614C257.593 167.061 253.563 163.261 248.887 163.261C244.21 163.261 240.18 167.061 240.18 172.614C240.18 178.113 244.21 181.968 248.887 181.968C253.563 181.968 257.593 178.106 257.593 172.614Z" fill="white"/>
<path d="M296.386 158.111V185.824C296.386 197.224 289.663 201.88 281.715 201.88C274.233 201.88 269.731 196.876 268.032 192.783L273.934 190.327C274.985 192.839 277.56 195.804 281.708 195.804C286.795 195.804 289.948 192.665 289.948 186.756V184.536H289.712C288.194 186.408 285.271 188.044 281.583 188.044C273.865 188.044 266.794 181.321 266.794 172.67C266.794 163.957 273.865 157.178 281.583 157.178C285.264 157.178 288.187 158.814 289.712 160.63H289.948V158.118H296.386V158.111ZM290.428 172.67C290.428 167.235 286.802 163.261 282.188 163.261C277.511 163.261 273.593 167.235 273.593 172.67C273.593 178.05 277.511 181.968 282.188 181.968C286.802 181.968 290.428 178.05 290.428 172.67Z" fill="white"/>
<path d="M306.999 141.867V187.104H300.388V141.867H306.999Z" fill="white"/>
<path d="M332.764 177.695L338.025 181.203C336.327 183.715 332.235 188.044 325.164 188.044C316.395 188.044 309.846 181.265 309.846 172.608C309.846 163.428 316.45 157.171 324.405 157.171C332.416 157.171 336.334 163.546 337.614 166.991L338.317 168.745L317.682 177.291C319.262 180.388 321.719 181.968 325.164 181.968C328.616 181.968 331.01 180.27 332.764 177.695ZM316.569 172.141L330.363 166.413C329.604 164.486 327.321 163.142 324.635 163.142C321.19 163.142 316.395 166.184 316.569 172.141Z" fill="white"/>
<path d="M174.969 168.599V162.05H197.038C197.253 163.191 197.365 164.541 197.365 166.003C197.365 170.916 196.022 176.992 191.693 181.321C187.482 185.705 182.102 188.044 174.976 188.044C161.766 188.044 150.659 177.284 150.659 164.075C150.659 150.866 161.766 140.106 174.976 140.106C182.283 140.106 187.489 142.974 191.4 146.711L186.779 151.332C183.974 148.701 180.175 146.655 174.969 146.655C165.323 146.655 157.779 154.429 157.779 164.075C157.779 173.721 165.323 181.495 174.969 181.495C181.225 181.495 184.789 178.982 187.071 176.7C188.923 174.848 190.141 172.204 190.621 168.592L174.969 168.599Z" fill="white"/>
<path d="M99.5689 154.045V242.328C99.5689 252.214 106.382 257.71 113.614 257.71C120.302 257.71 127.659 253.029 127.659 242.328V154.714C127.659 145.664 120.971 140 113.614 140C106.257 140 99.5689 146.249 99.5689 154.045Z" fill="#F8AB00"/>
<path d="M62.7845 198.855V242.328C62.7845 252.214 69.5979 257.71 76.8294 257.71C83.5175 257.71 90.8744 253.029 90.8744 242.328V199.524C90.8744 190.474 84.1863 184.81 76.8294 184.81C69.4725 184.81 62.7845 191.059 62.7845 198.855Z" fill="#E37300"/>
<path d="M54.09 243.665C54.09 251.419 47.799 257.71 40.045 257.71C32.291 257.71 26 251.419 26 243.665C26 235.911 32.291 229.62 40.045 229.62C47.799 229.62 54.09 235.911 54.09 243.665Z" fill="#E37300"/>
<path d="M169.711 217.648L163.089 235.929H176.559L169.937 217.648H169.711ZM157.373 251.775H151.6L166.881 211.253H172.767L188.048 251.775H182.275L178.37 240.796H161.334L157.373 251.775Z" fill="white"/>
<path d="M191.894 224.043H196.875V227.892H197.101C197.894 226.534 199.101 225.402 200.723 224.496C202.383 223.591 204.1 223.138 205.874 223.138C209.269 223.138 211.873 224.119 213.684 226.081C215.533 228.005 216.457 230.759 216.457 234.344V251.775H211.25V234.683C211.137 230.156 208.854 227.892 204.402 227.892C202.327 227.892 200.591 228.741 199.195 230.439C197.799 232.099 197.101 234.099 197.101 236.438V251.775H191.894V224.043Z" fill="white"/>
<path d="M226.084 243.286C226.084 244.644 226.65 245.776 227.782 246.682C228.952 247.587 230.31 248.04 231.857 248.04C234.045 248.04 235.989 247.229 237.686 245.606C239.422 243.984 240.29 242.079 240.29 239.89C238.667 238.607 236.404 237.966 233.498 237.966C231.385 237.966 229.612 238.475 228.178 239.494C226.782 240.513 226.084 241.777 226.084 243.286ZM232.819 223.138C236.668 223.138 239.705 224.175 241.931 226.251C244.157 228.288 245.27 231.099 245.27 234.683V251.775H240.29V247.927H240.063C237.913 251.096 235.045 252.681 231.461 252.681C228.405 252.681 225.839 251.775 223.764 249.964C221.726 248.153 220.708 245.889 220.708 243.173C220.708 240.305 221.783 238.023 223.934 236.325C226.122 234.627 229.027 233.778 232.649 233.778C235.743 233.778 238.29 234.344 240.29 235.476V234.287C240.29 232.476 239.573 230.948 238.139 229.703C236.705 228.42 235.026 227.779 233.102 227.779C230.197 227.779 227.895 229.005 226.198 231.457L221.613 228.571C224.141 224.949 227.877 223.138 232.819 223.138Z" fill="white"/>
<path d="M256.35 211.253V251.775H251.143V211.253H256.35Z" fill="white"/>
<path d="M287.483 224.043L270.108 264H264.732L271.184 250.021L259.751 224.043H265.411L273.674 243.965H273.787L281.824 224.043H287.483Z" fill="white"/>
<path d="M301.861 252.228C299.597 252.228 297.711 251.53 296.202 250.134C294.73 248.738 293.975 246.795 293.938 244.305V228.797H289.07V224.043H293.938V215.554H299.145V224.043H305.936V228.797H299.145V242.607C299.145 244.456 299.503 245.72 300.22 246.399C300.937 247.04 301.748 247.361 302.653 247.361C303.068 247.361 303.465 247.323 303.842 247.248C304.257 247.134 304.634 247.002 304.974 246.852L306.615 251.492C305.257 251.983 303.672 252.228 301.861 252.228Z" fill="white"/>
<path d="M317.9 214.479C317.9 215.497 317.542 216.365 316.825 217.082C316.108 217.799 315.24 218.157 314.222 218.157C313.203 218.157 312.335 217.799 311.618 217.082C310.901 216.365 310.543 215.497 310.543 214.479C310.543 213.46 310.901 212.592 311.618 211.875C312.335 211.158 313.203 210.8 314.222 210.8C315.24 210.8 316.108 211.158 316.825 211.875C317.542 212.592 317.9 213.46 317.9 214.479ZM316.825 224.043V251.775H311.618V224.043H316.825Z" fill="white"/>
<path d="M336.002 252.681C331.889 252.681 328.475 251.285 325.758 248.493C323.079 245.625 321.74 242.097 321.74 237.909C321.74 233.646 323.079 230.118 325.758 227.326C328.475 224.534 331.889 223.138 336.002 223.138C338.832 223.138 341.303 223.855 343.416 225.289C345.529 226.685 347.114 228.628 348.17 231.118L343.416 233.099C341.945 229.628 339.36 227.892 335.662 227.892C333.285 227.892 331.229 228.854 329.494 230.778C327.796 232.703 326.947 235.08 326.947 237.909C326.947 240.739 327.796 243.116 329.494 245.04C331.229 246.965 333.285 247.927 335.662 247.927C339.473 247.927 342.152 246.191 343.699 242.72L348.34 244.701C347.321 247.191 345.718 249.153 343.529 250.587C341.379 251.983 338.87 252.681 336.002 252.681Z" fill="white"/>
<path d="M374.117 244.078C374.117 246.493 373.061 248.531 370.948 250.191C368.835 251.851 366.175 252.681 362.968 252.681C360.176 252.681 357.723 251.964 355.61 250.53C353.497 249.059 351.988 247.134 351.083 244.757L355.723 242.777C356.403 244.437 357.384 245.738 358.666 246.682C359.987 247.587 361.421 248.04 362.968 248.04C364.628 248.04 366.005 247.682 367.099 246.965C368.231 246.248 368.797 245.399 368.797 244.418C368.797 242.645 367.439 241.343 364.722 240.513L359.968 239.324C354.573 237.966 351.875 235.363 351.875 231.514C351.875 228.986 352.894 226.968 354.931 225.458C357.006 223.911 359.647 223.138 362.854 223.138C365.307 223.138 367.514 223.723 369.476 224.892C371.476 226.062 372.872 227.628 373.664 229.59L369.023 231.514C368.495 230.344 367.627 229.439 366.42 228.797C365.25 228.118 363.93 227.779 362.458 227.779C361.1 227.779 359.874 228.118 358.78 228.797C357.723 229.477 357.195 230.307 357.195 231.288C357.195 232.872 358.685 234.004 361.666 234.683L365.854 235.759C371.363 237.117 374.117 239.89 374.117 244.078Z" fill="white"/>
</svg>
