<svg xmlns="http://www.w3.org/2000/svg" width="27" height="18" fill="none" viewBox="0 0 27 18">
    <g clip-path="url(#clip0)">
        <path fill="#F93" d="M27 .048H0v17.06h27V.048z"/>
        <path fill="#fff" d="M27 5.763H0v5.715h27V5.763z"/>
        <path fill="#128807" d="M27 11.393H0v5.715h27v-5.715z"/>
        <path fill="#008" d="M13.5 10.883c1.342 0 2.43-1.032 2.43-2.304 0-1.273-1.088-2.304-2.43-2.304s-2.43 1.031-2.43 2.304c0 1.272 1.088 2.304 2.43 2.304z"/>
        <path fill="#fff" d="M13.5 10.543c1.143 0 2.07-.88 2.07-1.964s-.927-1.963-2.07-1.963c-1.143 0-2.07.879-2.07 1.963 0 1.085.927 1.964 2.07 1.964z"/>
        <path fill="#008" d="M13.5 9.005c.249 0 .45-.191.45-.427s-.201-.427-.45-.427c-.248 0-.45.191-.45.427s.201.427.45.427zM15.57 8.749c.09 0 .09.085.09.085 0 .085-.09.085-.09.085-.09 0-.09-.085-.09-.085 0-.085.09-.085.09-.085z"/>
        <path fill="#008" d="M13.5 10.541l.09-1.195-.09-.512-.09.598.09 1.11zM15.48 9.26c.09 0 .09.086.09.171 0 .085-.09.085-.18.085s-.09-.085-.09-.17c.09-.086.09-.086.18-.086zM12.96 10.541l.36-1.11.09-.597-.18.512-.27 1.195zM15.21 9.687c.09 0 .09.085 0 .17 0 .086-.09.086-.18 0-.09 0-.09-.085 0-.17h.18zM12.42 10.285l.72-1.024.27-.512-.36.426-.63 1.11zM14.85 10.113v.171h-.18v-.17c.09-.086.18-.086.18 0zM12.06 9.944l.9-.769.36-.426-.45.341-.81.854zM14.4 10.37c0 .084 0 .084-.09.17-.09 0-.09 0-.18-.086 0-.085 0-.085.09-.17.09 0 .18.085.18.085zM11.7 9.602l1.17-.512.45-.341-.54.256-1.08.597zM13.86 10.54c0 .085 0 .085-.09.085s-.09 0-.09-.085 0-.085.09-.085.09 0 .09.085zM11.43 9.09l1.26-.256.54-.17-.63.084-1.17.342zM13.32 10.54c0 .085-.09.085-.09.085-.09 0-.09-.085-.09-.085 0-.085.09-.085.09-.085.09 0 .09.085.09.085zM11.43 8.578l1.26.085.63-.085-.63-.085-1.26.085zM12.78 10.454c0 .086-.09.086-.18.086s0-.086 0-.17c0-.086.09-.086.18-.086v.17zM11.43 8.066l1.17.341.63.086-.54-.171-1.26-.256zM12.33 10.199c0 .085-.09.085-.18 0-.09 0-.09-.086 0-.171 0-.085.09-.085.18 0v.17zM11.7 7.554l1.08.683.54.256-.45-.341-1.17-.598zM11.88 9.858h-.18v-.171h.18c.09.085.09.17 0 .17zM12.06 7.213l.81.854.45.341-.36-.427-.9-.768zM11.61 9.43c-.09 0-.09 0-.18-.084-.09-.086 0-.086.09-.171.09 0 .09 0 .18.085 0 .086-.09.17-.09.17z"/>
        <path fill="#008" d="M12.42 6.872l.54 1.11.36.427-.27-.512-.63-1.025zM11.43 8.92c-.09 0-.09 0-.09-.086 0-.085 0-.085.09-.085s.09 0 .09.085 0 .085-.09.085zM12.96 6.616l.27 1.195.18.512-.09-.597-.36-1.11zM11.43 8.408c-.09 0-.09-.086-.09-.086 0-.085.09-.085.09-.085.09 0 .09.085.09.085 0 .086-.09.086-.09.086zM13.5 6.616l-.09 1.195.09.512.09-.597-.09-1.11zM11.52 7.896c-.09 0-.09-.086-.09-.17h.18s.09.084.09.17h-.18zM14.04 6.616l-.36 1.11-.09.597.18-.512.27-1.195zM11.79 7.47c-.09 0-.09-.086 0-.172 0-.085.09-.085.18 0 .09 0 .09.086 0 .171h-.18zM14.58 6.872l-.72 1.025-.27.512.36-.427.63-1.11zM12.15 7.043v-.17h.18v.17c-.09.085-.18.085-.18 0zM14.94 7.213l-.9.768-.36.427.45-.341.81-.854zM12.6 6.786c0-.085 0-.085.09-.17.09 0 .09 0 .18.085 0 .085 0 .085-.09.17-.09 0-.18-.085-.18-.085z"/>
        <path fill="#008" d="M15.3 7.554l-1.17.512-.45.342.54-.256 1.08-.598zM13.14 6.616c0-.085 0-.085.09-.085s.09 0 .09.085c0 .086 0 .086-.09.086s-.09 0-.09-.086zM15.57 8.066l-1.26.256-.54.17.63-.085 1.17-.341zM13.68 6.616c0-.085.09-.085.09-.085.09 0 .09.085.09.085 0 .086-.09.086-.09.086-.09 0-.09-.086-.09-.086zM15.57 8.578l-1.26-.085-.54.085.63.085 1.17-.085zM14.22 6.701c0-.085.09-.085.18-.085v.17s-.09.086-.18.086v-.17zM15.57 9.09l-1.17-.342-.63-.085.54.17 1.26.257zM14.67 6.957c0-.085.09-.085.18 0 .09 0 .09.085 0 .17 0 .086-.09.086-.18 0v-.17zM15.3 9.602l-1.08-.683-.54-.256.45.342 1.17.597zM15.12 7.298h.18v.171h-.18c-.09-.085-.09-.17 0-.17zM14.94 9.944l-.81-.854-.45-.341.36.426.9.769zM15.39 7.725c.09 0 .09 0 .18.085 0 .086 0 .086-.09.171-.09 0-.09 0-.18-.085 0-.086.09-.17.09-.17z"/>
        <path fill="#008" d="M14.58 10.285l-.54-1.11-.36-.426.27.512.63 1.024zM15.57 8.237c.09 0 .09 0 .09.085 0 .086 0 .086-.09.086s-.09 0-.09-.086c0-.085 0-.085.09-.085zM14.04 10.541l-.27-1.195-.18-.512.09.598.36 1.11z"/>
    </g>
    <defs>
        <clipPath id="clip0">
            <rect width="27" height="17.06" y=".048" fill="#fff" rx="3"/>
        </clipPath>
    </defs>
</svg>
