<svg width="194" height="60" viewBox="0 0 194 60" fill="none" xmlns="http://www.w3.org/2000/svg">
<path d="M134.601 10.4091C132.448 11.0154 131.66 11.3792 129.781 12.6524C127.325 14.3197 125.143 16.8661 123.718 19.7763C122.141 22.929 121.565 25.1116 121.353 28.9009C121.05 34.1757 122.293 38.6016 125.234 42.8759C127.113 45.5739 129.417 47.5747 132.176 48.8479C133.873 49.6361 134.601 49.7876 137.238 49.9089C141.209 50.0605 143.574 49.4239 146.605 47.3018C151.607 43.7551 154.517 38.1772 154.82 31.2958C155.033 26.8699 154.426 23.8081 152.577 19.9582C151.456 17.5936 150.758 16.6539 148.879 14.8047C146.363 12.2886 144.423 11.1366 141.725 10.4091C139.603 9.86343 136.48 9.86343 134.601 10.4091ZM139.936 13.9256C142.482 14.3803 144.938 15.8051 146.969 17.9574C149.121 20.2916 150.213 22.2621 150.971 25.2935C152.092 29.5982 151.607 34.4788 149.697 38.3894C148.424 40.9964 145.423 44.0885 142.937 45.3011C141.3 46.0893 140.815 46.1802 138.087 46.1802C135.389 46.1802 134.874 46.0893 133.388 45.3617C128.113 42.7244 124.87 37.0859 124.809 30.4167C124.779 26.8396 125.203 24.8691 126.658 21.777C127.386 20.2007 128.295 18.9275 129.569 17.6543C131.66 15.5626 133.388 14.5622 135.813 14.0165C137.966 13.5315 137.844 13.5315 139.936 13.9256Z" fill="#999999"/>
<path d="M13.5549 10.7122C8.21957 12.1673 3.6724 16.7145 1.85353 22.3833C0.853148 25.4451 0.45906 29.4769 0.853148 32.6296C2.09604 42.6031 7.8558 48.8782 16.6167 49.7876L18.1931 49.9392V34.3575V18.7456H16.5258H14.8585V32.4174V46.059L14.1915 45.8771C12.4636 45.3617 10.1597 44.0279 8.82586 42.7244C6.15819 40.1173 4.64246 36.2674 4.33932 31.3261C3.79366 21.868 8.61366 14.7744 16.071 14.0165L18.1931 13.8043V12.0461V10.2575L16.6167 10.2878C15.7376 10.2878 14.3431 10.5 13.5549 10.7122Z" fill="#999999"/>
<path d="M23.9529 30.1137V49.9697H25.6202H27.2875V30.1137V10.2577H25.6202H23.9529V30.1137Z" fill="#999999"/>
<path d="M33.1077 30.0227L33.1987 49.8181L34.9266 49.9091L36.6849 50L36.7455 32.3266L36.8364 14.6533L39.8073 17.3513L42.7478 20.0189V34.9943V50L44.506 49.9091L46.2339 49.8181L46.3249 30.0227L46.3855 10.2577H44.5666H42.7781L42.6871 12.8041L42.5962 15.3505L39.7163 12.8041L36.8364 10.2577H34.9266H33.0471L33.1077 30.0227Z" fill="#999999"/>
<path d="M52.1453 30.1137V49.9697H53.8126H55.4799V30.1137V10.2577H53.8126H52.1453V30.1137Z" fill="#999999"/>
<path d="M70.334 29.9621V49.6665H82.6114H94.8887V29.9621V10.2576H82.6114H70.334V29.9621ZM85.7944 14.8654C85.7944 16.3812 85.7338 16.5024 84.794 16.9268C83.9755 17.3209 83.7936 17.5634 83.733 18.5335C83.6117 20.1099 84.309 20.8677 85.855 20.8677H87.007V19.0488V17.23H88.6743H90.3416V19.0185C90.3416 20.7768 90.3719 20.8374 91.1904 20.9283C91.9482 21.0193 92.0089 21.1102 92.0089 22.535C92.0089 23.9598 91.9482 24.0507 91.1904 24.1417L90.3416 24.2326L90.2809 35.5096L90.19 46.7866L88.2195 46.8776C80.4287 47.2413 74.6386 42.9064 73.3048 35.7218C72.3651 30.6593 75.2753 24.657 79.7012 22.6563L81.1563 21.959L80.7622 20.9587C80.2165 19.6855 80.2165 17.715 80.7622 16.6843C81.6413 15.017 83.1267 14.0166 85.7338 13.3194C85.7641 13.2891 85.7944 14.0166 85.7944 14.8654Z" fill="#999999"/>
<path d="M83.2481 24.6874C80.5804 25.5059 78.6403 27.1125 77.3671 29.5074C76.6698 30.8109 76.5486 31.3869 76.5486 33.7514C76.5486 36.2069 76.6395 36.6313 77.458 38.1167C79.095 41.0572 82.2174 43.2095 85.4004 43.5127L87.0071 43.6946V33.9333V24.2023L85.8855 24.2327C85.2488 24.2327 84.0666 24.4449 83.2481 24.6874Z" fill="#999999"/>
<path d="M108.833 11.925V13.5923H111.259H113.714L113.623 29.2043L113.532 44.8163L112.714 45.6044C112.138 46.2107 111.531 46.4532 110.38 46.5745L108.833 46.7261V48.3327V49.9697H110.076C113.229 49.9697 115.654 48.2418 116.594 45.3619C117.079 43.9371 117.14 41.997 117.261 26.9913L117.352 10.2577H113.108H108.833V11.925Z" fill="#999999"/>
<path d="M159.156 30.1137V49.9697H160.823H162.49V32.2054V14.4714L165.673 17.23L168.856 20.0189V35.0246V50L170.614 49.9091L172.342 49.8181L172.433 30.0227L172.494 10.2577H170.675H168.886L168.796 12.8344L168.705 15.4415L165.764 12.8344L162.824 10.2577H161.005H159.156V30.1137Z" fill="#999999"/>
<path d="M177.284 11.2278C177.617 11.7734 179.284 14.4714 180.952 17.1997L184.013 22.1713V36.0857V49.9697H185.681H187.348V36.0251V22.0804L190.228 16.3206C191.804 13.1679 193.108 10.5002 193.108 10.4093C193.108 10.3183 192.32 10.2577 191.349 10.2577H189.591L187.651 14.2289C186.56 16.4116 185.59 18.2607 185.499 18.3214C185.378 18.382 184.165 16.5934 182.801 14.3502L180.315 10.2577H178.496H176.677L177.284 11.2278Z" fill="#999999"/>
</svg>
