<svg width="172" height="60" viewBox="0 0 172 60" fill="none" xmlns="http://www.w3.org/2000/svg">
<path d="M170.702 40.1226H0.985107V50.0001H170.702V40.1226Z" fill="#999999" stroke="#999999" stroke-miterlimit="10"/>
<path d="M170.702 10H0.985107V40.1224H170.702V10Z" fill="#1A181E"/>
<path d="M29.3374 16.5754C27.6693 14.791 25.3854 13.6999 23.0239 13.1811C18.621 12.2161 13.4082 13.0841 10.0236 16.2166C5.85822 20.0765 5.63031 26.9233 8.52036 31.5397C9.5823 33.232 10.94 34.4637 12.4869 35.3122C15.5127 36.9706 19.2513 37.1791 22.8542 36.5633C23.5767 36.4421 24.532 36.2044 25.5939 35.7438C26.4474 35.3656 27.5287 34.7691 28.6052 33.8236C29.3034 33.2126 30.8551 31.816 31.7086 29.4449C32.0771 28.4169 32.208 27.5101 32.2565 26.8894C32.5378 23.306 31.8541 19.2618 29.3374 16.5754ZM23.9016 33.8575C23.4555 34.2551 22.7572 34.7934 21.7922 35.2734C20.032 36.1414 17.9857 35.7778 16.2352 34.7982C14.829 34.0127 13.6167 32.8198 12.9136 31.5542C11.2261 28.5187 10.8867 24.3533 11.7789 21.0123C12.3075 19.0484 13.3549 17.1913 14.8872 15.8529C16.8414 14.1461 20.6915 13.9375 22.9415 15.1595C24.3283 15.9111 24.9829 17.0458 25.5309 17.9962C28.0863 22.4234 27.873 30.3177 23.9016 33.8575Z" fill="#999999"/>
<path d="M36.0007 35.8942C36.4371 35.5159 36.8784 35.1426 37.3148 34.7644C37.3148 29.251 37.3148 23.7376 37.3148 18.2194C36.8735 17.7781 36.4371 17.3417 35.9958 16.9004C39.943 16.9004 43.895 16.9004 47.8421 16.9004C48.5937 16.9004 49.3453 16.9004 50.0969 16.9004C50.0969 17.9332 50.0969 18.971 50.0969 20.0038C49.3744 19.2813 48.6568 18.5636 47.9342 17.8411C46.0092 17.8411 44.0792 17.8411 42.1542 17.8411C42.159 20.5663 42.159 23.2915 42.1542 26.0215V26.0312C43.7204 26.0312 45.2867 26.0312 46.8529 26.0312C47.4299 25.4542 48.007 24.8771 48.584 24.3001C48.584 25.7984 48.584 27.2919 48.584 28.7903C48.1185 28.3248 47.6579 27.8641 47.1923 27.3986C45.5291 27.3986 43.861 27.3986 42.1978 27.3986C42.1978 29.8862 42.1978 32.3689 42.1978 34.8565C42.5663 35.225 42.9397 35.5984 43.3082 35.9669C40.874 35.9427 38.4349 35.9184 36.0007 35.8942Z" fill="#999999" stroke="#999999" stroke-miterlimit="10"/>
<path d="M50.3296 15.887V21.41" stroke="#999999" stroke-miterlimit="10"/>
<path d="M48.7776 23.054V30.0318" stroke="#999999" stroke-miterlimit="10"/>
<path d="M44.3554 36.2434H35.1567" stroke="#999999" stroke-miterlimit="10"/>
<path d="M44.5786 16.9004H35.3799" stroke="#999999" stroke-miterlimit="10"/>
<path d="M54.7907 35.8942C55.2271 35.5159 55.6684 35.1426 56.1048 34.7644C56.1048 29.251 56.1048 23.7376 56.1048 18.2194C55.6636 17.7781 55.2272 17.3417 54.7859 16.9004C58.733 16.9004 62.685 16.9004 66.6322 16.9004C67.3838 16.9004 68.1354 16.9004 68.887 16.9004C68.887 17.9332 68.887 18.971 68.887 20.0038C68.1645 19.2813 67.4468 18.5636 66.7243 17.8411C64.7992 17.8411 62.8693 17.8411 60.9442 17.8411C60.949 20.5663 60.949 23.2915 60.9442 26.0215V26.0312C62.5104 26.0312 64.0767 26.0312 65.6429 26.0312C66.22 25.4542 66.797 24.8771 67.3741 24.3001C67.3741 25.7984 67.3741 27.2919 67.3741 28.7903C66.9085 28.3248 66.4479 27.8641 65.9824 27.3986C64.3191 27.3986 62.6511 27.3986 60.9878 27.3986C60.9878 29.8862 60.9878 32.3689 60.9878 34.8565C61.3564 35.225 61.7297 35.5984 62.0983 35.9669C59.664 35.9427 57.2298 35.9184 54.7907 35.8942Z" fill="#999999" stroke="#999999" stroke-miterlimit="10"/>
<path d="M69.1196 15.887V21.41" stroke="#999999" stroke-miterlimit="10"/>
<path d="M67.5676 23.054V30.0318" stroke="#999999" stroke-miterlimit="10"/>
<path d="M63.1455 36.2434H53.9468" stroke="#999999" stroke-miterlimit="10"/>
<path d="M63.3684 16.9004H54.1746" stroke="#999999" stroke-miterlimit="10"/>
<path d="M95.1007 18.8302C94.8631 18.452 93.8011 16.8276 91.7451 15.4795C91.0662 15.0334 89.7279 14.1703 87.7737 13.8357C87.3179 13.7581 86.9154 13.7193 86.5808 13.7048C86.5663 13.7048 86.4257 13.6999 86.2705 13.6999C85.4995 13.6902 76.6305 13.6951 73.7405 13.6999C73.789 13.7581 73.8375 13.8212 73.886 13.8793C74.2497 14.3206 74.6133 14.7619 74.9722 15.2031V34.2357C74.5649 34.8419 74.1624 35.4528 73.7551 36.059C73.7066 36.1366 73.6532 36.2093 73.6047 36.2869H87.09C88.2877 36.0396 90.1109 35.4868 91.9536 34.1678C92.8749 33.5035 94.5963 32.2379 95.6486 29.9249C96.4681 28.1016 96.3178 26.0748 96.3032 24.1303C96.2935 22.2149 96.1432 20.4935 95.1007 18.8302ZM91.0953 24.5036C90.9983 28.1841 90.6492 32.5822 86.7505 34.3036C86.0426 34.614 85.4074 34.7352 84.9709 34.7837H79.5594V14.6552C81.2953 14.6794 83.0313 14.7037 84.7624 14.7231C85.2425 14.8346 85.8971 15.0334 86.6099 15.4117C88.6271 16.4688 89.6309 18.1659 90.1013 18.9709C91.0759 20.6341 91.1487 22.6271 91.0953 24.5036Z" fill="#999999"/>
<path d="M72.509 13.8794H80.2433" stroke="#999999" stroke-miterlimit="10"/>
<path d="M72.373 36.0591H80.1073" stroke="#999999" stroke-miterlimit="10"/>
<path d="M101.807 17.5307C102.059 17.6616 101.807 20.8669 101.807 21.2742C101.807 22.5786 101.807 23.883 101.807 25.1874C101.807 27.738 101.735 30.4777 102.724 32.878C103.951 35.8553 106.967 36.5487 109.9 36.6894C113.081 36.8397 116.679 36.0202 118.377 33.0671C119.569 30.9917 119.128 28.412 119.128 26.099C119.128 23.4466 119.128 20.7941 119.128 18.1417C119.4 17.7974 119.676 17.458 119.948 17.1137C118.76 17.1137 117.576 17.1137 116.388 17.1137C116.723 17.4483 117.053 17.778 117.387 18.1126C117.387 20.7359 117.387 23.3593 117.387 25.9826C117.387 29.2897 117.678 32.3446 114.677 34.5024C112.824 35.8359 109.842 35.6614 108.092 34.2357C106.045 32.5628 106.259 29.8231 106.259 27.447C106.259 25.9196 106.259 24.3921 106.259 22.8647C106.259 22.0743 106.259 21.279 106.259 20.4886C106.259 20.1347 106.036 18.5054 106.259 18.2823C106.676 17.8653 107.093 17.4483 107.51 17.0312C105.289 17.0312 103.073 17.0312 100.852 17.0312C101.172 17.201 101.492 17.3658 101.807 17.5307Z" fill="#999999"/>
<path d="M100.028 17.0359H108.174" stroke="#999999" stroke-miterlimit="10"/>
<path d="M115.448 17.0359H120.718" stroke="#999999" stroke-miterlimit="10"/>
<path d="M123.647 16.1631V21.434" stroke="#999999" stroke-miterlimit="10"/>
<path d="M142.175 16.1631V21.3419" stroke="#999999" stroke-miterlimit="10"/>
<path d="M128.438 36.2869H137.132" stroke="#999999" stroke-miterlimit="10"/>
<path d="M123.647 16.1631C129.786 16.1631 135.925 16.1631 142.064 16.1631C142.064 17.579 142.064 18.9949 142.064 20.406C141.375 19.7175 140.687 19.0289 139.998 18.3403C138.427 18.3403 136.851 18.3403 135.28 18.3403C135.28 23.8683 135.28 29.3962 135.28 34.9193C135.736 35.3751 136.192 35.8309 136.648 36.2867C134.228 36.2867 131.813 36.2867 129.393 36.2867C129.781 35.8503 130.169 35.4188 130.557 34.9823C130.557 29.435 130.557 23.8925 130.557 18.3452C128.797 18.3452 127.037 18.3452 125.276 18.3452C124.733 19.121 124.19 19.8969 123.642 20.6727C123.647 19.1744 123.647 17.6663 123.647 16.1631Z" fill="#999999"/>
<path d="M144.324 17.0361H153.426" stroke="#999999" stroke-miterlimit="10"/>
<path d="M159.725 17.0361H166.024" stroke="#999999" stroke-miterlimit="10"/>
<path d="M150.346 36.2869H159.38" stroke="#999999" stroke-miterlimit="10"/>
<path d="M145.211 17.0361C147.699 20.4644 150.186 23.8927 152.674 27.321C152.698 29.7649 152.718 32.204 152.742 34.6479C152.31 35.1959 151.874 35.7438 151.442 36.2869C153.862 36.2869 156.282 36.2869 158.696 36.2869C158.265 35.7632 157.828 35.2395 157.397 34.7158C157.353 32.204 157.305 29.697 157.261 27.1852C159.453 24.1255 161.645 21.0706 163.832 18.0108C164.355 17.6859 164.879 17.361 165.408 17.0361C163.652 17.0361 161.892 17.0361 160.137 17.0361C160.481 17.4047 160.82 17.778 161.165 18.1466C159.589 20.6778 158.018 23.2138 156.442 25.745C154.914 23.2138 153.382 20.6778 151.854 18.1466C152.107 17.778 152.359 17.4047 152.606 17.0361C150.138 17.0361 147.675 17.0361 145.211 17.0361Z" fill="#999999"/>
<path d="M127.754 47.8713L130.426 42.5325" stroke="#1A181E" stroke-miterlimit="10"/>
<path d="M133.093 47.8713L130.426 42.5325" stroke="#1A181E" stroke-miterlimit="10"/>
<path d="M130.63 42.4209H130.203V42.6779H130.63V42.4209Z" fill="#1A181E"/>
<path d="M128.54 46.3003H132.264" stroke="#1A181E" stroke-miterlimit="10"/>
<path d="M108.28 42.4211V48.0412" stroke="#1A181E" stroke-miterlimit="10"/>
<path d="M39.5593 42.4258V48.0071" stroke="#1A181E" stroke-miterlimit="10"/>
<path d="M59.8672 48.0071V42.4258" stroke="#1A181E" stroke-miterlimit="10"/>
<path d="M63.8826 42.4258V48.0071" stroke="#1A181E" stroke-miterlimit="10"/>
<path d="M59.8672 42.4258L63.8822 48.0071" stroke="#1A181E" stroke-miterlimit="10"/>
<path d="M84.103 42.8915C84.103 44.419 84.103 45.9464 84.103 47.4739C84.7577 47.4642 85.4123 47.4884 86.0669 47.4739C87.1483 47.4448 87.6865 47.309 88.312 46.5041C88.6272 46.0967 88.8115 45.6167 88.8503 45.1366C88.9036 44.5402 88.7193 43.905 88.2296 43.4492C87.6913 42.9449 86.9397 42.8673 86.1687 42.877C85.9651 42.877 84.103 42.9206 84.103 42.8915Z" stroke="#1A181E" stroke-miterlimit="10"/>
</svg>
