<svg width="261" height="60" viewBox="0 0 261 60" fill="none" xmlns="http://www.w3.org/2000/svg">
<g clip-path="url(#clip0_4459_156884)">
<path d="M18.279 8.98206C17.6175 9.12626 17.1873 9.32363 16.2408 9.91084C15.192 10.5568 14.4338 10.765 13.3852 10.6901C12.4763 10.6261 11.6373 10.7969 11.0082 11.1759C10.325 11.5868 9.9165 12.03 9.36249 12.9586C9.0076 13.5458 8.6688 13.9088 8.29761 14.0956C8.15255 14.1649 7.72213 14.325 7.33505 14.4533C5.1409 15.163 4.19961 16.22 3.75868 18.4779C3.65118 19.0221 3.45227 19.5132 3.17785 19.9137C3.08644 20.0364 2.72082 20.4526 2.36056 20.8263C1.73124 21.4882 1.43 21.8778 1.29568 22.2196C1.03755 22.8814 1.00515 23.7622 1.20426 24.9417C1.37635 25.9611 1.4302 26.8526 1.34395 27.3382C1.26348 27.7812 1.13968 28.1496 0.790156 28.9984C0.295368 30.1673 0.171775 30.9091 0.343857 31.635C0.467451 32.1582 0.693387 32.5585 1.29031 33.3486C1.59135 33.7435 1.91406 34.2238 2.00546 34.416C2.15072 34.7202 2.17218 34.8163 2.17218 35.2166C2.16681 35.553 2.12926 35.7984 2.02176 36.1507C1.60228 37.5386 1.62374 38.4727 2.08614 39.4068C2.4466 40.1274 2.95212 40.6557 4.02753 41.4458C4.94716 42.113 5.16236 42.4439 5.45804 43.6555C5.56574 44.0771 5.72173 44.5788 5.81314 44.7711C6.14121 45.4489 6.89412 46.0093 7.78672 46.239C7.9912 46.2868 8.51281 46.3458 9.05051 46.367C10.5295 46.4417 10.8415 46.6233 11.5028 47.8403C12.0139 48.7797 12.3527 49.1693 12.9011 49.4628C13.3474 49.6976 13.5465 49.7404 14.5415 49.7884C15.6439 49.8418 15.7836 49.8846 17.0851 50.5998C18.1393 51.1762 18.9083 51.2242 20.527 50.824C21.3874 50.6051 21.4089 50.6104 22.3178 50.8452C23.4148 51.1334 24.2431 51.1655 24.8778 50.9414C25.1305 50.8559 25.7113 50.5677 26.2115 50.2902C26.9052 49.9112 27.2009 49.8365 28.2012 49.7884C29.4167 49.7297 29.7984 49.607 30.3417 49.1053C30.6697 48.801 30.8041 48.6089 31.2613 47.7869C31.6861 47.0395 31.8958 46.7994 32.353 46.5752C32.665 46.4204 32.7294 46.4151 33.6436 46.367C34.7785 46.3136 34.9827 46.2762 35.6389 45.9668C36.2304 45.6945 36.6714 45.2941 36.908 44.8032C36.9887 44.6269 37.1554 44.1145 37.2683 43.6662C37.3921 43.1751 37.5427 42.7161 37.6448 42.5292C37.8384 42.1663 38.2686 41.7499 38.9569 41.2482C40.0111 40.4849 40.6565 39.6682 40.8985 38.7875C41.0813 38.1203 40.9792 36.8499 40.6779 36.0173C40.5541 35.681 40.5166 35.0779 40.5973 34.7416C40.6672 34.4481 41.0167 33.8822 41.4793 33.3005C42.1838 32.4198 42.4526 31.7686 42.4473 30.9465C42.4419 30.3487 42.3612 30.039 41.8557 28.7795C41.3824 27.5838 41.3341 27.3543 41.3663 26.4362C41.3824 25.9985 41.4523 25.3579 41.533 24.8989C41.7643 23.5967 41.6997 22.7692 41.3234 22.0007C41.1781 21.707 40.9792 21.4616 40.4037 20.8531C39.371 19.7801 39.1507 19.4011 38.9625 18.3924C38.7097 17.0527 38.1772 16.0705 37.3382 15.414C36.8166 15.0029 36.295 14.7415 35.4076 14.4533C34.1491 14.0422 33.9663 13.9035 33.3533 12.916C32.7671 11.9658 32.2024 11.4054 31.5033 11.0744C30.788 10.7382 30.6105 10.7061 29.3843 10.6901C27.884 10.6742 27.5021 10.5621 26.319 9.80407C25.4155 9.2277 24.7432 8.97674 23.9257 8.91804C23.1945 8.86998 22.4469 9.09414 21.9629 9.51057C21.7693 9.68136 21.4466 9.77748 21.2314 9.72942C21.1507 9.70794 20.898 9.57991 20.683 9.43571C20.4624 9.29172 20.129 9.12094 19.9408 9.06224C19.4945 8.91272 18.7523 8.8753 18.279 8.98206ZM19.516 9.86871C19.6666 9.90061 19.914 10.0127 20.07 10.1141C21.0325 10.7654 21.6994 10.7813 22.5976 10.1728C23.5009 9.55373 24.5228 9.71387 26.077 10.712C26.3565 10.8934 26.7599 11.1069 26.9698 11.1978C27.701 11.4966 27.9001 11.534 29.2231 11.5714C30.6373 11.6142 30.8094 11.6514 31.4548 12.0785C31.8797 12.356 32.1485 12.671 32.5573 13.3595C33.1759 14.4003 33.7082 14.8487 34.6817 15.153C36.2412 15.6334 36.8973 16.039 37.4296 16.8451C37.7631 17.3468 37.8869 17.6777 38.0751 18.5904C38.3278 19.802 38.6181 20.2984 39.7851 21.5207C40.4681 22.2359 40.6134 22.4709 40.7372 23.0579C40.8393 23.5224 40.8125 23.8853 40.6187 24.9476C40.5434 25.3585 40.4681 26.0098 40.452 26.41C40.4145 27.3441 40.4951 27.7499 40.9575 28.9454C41.4416 30.1892 41.5654 30.6001 41.5654 30.9631C41.5654 31.5556 41.2856 32.1161 40.4574 33.1622C40.1132 33.5946 39.769 34.2671 39.6884 34.6727C39.5862 35.1532 39.6184 35.4788 39.8551 36.3648C40.0596 37.1334 40.081 37.2829 40.081 37.8593C40.081 38.4091 40.0649 38.5425 39.9572 38.7934C39.6937 39.4178 39.1129 40.0638 38.2793 40.6403C37.134 41.4356 36.7574 41.9907 36.4025 43.4105C36.1605 44.3606 36.0583 44.5794 35.7464 44.8516C35.2248 45.2947 34.6332 45.4654 33.6222 45.4654C32.041 45.4654 31.2182 45.9459 30.5137 47.2749C29.793 48.6414 29.4435 48.8762 28.0776 48.9083C27.0558 48.9296 26.5556 49.0791 25.4154 49.7036C24.6464 50.1253 24.4583 50.184 23.8721 50.1787C23.302 50.1787 22.931 50.1147 22.2587 49.9064C21.6241 49.7142 21.1778 49.7195 20.3764 49.9384C19.5859 50.1572 18.8705 50.2427 18.4564 50.168C18.2468 50.1306 17.8003 49.9384 17.1227 49.6021C15.9289 49.0098 15.6439 48.9296 14.6329 48.903C13.3152 48.8762 12.8957 48.604 12.2827 47.387C11.5727 45.9778 10.7338 45.4654 9.12046 45.4654C8.09869 45.4654 7.49105 45.284 6.98016 44.8357C6.67355 44.5635 6.54975 44.3125 6.39397 43.6506C6.02277 42.0708 5.70007 41.5636 4.49013 40.6669C3.61363 40.0157 3.1242 39.5033 2.85514 38.9589L2.65624 38.5533L2.6616 37.8327C2.66697 37.1762 2.68306 37.0533 2.85514 36.4448C3.08644 35.6389 3.14029 35.244 3.06498 34.8116C2.97358 34.2297 2.72618 33.7492 2.11316 32.9434C1.40317 32.0146 1.22036 31.6516 1.18817 31.1071C1.16114 30.6162 1.24182 30.3066 1.71515 29.1056C1.90333 28.6359 2.09687 28.0808 2.15608 27.878C2.36056 27.1146 2.3389 26.095 2.08077 24.7822C1.93572 24.0454 1.92478 23.1968 2.05395 22.7804C2.17754 22.3748 2.34963 22.14 3.00577 21.462C4.1406 20.2984 4.43091 19.7754 4.67294 18.5051C4.86648 17.507 5.1731 16.8823 5.77002 16.2953C6.23262 15.8414 6.72204 15.5854 7.80818 15.2276C8.61494 14.9661 8.84088 14.8648 9.14728 14.6298C9.4378 14.4056 9.88947 13.8452 10.2122 13.3061C10.5941 12.6657 10.8898 12.3239 11.2985 12.0625C11.9223 11.6567 12.1214 11.6142 13.5195 11.5714C15.1759 11.5181 15.5954 11.4006 16.8163 10.6159C17.8973 9.92209 18.7146 9.69731 19.516 9.86871Z" fill="#B3B3B3"/>
<path d="M24.4742 12.1048C24.2214 12.3396 24.2806 12.6973 24.5926 12.8413C24.7647 12.9268 25.0228 12.8519 25.1089 12.6865C25.3402 12.2596 24.8239 11.7845 24.4742 12.1048Z" fill="#B3B3B3"/>
<path d="M18.278 14.3197C16.4657 14.6291 14.9492 15.1363 13.411 15.9422C12.5237 16.4067 11.2921 17.2072 11.0823 17.4582C10.9533 17.6075 10.9156 17.8585 10.9801 18.0773C11.0447 18.2855 11.4642 18.7392 13.9489 21.2852C14.3898 21.7388 15.3255 22.6997 16.0192 23.4203C18.7727 26.276 18.9556 26.4521 19.1869 26.5161C19.375 26.5642 19.445 26.5588 19.6439 26.468C20.085 26.276 20.0526 26.7456 20.0526 20.3617V14.6825L19.929 14.5011C19.687 14.1436 19.445 14.1168 18.278 14.3197ZM17.7403 17.7036C17.7724 17.773 17.7939 18.4348 17.7939 19.4919C17.7939 20.9489 17.7832 21.1837 17.7079 21.2533C17.6649 21.3011 17.595 21.3386 17.5574 21.3386C17.5143 21.3386 17.2723 21.1144 17.0088 20.8369C16.7453 20.5593 16.1967 19.9936 15.7935 19.5771C15.3794 19.1609 15.0513 18.7766 15.0513 18.7232C15.0513 18.451 16.1484 17.8744 17.041 17.6877C17.5358 17.5815 17.6703 17.5862 17.7403 17.7036Z" fill="#B3B3B3"/>
<path d="M23.034 14.2664C22.663 14.4584 22.6844 14.0635 22.7005 20.442L22.7166 26.1853L22.8458 26.3241C23.0179 26.5055 23.3028 26.5802 23.5502 26.5162C23.7761 26.4575 23.9965 26.2386 27.9331 22.166C28.6161 21.4614 29.7295 20.3138 30.4071 19.6147C31.09 18.9154 31.6709 18.2909 31.7084 18.2267C31.7462 18.1627 31.773 17.9972 31.7784 17.8532C31.7784 17.6291 31.7569 17.581 31.5687 17.3941C31.4557 17.282 31.0901 17.0097 30.7513 16.7909C28.826 15.5259 26.8846 14.7519 24.6366 14.3516C23.7277 14.1862 23.2382 14.1653 23.034 14.2664ZM25.9971 17.7624C26.7071 17.9438 27.6911 18.4989 27.6911 18.7178C27.6911 18.7765 27.2716 19.2463 26.6747 19.8548C26.1209 20.4205 25.5937 20.965 25.5131 21.0611C25.3142 21.2959 25.1906 21.3546 25.056 21.2853C24.9539 21.2319 24.9485 21.1732 24.9485 19.4811C24.9485 18.1521 24.9646 17.7144 25.0185 17.661C25.0936 17.5814 25.4002 17.6129 25.9971 17.7624Z" fill="#B3B3B3"/>
<path d="M6.9606 16.278C6.69711 16.4275 6.64326 16.6942 6.83144 16.9292C6.91748 17.036 6.98742 17.0679 7.15414 17.0679C7.42299 17.0679 7.57898 16.9239 7.57898 16.6677C7.57898 16.3265 7.24555 16.1179 6.9606 16.278Z" fill="#B3B3B3"/>
<path d="M35.2967 16.3423C35.0976 16.5078 35.0869 16.8228 35.2697 16.9667C35.4474 17.1109 35.7323 17.1003 35.8937 16.9348C36.0711 16.7587 36.0657 16.5612 35.8722 16.3691C35.6784 16.1822 35.4956 16.1715 35.2967 16.3423Z" fill="#B3B3B3"/>
<path d="M36.2682 17.6284C35.8972 17.9968 36.392 18.5625 36.8222 18.2635C37.1932 18.0074 36.9996 17.4949 36.5317 17.4949C36.4563 17.4949 36.3381 17.5542 36.2682 17.6284Z" fill="#B3B3B3"/>
<path d="M8.45498 19.8175C8.24514 19.9083 7.75571 20.5062 7.17488 21.3922C6.09947 23.0256 5.40557 24.6535 4.96464 26.5697C4.76573 27.4505 4.69041 27.9575 4.73333 28.1604C4.77646 28.3792 4.95927 28.5766 5.17984 28.6461C5.27124 28.6781 6.77707 28.7261 8.51935 28.7529C10.2672 28.7848 12.8109 28.8382 14.177 28.8703C16.5862 28.929 16.6722 28.929 16.8606 28.8276C17.2048 28.6515 17.3498 28.2297 17.1833 27.9147C17.0595 27.6906 9.13257 19.855 8.96049 19.7909C8.76138 19.7216 8.66462 19.7269 8.45498 19.8175ZM10.9879 24.8457C12.0151 25.8651 12.2032 26.0787 12.1925 26.1961L12.1764 26.3296L10.3747 26.3188C8.73455 26.3028 8.56783 26.2975 8.50325 26.212C8.4333 26.1161 8.43868 26.0359 8.57857 25.4808C8.75066 24.7817 9.41215 23.6341 9.64882 23.6341C9.72949 23.6341 10.1382 24.0022 10.9879 24.8457Z" fill="#B3B3B3"/>
<path d="M33.7126 19.8113C33.6373 19.8487 31.7712 21.6742 29.5609 23.868C25.1671 28.2341 25.3769 27.9887 25.5436 28.4583C25.5921 28.5919 25.6889 28.7199 25.8071 28.7999L25.9953 28.9281L27.1516 28.896C27.7863 28.88 30.3675 28.8267 32.879 28.7786C37.8966 28.6878 37.7031 28.7039 37.9127 28.3624C38.0419 28.1488 38.0419 27.8872 37.902 27.2041C37.3857 24.6153 36.3961 22.4001 34.8742 20.4359C34.3526 19.7632 34.0784 19.6139 33.7126 19.8113ZM33.4491 23.996C34.0406 24.8502 34.4494 26.1632 34.1644 26.27C34.116 26.286 33.2985 26.3179 32.3413 26.3393L30.6042 26.3713L30.5396 26.2539C30.4806 26.1365 30.5505 26.0565 31.7283 24.8821C32.5456 24.0709 33.0242 23.6332 33.0942 23.6332C33.1695 23.6332 33.2824 23.7506 33.4491 23.996Z" fill="#B3B3B3"/>
<path d="M1.95649 30.5457C1.68228 30.8126 1.87581 31.2662 2.26847 31.2662C2.50513 31.2662 2.68258 31.0848 2.68258 30.8339C2.68258 30.4495 2.23071 30.2681 1.95649 30.5457Z" fill="#B3B3B3"/>
<path d="M40.2054 30.4763C39.9849 30.6471 39.9956 31.0901 40.2215 31.2128C40.3829 31.2983 40.6303 31.2768 40.7646 31.1647C40.8614 31.0901 40.8938 31.0099 40.8938 30.8391C40.8938 30.6683 40.8614 30.5884 40.7646 30.5135C40.6194 30.3961 40.3398 30.3801 40.2054 30.4763Z" fill="#B3B3B3"/>
<path d="M10.3726 31.384C7.93108 31.4108 5.80151 31.4427 5.64016 31.4589C5.39277 31.4855 5.31745 31.5229 5.13464 31.699L4.9248 31.9125L4.9572 32.3502C5.05397 33.6472 5.62943 35.6115 6.37141 37.17C6.87156 38.2215 7.8504 39.7322 8.40977 40.3247C8.67326 40.597 8.69472 40.6076 8.96894 40.6076C9.25409 40.6076 9.25945 40.6023 9.6682 40.2127C11.174 38.75 17.5576 32.3768 17.5844 32.2969C17.7189 31.9659 17.5576 31.5601 17.2188 31.384C17.0896 31.3147 17.2994 31.3147 10.3726 31.384ZM12.4054 33.9947C12.4215 34.1121 12.2441 34.299 11.2062 35.3025C10.534 35.943 9.95315 36.4928 9.91023 36.5141C9.78107 36.5888 9.62508 36.4501 9.37769 36.0337C8.94212 35.2918 8.59795 34.1068 8.75931 33.9094C8.81852 33.8398 9.06035 33.8292 10.6093 33.8398L12.3893 33.856L12.4054 33.9947Z" fill="#B3B3B3"/>
<path d="M25.4492 31.4208C25.234 31.5544 25.1104 31.7892 25.1104 32.0614C25.1104 32.2322 25.1533 32.323 25.3307 32.5312C25.6373 32.8834 33.2255 40.3987 33.3922 40.5163C33.5589 40.6284 33.973 40.6337 34.1343 40.527C34.3817 40.3509 35.2153 39.2086 35.7262 38.3438C36.7158 36.6679 37.3449 34.9651 37.6891 33.0168C37.8558 32.0882 37.8451 31.9387 37.5977 31.693C37.4256 31.5222 37.3503 31.485 37.1029 31.4582C36.9415 31.4423 35.1885 31.4155 33.204 31.3995C31.2248 31.3836 28.708 31.3568 27.6109 31.3408C25.6749 31.314 25.6159 31.314 25.4492 31.4208ZM33.973 33.8922C34.0644 33.983 34.0537 34.1163 33.9245 34.6289C33.6934 35.5362 33.1501 36.5505 32.892 36.5505C32.7952 36.5505 30.273 34.1163 30.273 34.0149C30.273 33.8388 30.3966 33.8281 32.1552 33.8281C33.446 33.8281 33.9245 33.8441 33.973 33.8922Z" fill="#B3B3B3"/>
<path d="M2.92635 32.0935C2.53391 32.4778 3.07698 33.0437 3.51255 32.702C3.62025 32.6167 3.65244 32.5473 3.65244 32.3925C3.65244 31.9976 3.20614 31.8106 2.92635 32.0935Z" fill="#B3B3B3"/>
<path d="M39.2638 31.9979C39.1509 32.0406 39.0273 32.3288 39.0702 32.4568C39.194 32.8679 39.6886 32.9479 39.877 32.5904C39.9792 32.3928 39.9307 32.1527 39.7747 32.0406C39.6618 31.9604 39.4037 31.9396 39.2638 31.9979Z" fill="#B3B3B3"/>
<path d="M19.2746 33.8768C19.1886 33.9302 18.8605 34.2398 18.5486 34.5655C18.2368 34.8911 17.1127 36.044 16.048 37.1221C14.9831 38.2004 13.6979 39.508 13.1923 40.0205C11.6758 41.5631 11.154 42.1076 11.1164 42.1982C11.0465 42.369 11.0733 42.7161 11.1703 42.8654C11.2885 43.0523 11.9232 43.5219 12.7512 44.0292C14.5098 45.1179 16.3868 45.8172 18.5378 46.1855C19.6027 46.367 19.8394 46.367 20.0814 46.1534C20.1889 46.0573 20.291 45.9027 20.3234 45.7851C20.361 45.6464 20.3717 43.6874 20.3664 39.9297C20.3503 34.4319 20.3449 34.2771 20.2428 34.1116C20.049 33.7915 19.592 33.6794 19.2746 33.8768ZM17.8495 39.0331C17.9463 39.1505 17.8873 42.5025 17.7849 42.6199C17.5268 42.9296 15.1606 41.9206 15.1606 41.4991C15.1606 41.3602 17.5538 38.9529 17.6935 38.9529C17.742 38.9529 17.8119 38.9903 17.8495 39.0331Z" fill="#B3B3B3"/>
<path d="M22.7276 33.8709C22.4049 34.0845 22.4264 33.6468 22.421 40.0094C22.421 46.4145 22.4049 46.0623 22.7437 46.2384C22.9536 46.3451 23.287 46.3398 24.0614 46.2116C25.6155 45.9502 26.9709 45.5391 28.3314 44.9093C29.5791 44.3381 31.0579 43.4148 31.4881 42.945C31.6388 42.7795 31.6712 42.6996 31.6712 42.5126C31.6656 42.1389 32.1228 42.6355 26.9439 37.3778C26.4222 36.8493 25.4434 35.8565 24.7658 35.1681C24.0936 34.4849 23.4752 33.8924 23.3945 33.8497C23.201 33.7482 22.9051 33.7589 22.7276 33.8709ZM26.3523 40.1801C27.3258 41.1461 27.5893 41.4345 27.5732 41.5251C27.5515 41.68 26.8578 42.1445 26.304 42.3686C26.0781 42.4646 25.7071 42.5822 25.4758 42.6247C25.0992 42.7049 25.051 42.7049 24.9756 42.63C24.9057 42.566 24.8896 42.2619 24.8572 40.7993C24.8196 38.9685 24.825 38.9579 25.0456 38.9525C25.0831 38.9525 25.6747 39.5076 26.3523 40.1801Z" fill="#B3B3B3"/>
<path d="M37.6685 38.6591C37.5825 38.7393 37.5342 38.8514 37.5342 38.9527C37.5342 39.3317 38.0234 39.5239 38.2869 39.2464C38.6742 38.8353 38.0665 38.2589 37.6685 38.6591Z" fill="#B3B3B3"/>
<path d="M8.16916 43.5325C8.07218 43.634 8.00781 43.7514 8.00781 43.8367C8.00781 43.9968 8.27129 44.2905 8.41119 44.2905C8.5779 44.2905 8.80364 44.1357 8.85213 43.9862C8.9489 43.6818 8.81972 43.4685 8.50259 43.4043C8.3627 43.3777 8.30885 43.399 8.16916 43.5325Z" fill="#B3B3B3"/>
<path d="M27.0462 47.6155C26.7559 47.765 26.7183 48.144 26.9765 48.3467C27.256 48.5656 27.6163 48.4269 27.6702 48.0745C27.7294 47.7388 27.3528 47.4607 27.0462 47.6155Z" fill="#B3B3B3"/>
</g>
<path d="M53.9502 46.026C58.2061 45.893 61.8413 45.8487 65.4765 45.8487C69.1117 45.8487 72.6139 45.893 76.8254 46.026C76.9584 43.1001 77.0471 40.2186 77.0471 37.337H76.4264C75.5398 39.8196 73.6779 42.1248 72.3479 43.2775C70.8406 44.5188 69.7323 44.8291 67.4714 44.8291C62.8609 44.8291 62.5506 40.8835 62.5506 37.5587V24.4808C62.5506 18.7176 63.5259 16.235 66.7621 15.6144V14.9938C64.6342 15.1267 62.5949 15.1711 60.467 15.1711C58.3834 15.1711 56.2555 15.1267 54.1275 14.9938V15.6144C57.3637 16.235 58.1174 18.9393 58.1174 24.4808V36.539C58.1174 41.9475 56.8761 44.8291 53.9502 45.4054V46.026Z" fill="#B3B3B3"/>
<path d="M91.5398 45.1394C87.0623 45.1394 85.5993 40.8392 85.5993 35.5194V34.2781H99.5638C99.4752 26.52 94.909 23.9931 90.5645 23.9931C84.757 23.9931 80.5898 28.4263 80.5898 35.3421C80.5898 43.0115 85.688 46.558 90.5645 46.558C94.7317 46.558 98.1009 43.8538 99.1649 39.7752L98.2782 39.5536C96.7709 43.8094 93.845 45.1394 91.5398 45.1394ZM90.2542 24.7911C92.9141 24.7911 94.3327 27.983 94.4213 33.3028H85.5993C85.7766 29.3129 87.1066 24.7911 90.2542 24.7911Z" fill="#B3B3B3"/>
<path d="M136.355 39.9969V31.5739C136.355 26.254 134.227 23.9931 131.035 23.9931C127.843 23.9931 124.873 26.2097 123.499 29.3129C122.967 25.5447 121.016 23.9931 118.268 23.9931C114.766 23.9931 111.795 26.3427 110.465 29.6233C110.687 28.5593 110.82 27.4067 110.82 26.4314V24.2148C108.293 24.6138 105.544 24.6581 102.84 24.7024V25.3231C105.81 25.7221 106.209 27.983 106.209 30.7759V39.7752C106.209 43.3661 105.19 44.6517 102.796 45.4054V46.026C104.658 45.893 106.387 45.8487 108.116 45.8487C109.845 45.8487 111.618 45.893 113.436 46.026V45.4054C111.042 44.7404 110.643 43.5878 110.643 40.3516V33.2141C110.643 29.6676 113.436 25.7221 116.406 25.7221C118.8 25.7221 119.066 28.6923 119.066 31.0862V40.0412C119.066 42.9228 118.711 44.7847 116.228 45.4054V46.026C118.002 45.893 119.686 45.8044 121.371 45.8044C123.056 45.8044 124.696 45.893 126.336 46.026V45.4054C124.075 44.7404 123.632 42.5682 123.632 39.9969V32.2832C123.987 29.1799 126.602 25.7221 129.218 25.7221C131.479 25.7221 131.789 28.648 131.789 31.3965V40.0412C131.789 43.0558 131.346 44.7847 128.863 45.4054V46.026C130.725 45.893 132.543 45.8044 134.36 45.8044C136.178 45.8044 137.907 45.893 139.547 46.026V45.4054C136.798 44.7404 136.355 42.5682 136.355 39.9969Z" fill="#B3B3B3"/>
<path d="M152.586 46.5137C158.393 46.5137 162.782 42.2135 162.782 35.2977C162.782 28.3376 158.393 23.9931 152.586 23.9931C146.734 23.9931 142.389 28.3376 142.389 35.2977C142.389 42.2135 146.734 46.5137 152.586 46.5137ZM152.586 45.76C149.571 45.76 147.488 42.6125 147.488 35.2977C147.488 27.8943 149.571 24.7911 152.586 24.7911C155.556 24.7911 157.64 27.8943 157.64 35.2977C157.64 42.6125 155.556 45.76 152.586 45.76Z" fill="#B3B3B3"/>
<path d="M187.394 39.9969V31.6625C187.394 26.0767 185 23.9931 181.542 23.9931C177.819 23.9931 174.804 26.6087 173.474 30.1109C173.696 28.9583 173.873 27.584 173.873 26.254V24.2148C171.435 24.5694 168.553 24.7024 165.938 24.7024V25.3231C168.553 25.7221 169.351 27.5397 169.351 30.8202V40.0856C169.351 43.4548 168.154 44.6517 165.938 45.4054V46.026C167.755 45.893 169.573 45.8487 171.39 45.8487C173.208 45.8487 175.026 45.893 176.843 46.026V45.4054C174.183 45.0507 173.784 43.1001 173.784 40.0856V32.8151C173.784 29.8006 176.666 25.7221 179.769 25.7221C182.651 25.7221 182.784 29.1799 182.784 31.3079V39.9969C182.784 42.8785 182.385 44.7847 179.813 45.4054V46.026C181.542 45.893 183.316 45.8487 185.089 45.8487C186.862 45.8487 188.68 45.893 190.453 46.026V45.4054C187.572 44.7404 187.394 42.3908 187.394 39.9969Z" fill="#B3B3B3"/>
<path d="M209.945 39.2433V31.7069C209.945 26.7417 207.108 23.9931 202.098 23.9931C197.754 23.9931 194.916 25.8551 193.675 28.648C194.606 30.0222 195.626 31.3522 196.778 32.5492L197.355 32.3718C197.399 28.648 198.419 24.7468 201.699 24.7468C204.182 24.7468 205.467 27.0077 205.467 31.1305V33.8791C198.64 34.3668 192.877 36.1844 192.877 41.2382C192.877 44.8291 195.803 46.5137 198.729 46.5137C201.921 46.5137 204.625 44.3414 205.778 41.1495C205.689 41.6815 205.645 42.3022 205.645 42.8341C205.645 43.9424 205.822 45.1837 206.132 46.3364C208.216 46.026 209.989 46.026 213.137 46.026V45.4054C210.654 44.7404 209.945 43.1888 209.945 39.2433ZM200.369 45.0507C198.552 45.0507 197.665 43.4105 197.665 40.7062C197.665 36.3617 200.059 35.1647 205.467 34.7657V38.4896C205.467 41.1052 203.029 45.0507 200.369 45.0507Z" fill="#B3B3B3"/>
<path d="M234.909 39.9969V13.4421C231.894 13.8411 229.323 14.0185 227.195 14.0185V14.6391C230.21 15.0381 230.564 16.6784 230.564 20.1806V24.1261C230.564 24.7468 230.609 25.4117 230.697 26.0767C229.456 24.7911 227.816 23.9931 225.821 23.9931C221.432 23.9931 215.802 27.4067 215.802 35.2091C215.802 42.0362 219.88 46.5137 224.491 46.5137C227.594 46.5137 229.855 44.3858 230.83 41.5485V42.5238C230.83 44.0311 230.963 45.2724 231.229 46.425C233.269 46.0704 235.264 46.026 238.234 46.026V45.4054C235.796 44.5631 234.909 43.2331 234.909 39.9969ZM225.289 45.4054C222.363 45.4054 220.9 41.4599 220.9 35.2534C220.9 28.9583 222.452 25.0127 226.309 25.0127C227.949 25.0127 229.456 25.8551 230.564 27.3623V37.736C230.564 41.7258 228.215 45.4054 225.289 45.4054Z" fill="#B3B3B3"/>
<path d="M252.089 45.1394C247.611 45.1394 246.148 40.8392 246.148 35.5194V34.2781H260.113C260.024 26.52 255.458 23.9931 251.113 23.9931C245.306 23.9931 241.139 28.4263 241.139 35.3421C241.139 43.0115 246.237 46.558 251.113 46.558C255.28 46.558 258.65 43.8538 259.714 39.7752L258.827 39.5536C257.32 43.8094 254.394 45.1394 252.089 45.1394ZM250.803 24.7911C253.463 24.7911 254.881 27.983 254.97 33.3028H246.148C246.325 29.3129 247.655 24.7911 250.803 24.7911Z" fill="#B3B3B3"/>
<defs>
<clipPath id="clip0_4459_156884">
<rect width="42.1768" height="42.1768" fill="white" transform="translate(0.270508 8.91162)"/>
</clipPath>
</defs>
</svg>
