<svg width="222" height="60" viewBox="0 0 222 60" fill="none" xmlns="http://www.w3.org/2000/svg">
<path fill-rule="evenodd" clip-rule="evenodd" d="M194.269 43.9851V15.5879H207.422C209.993 15.5879 212.63 15.659 214.948 16.7718C218.036 18.2542 221.271 21.1538 221.271 26.1322C221.271 30.7 218.837 33.0949 216.026 34.4496C213.04 35.8888 209.614 35.9514 206.299 35.9514H203.028V43.9851H194.269ZM203.106 22.4778V29.8843H209.284C210.297 29.8274 212.492 28.4952 212.492 26.0958C212.492 23.6964 210.319 22.4778 209.147 22.4778H203.106Z" fill="#A1A0A2"/>
<path d="M120.217 33.3395V26.915H144.268V33.3395H120.217Z" fill="#A1A0A2"/>
<path d="M120.217 44.1998V37.7754H144.268V44.1998H120.217Z" fill="#A1A0A2"/>
<path d="M120.217 22.3285V15.9041H144.268V22.3285H120.217Z" fill="#A1A0A2"/>
<path d="M92.1523 44.1641V15.9041H101.066V37.6247H116.648V44.1641H92.1523Z" fill="#A1A0A2"/>
<path d="M67.5545 32.483L56.0635 15.9041H65.8939L72.5362 25.5751L79.3112 15.9041H89.2081L69.6136 44.1641H59.6503L67.5545 32.483Z" fill="#A1A0A2"/>
<path d="M28.3252 22.5161V15.9041H52.3734L56.9929 22.5161H46.8029V44.1641H37.8358V22.5161H28.3252Z" fill="#A1A0A2"/>
<path d="M25.3542 22.4548V15.9287H8.54145C5.33477 16.1717 0.0632526 19.1102 0.12356 24.818C0.183867 30.5257 4.24609 33.0461 8.54145 33.2375H15.716C17.6675 33.2375 20.3699 33.4724 20.4019 35.4236C20.4329 37.3183 17.708 37.4339 15.813 37.4339H1.32965V44.0174H18.668C22.1943 43.8164 27.0136 41.9539 27.0136 35.4236C27.0136 28.9429 22.6295 27.0562 19.991 26.8031L10.11 26.6766C9.95841 26.6747 9.80726 26.6596 9.65825 26.6316L9.31708 26.5674C8.82219 26.4743 8.38787 26.1806 8.11713 25.756C7.74991 25.18 7.73548 24.4471 8.07977 23.8571L8.1916 23.6655C8.41923 23.2755 8.76207 22.9655 9.17301 22.7781L9.33753 22.7031C9.69645 22.5395 10.0863 22.4548 10.4808 22.4548H25.3542Z" fill="#A1A0A2"/>
<path d="M158.561 27.9553V15.7791H167.782V27.6134C167.782 31.3019 167.869 36.1373 171.397 37.2115C172.029 37.4038 172.788 37.5165 173.708 37.5165C176.019 37.5165 177.445 36.6867 178.322 35.7002C179.563 34.3046 179.585 32.2774 179.585 30.4098V15.7791H188.596V30.3981C188.596 32.2762 188.518 34.1759 187.934 35.961C186.689 39.7679 183.59 44.0558 174.316 44.3919C166.249 44.6842 162.468 41.7157 160.44 38.1237C158.723 35.0798 158.561 31.4505 158.561 27.9553Z" fill="#A1A0A2"/>
</svg>
