<svg width="264" height="60" viewBox="0 0 264 60" fill="none" xmlns="http://www.w3.org/2000/svg">
<path fill-rule="evenodd" clip-rule="evenodd" d="M252.049 17.8247H251.028V19.9827H250.089V14.5559H251.87C252.292 14.5559 252.658 14.6197 252.969 14.7474C253.279 14.8708 253.518 15.056 253.684 15.3028C253.854 15.5497 253.939 15.8562 253.939 16.2222C253.939 16.4521 253.884 16.6564 253.773 16.8351C253.667 17.0139 253.511 17.1671 253.307 17.2948C253.282 17.3103 253.257 17.3255 253.23 17.3403C253.358 17.4065 253.462 17.4892 253.543 17.5885C253.79 17.8864 253.913 18.261 253.913 18.7122V19.0697C253.913 19.2272 253.922 19.3783 253.939 19.523C253.956 19.6635 253.984 19.7826 254.022 19.8805V19.9827H253.058C253.015 19.872 252.99 19.7145 252.981 19.5102C252.977 19.3059 252.975 19.157 252.975 19.0633V18.7186C252.975 18.4164 252.905 18.1929 252.764 18.0482C252.624 17.8992 252.385 17.8247 252.049 17.8247ZM251.028 16.982V15.3922H251.87C252.151 15.3922 252.375 15.4199 252.541 15.4752C252.707 15.5306 252.824 15.6178 252.892 15.737C252.964 15.8562 253 16.0222 253 16.235C253 16.3967 252.949 16.5329 252.847 16.6436C252.745 16.7543 252.611 16.8394 252.445 16.899C252.279 16.9543 252.098 16.982 251.902 16.982H251.028Z" fill="#A1A0A2"/>
<path fill-rule="evenodd" clip-rule="evenodd" d="M247.778 15.4625C247.544 16.0413 247.427 16.6691 247.427 17.3459C247.427 18.0226 247.544 18.6505 247.778 19.2293C248.012 19.8082 248.338 20.3147 248.755 20.7488C249.172 21.183 249.653 21.5214 250.198 21.764C250.747 22.0066 251.334 22.1279 251.96 22.1279C252.585 22.1279 253.171 22.0066 253.715 21.764C254.265 21.5214 254.746 21.183 255.158 20.7488C255.576 20.3147 255.901 19.8082 256.135 19.2293C256.369 18.6505 256.486 18.0226 256.486 17.3459C256.486 16.6691 256.369 16.0413 256.135 15.4625C255.901 14.8836 255.576 14.3792 255.158 13.9493C254.746 13.5152 254.265 13.1789 253.715 12.9406C253.171 12.698 252.585 12.5767 251.96 12.5767C251.334 12.5767 250.747 12.698 250.198 12.9406C249.653 13.1789 249.172 13.5152 248.755 13.9493C248.338 14.3792 248.012 14.8836 247.778 15.4625ZM248.48 18.9165C248.284 18.4313 248.187 17.9077 248.187 17.3459C248.187 16.7798 248.284 16.2563 248.48 15.7753C248.676 15.2901 248.946 14.8666 249.291 14.5048C249.636 14.143 250.036 13.8621 250.491 13.662C250.947 13.462 251.436 13.362 251.96 13.362C252.479 13.362 252.964 13.462 253.415 13.662C253.871 13.8621 254.271 14.143 254.616 14.5048C254.96 14.8666 255.231 15.2901 255.427 15.7753C255.622 16.2563 255.72 16.7798 255.72 17.3459C255.72 17.9077 255.622 18.4313 255.427 18.9165C255.231 19.4017 254.96 19.8273 254.616 20.1934C254.271 20.5552 253.871 20.8382 253.415 21.0425C252.964 21.2426 252.479 21.3426 251.96 21.3426C251.436 21.3426 250.947 21.2426 250.491 21.0425C250.036 20.8382 249.636 20.5552 249.291 20.1934C248.946 19.8273 248.676 19.4017 248.48 18.9165Z" fill="#A1A0A2"/>
<path fill-rule="evenodd" clip-rule="evenodd" d="M84.0789 51.1406V39.9352C84.6732 40.5979 85.3543 41.1397 86.1224 41.5605C87.1917 42.1465 88.4515 42.4395 89.9017 42.4395C91.3958 42.4395 92.7142 42.1392 93.8567 41.5386C95.014 40.9233 95.9808 40.0737 96.7571 38.9897C97.5335 37.8911 98.1194 36.6021 98.5149 35.1226C98.9251 33.6431 99.1302 32.0391 99.1302 30.3105V29.8491C99.1302 28.0474 98.9251 26.4067 98.5149 24.9272C98.1194 23.4478 97.5262 22.1733 96.7352 21.104C95.9588 20.0347 94.992 19.2144 93.8348 18.6431C92.6922 18.0718 91.3665 17.7861 89.8577 17.7861C88.4222 17.7861 87.1697 18.0791 86.1004 18.665C85.2457 19.1399 84.4968 19.7734 83.8537 20.5657L83.6175 18.2256H77.7508V51.1406H84.0789ZM85.5071 36.7485C84.89 36.3114 84.4139 35.7389 84.0789 35.0309V25.1629C84.2129 24.8799 84.3667 24.6183 84.5403 24.3779C84.9212 23.8506 85.4119 23.4478 86.0125 23.1694C86.6277 22.8911 87.3675 22.752 88.2317 22.752C89.0521 22.752 89.7479 22.9351 90.3191 23.3013C90.9051 23.6528 91.3738 24.1509 91.7254 24.7954C92.0916 25.4399 92.3553 26.1943 92.5164 27.0586C92.6922 27.9082 92.7801 28.8384 92.7801 29.8491V30.3105C92.7801 31.3066 92.6995 32.2368 92.5384 33.1011C92.3919 33.9653 92.1355 34.7271 91.7693 35.3862C91.4178 36.0454 90.9563 36.5654 90.3851 36.9463C89.8138 37.3125 89.1106 37.4956 88.2757 37.4956C87.1331 37.4956 86.2103 37.2466 85.5071 36.7485Z" fill="#A1A0A2"/>
<path d="M65.9937 41.6265C67.0263 41.1101 67.8951 40.4111 68.6 39.5293L68.7622 42H74.7168V18.2256H68.3887V35.0458C68.0702 35.704 67.6087 36.2422 67.0044 36.6606C66.2573 37.188 65.2319 37.4517 63.9282 37.4517C63.4155 37.4517 62.9468 37.3857 62.522 37.2539C62.1118 37.1221 61.7529 36.9023 61.4453 36.5947C61.1377 36.2871 60.896 35.8916 60.7202 35.4082C60.5591 34.9248 60.4785 34.3315 60.4785 33.6284V18.2256H54.1504V33.5845C54.1504 35.1665 54.3408 36.5215 54.7217 37.6494C55.1172 38.7627 55.6592 39.6782 56.3477 40.396C57.0508 41.0991 57.8857 41.6191 58.8525 41.9561C59.834 42.2783 60.9033 42.4395 62.0605 42.4395C63.5693 42.4395 64.8804 42.1685 65.9937 41.6265Z" fill="#A1A0A2"/>
<path fill-rule="evenodd" clip-rule="evenodd" d="M107.591 39.9352V51.1406H101.263V18.2256H107.13L107.366 20.5657C108.009 19.7734 108.758 19.1399 109.613 18.665C110.682 18.0791 111.935 17.7861 113.37 17.7861C114.879 17.7861 116.205 18.0718 117.347 18.6431C118.504 19.2144 119.471 20.0347 120.248 21.104C121.039 22.1733 121.632 23.4478 122.027 24.9272C122.438 26.4067 122.643 28.0474 122.643 29.8491V30.3105C122.643 32.0391 122.438 33.6431 122.027 35.1226C121.632 36.6021 121.046 37.8911 120.27 38.9897C119.493 40.0737 118.526 40.9233 117.369 41.5386C116.227 42.1392 114.908 42.4395 113.414 42.4395C111.964 42.4395 110.704 42.1465 109.635 41.5605C108.867 41.1397 108.186 40.5979 107.591 39.9352ZM107.591 35.0309C107.926 35.7389 108.403 36.3114 109.02 36.7485C109.723 37.2466 110.646 37.4956 111.788 37.4956C112.623 37.4956 113.326 37.3125 113.898 36.9463C114.469 36.5654 114.93 36.0454 115.282 35.3862C115.648 34.7271 115.904 33.9653 116.051 33.1011C116.212 32.2368 116.293 31.3066 116.293 30.3105V29.8491C116.293 28.8384 116.205 27.9082 116.029 27.0586C115.868 26.1943 115.604 25.4399 115.238 24.7954C114.886 24.1509 114.418 23.6528 113.832 23.3013C113.26 22.9351 112.565 22.752 111.744 22.752C110.88 22.752 110.14 22.8911 109.525 23.1694C108.924 23.4478 108.434 23.8506 108.053 24.3779C107.879 24.6183 107.725 24.8799 107.591 25.1629V35.0309Z" fill="#A1A0A2"/>
<path fill-rule="evenodd" clip-rule="evenodd" d="M135.718 42.4395C133.872 42.4395 132.217 42.1465 130.752 41.5605C129.287 40.96 128.042 40.1323 127.017 39.0776C126.006 38.0229 125.23 36.7998 124.688 35.4082C124.146 34.002 123.875 32.5078 123.875 30.9258V30.0469C123.875 28.2451 124.131 26.5972 124.644 25.103C125.157 23.6089 125.889 22.3125 126.841 21.2139C127.808 20.1152 128.98 19.2729 130.357 18.687C131.734 18.0864 133.287 17.7861 135.015 17.7861C136.7 17.7861 138.194 18.0645 139.497 18.6211C140.801 19.1777 141.892 19.9688 142.771 20.9941C143.665 22.0195 144.339 23.25 144.793 24.6855C145.247 26.1064 145.474 27.6885 145.474 29.4316V32.0684H130.293C130.356 32.5916 130.466 33.0897 130.621 33.5625C130.899 34.3682 131.287 35.064 131.785 35.6499C132.298 36.2358 132.913 36.6899 133.631 37.0122C134.363 37.3345 135.191 37.4956 136.114 37.4956C137.256 37.4956 138.318 37.2759 139.3 36.8364C140.296 36.3823 141.153 35.7012 141.871 34.793L144.947 38.1328C144.449 38.8506 143.767 39.5391 142.903 40.1982C142.054 40.8574 141.028 41.3994 139.827 41.8242C138.626 42.2344 137.256 42.4395 135.718 42.4395ZM130.489 27.1465C130.443 27.3749 130.403 27.6093 130.369 27.8496H139.256V27.3662C139.256 26.4873 139.095 25.7036 138.772 25.0151C138.465 24.312 137.996 23.7554 137.366 23.3452C136.736 22.9351 135.931 22.73 134.949 22.73C134.114 22.73 133.396 22.9131 132.796 23.2793C132.195 23.6455 131.704 24.1582 131.324 24.8174C130.957 25.4766 130.679 26.2529 130.489 27.1465Z" fill="#A1A0A2"/>
<path d="M153.606 26.3187V42H147.278V18.2256H153.232L153.442 21.1387C153.502 21.03 153.564 20.9232 153.628 20.8184C154.228 19.8516 154.961 19.1045 155.825 18.5771C156.689 18.0498 157.678 17.7861 158.791 17.7861C159.143 17.7861 159.502 17.8154 159.868 17.874C160.234 17.918 160.534 17.9839 160.769 18.0718L160.659 23.9385C160.351 23.8945 159.978 23.8579 159.538 23.8286C159.113 23.7847 158.725 23.7627 158.374 23.7627C157.48 23.7627 156.704 23.8799 156.045 24.1143C155.4 24.334 154.858 24.6636 154.419 25.103C154.084 25.4492 153.813 25.8544 153.606 26.3187Z" fill="#A1A0A2"/>
<path d="M171.339 37.4956C172.116 37.4956 172.804 37.3491 173.405 37.0562C174.005 36.7485 174.474 36.3237 174.811 35.7817C175.163 35.2251 175.346 34.5732 175.36 33.8262H181.315C181.3 35.4961 180.854 36.9829 179.975 38.2866C179.096 39.5757 177.917 40.5938 176.437 41.3408C174.958 42.0732 173.302 42.4395 171.471 42.4395C169.625 42.4395 168.014 42.1318 166.637 41.5166C165.275 40.9014 164.14 40.0518 163.231 38.9678C162.323 37.8691 161.642 36.5947 161.188 35.1445C160.734 33.6797 160.507 32.1123 160.507 30.4424V29.8052C160.507 28.1206 160.734 26.5532 161.188 25.103C161.642 23.6382 162.323 22.3638 163.231 21.2798C164.14 20.1812 165.275 19.3242 166.637 18.709C168 18.0938 169.596 17.7861 171.427 17.7861C173.375 17.7861 175.082 18.1597 176.547 18.9067C178.026 19.6538 179.184 20.7231 180.019 22.1147C180.868 23.4917 181.3 25.125 181.315 27.0146H175.36C175.346 26.2236 175.177 25.5059 174.855 24.8613C174.547 24.2168 174.093 23.7041 173.493 23.3232C172.907 22.9277 172.182 22.73 171.317 22.73C170.395 22.73 169.64 22.9277 169.054 23.3232C168.468 23.7041 168.014 24.2314 167.692 24.9053C167.37 25.5645 167.143 26.3188 167.011 27.1685C166.894 28.0034 166.835 28.8823 166.835 29.8052V30.4424C166.835 31.3652 166.894 32.2515 167.011 33.1011C167.128 33.9507 167.348 34.7051 167.67 35.3643C168.007 36.0234 168.468 36.5435 169.054 36.9243C169.64 37.3052 170.402 37.4956 171.339 37.4956Z" fill="#A1A0A2"/>
<path fill-rule="evenodd" clip-rule="evenodd" d="M196.268 39.7677C196.044 40.0279 195.799 40.2813 195.533 40.5278C194.918 41.0845 194.178 41.5459 193.314 41.9121C192.45 42.2637 191.424 42.4395 190.238 42.4395C188.729 42.4395 187.359 42.1392 186.129 41.5386C184.913 40.9233 183.946 40.0811 183.228 39.0117C182.525 37.9277 182.174 36.6973 182.174 35.3203C182.174 34.0752 182.408 32.9692 182.877 32.0024C183.346 31.0356 184.034 30.2227 184.942 29.5635C185.865 28.8896 187.015 28.3843 188.392 28.0474C189.769 27.6958 191.366 27.52 193.182 27.52H196.016V26.0479C196.016 25.2861 195.892 24.6343 195.643 24.0923C195.394 23.5356 195.006 23.1035 194.478 22.7959C193.966 22.4883 193.299 22.3345 192.479 22.3345C191.776 22.3345 191.168 22.459 190.655 22.708C190.142 22.9424 189.747 23.2866 189.469 23.7407C189.19 24.1802 189.051 24.7002 189.051 25.3008H182.723C182.723 24.29 182.957 23.3306 183.426 22.4224C183.895 21.5142 184.576 20.7158 185.47 20.0273C186.363 19.3242 187.425 18.7749 188.656 18.3794C189.901 17.9839 191.292 17.7861 192.83 17.7861C194.676 17.7861 196.317 18.0938 197.752 18.709C199.188 19.3242 200.316 20.2471 201.136 21.4775C201.971 22.708 202.388 24.2461 202.388 26.0918V36.2651C202.388 37.5688 202.469 38.6382 202.63 39.4731C202.791 40.2935 203.026 41.0112 203.333 41.6265V42H196.939C196.651 41.397 196.428 40.6529 196.268 39.7677ZM196.016 35.2805C195.936 35.4306 195.841 35.5831 195.731 35.7378C195.35 36.2944 194.808 36.7632 194.105 37.144C193.402 37.5249 192.574 37.7153 191.622 37.7153C190.992 37.7153 190.443 37.5981 189.974 37.3638C189.505 37.1147 189.146 36.7778 188.897 36.353C188.648 35.9136 188.524 35.4229 188.524 34.8809C188.524 34.3389 188.612 33.8408 188.787 33.3867C188.978 32.9326 189.271 32.5371 189.666 32.2002C190.062 31.8486 190.567 31.5776 191.182 31.3872C191.798 31.1968 192.523 31.1016 193.358 31.1016H196.016V35.2805Z" fill="#A1A0A2"/>
<path d="M218.32 35.4302C218.32 34.9761 218.189 34.5659 217.925 34.1997C217.661 33.8335 217.171 33.4966 216.453 33.189C215.75 32.8667 214.732 32.5737 213.399 32.3101C212.197 32.0464 211.077 31.7168 210.037 31.3213C209.011 30.9111 208.118 30.4204 207.356 29.8491C206.609 29.2778 206.023 28.604 205.598 27.8276C205.173 27.0366 204.961 26.1357 204.961 25.125C204.961 24.1289 205.173 23.1914 205.598 22.3125C206.038 21.4336 206.66 20.6572 207.466 19.9834C208.286 19.2949 209.282 18.7603 210.454 18.3794C211.641 17.9839 212.974 17.7861 214.453 17.7861C216.519 17.7861 218.291 18.1157 219.771 18.7749C221.265 19.4341 222.407 20.3423 223.198 21.4995C224.004 22.6421 224.407 23.9458 224.407 25.4106H218.079C218.079 24.7954 217.947 24.2461 217.683 23.7627C217.434 23.2646 217.039 22.8765 216.497 22.5981C215.969 22.3052 215.281 22.1587 214.431 22.1587C213.728 22.1587 213.12 22.2832 212.608 22.5322C212.095 22.7666 211.699 23.0889 211.421 23.499C211.157 23.8945 211.025 24.334 211.025 24.8174C211.025 25.1836 211.099 25.5132 211.245 25.8062C211.406 26.0845 211.663 26.3408 212.014 26.5752C212.366 26.8096 212.82 27.0293 213.377 27.2344C213.948 27.4248 214.651 27.6006 215.486 27.7617C217.2 28.1133 218.731 28.5747 220.078 29.146C221.426 29.7026 222.495 30.4644 223.286 31.4312C224.077 32.3833 224.473 33.6357 224.473 35.1885C224.473 36.2432 224.238 37.21 223.77 38.0889C223.301 38.9678 222.627 39.7368 221.748 40.396C220.869 41.0405 219.815 41.5459 218.584 41.9121C217.368 42.2637 215.999 42.4395 214.475 42.4395C212.263 42.4395 210.388 42.0439 208.85 41.2529C207.327 40.4619 206.17 39.4585 205.379 38.2427C204.602 37.0122 204.214 35.7524 204.214 34.4634H210.212C210.242 35.3276 210.462 36.0234 210.872 36.5508C211.296 37.0781 211.831 37.459 212.476 37.6934C213.135 37.9277 213.845 38.0449 214.607 38.0449C215.427 38.0449 216.108 37.9351 216.65 37.7153C217.192 37.481 217.603 37.1733 217.881 36.7925C218.174 36.397 218.32 35.9429 218.32 35.4302Z" fill="#A1A0A2"/>
<path fill-rule="evenodd" clip-rule="evenodd" d="M232.758 41.5605C234.223 42.1465 235.878 42.4395 237.724 42.4395C239.262 42.4395 240.632 42.2344 241.833 41.8242C243.034 41.3994 244.059 40.8574 244.909 40.1982C245.773 39.5391 246.454 38.8506 246.953 38.1328L243.876 34.793C243.159 35.7012 242.302 36.3823 241.306 36.8364C240.324 37.2759 239.262 37.4956 238.12 37.4956C237.197 37.4956 236.369 37.3345 235.637 37.0122C234.919 36.6899 234.304 36.2358 233.791 35.6499C233.293 35.064 232.905 34.3682 232.626 33.5625C232.472 33.0897 232.362 32.5916 232.298 32.0684H247.48V29.4316C247.48 27.6885 247.253 26.1064 246.799 24.6855C246.345 23.25 245.671 22.0195 244.777 20.9941C243.898 19.9688 242.807 19.1777 241.503 18.6211C240.2 18.0645 238.705 17.7861 237.021 17.7861C235.292 17.7861 233.74 18.0864 232.363 18.687C230.986 19.2729 229.814 20.1152 228.847 21.2139C227.895 22.3125 227.163 23.6089 226.65 25.103C226.137 26.5972 225.881 28.2451 225.881 30.0469V30.9258C225.881 32.5078 226.152 34.002 226.694 35.4082C227.236 36.7998 228.012 38.0229 229.023 39.0776C230.048 40.1323 231.293 40.96 232.758 41.5605ZM232.375 27.8496C232.409 27.6093 232.449 27.3749 232.495 27.1465C232.685 26.2529 232.963 25.4766 233.329 24.8174C233.71 24.1582 234.201 23.6455 234.802 23.2793C235.402 22.9131 236.12 22.73 236.955 22.73C237.936 22.73 238.742 22.9351 239.372 23.3452C240.002 23.7554 240.471 24.312 240.778 25.0151C241.1 25.7036 241.262 26.4873 241.262 27.3662V27.8496H232.375Z" fill="#A1A0A2"/>
<path fill-rule="evenodd" clip-rule="evenodd" d="M0.631836 39.7726C0.631836 38.3365 1.79598 37.1724 3.23203 37.1724L35.15 37.1724C36.5861 37.1724 37.7502 38.3365 37.7502 39.7726C37.7502 41.2086 36.5861 42.3728 35.15 42.3728L3.23203 42.3728C1.79598 42.3728 0.631836 41.2086 0.631836 39.7726Z" fill="#A1A0A2"/>
<path fill-rule="evenodd" clip-rule="evenodd" d="M19.2041 15.1818L33.292 29.5656C34.2968 30.5916 35.9431 30.6087 36.969 29.6039C37.9949 28.599 38.0121 26.9528 37.0072 25.9268L21.8059 10.4061C20.3793 8.94958 18.0348 8.94848 16.6069 10.4036L1.37612 25.9251C0.370324 26.9501 0.385884 28.5963 1.41088 29.6021C2.43587 30.6079 4.08215 30.5924 5.08795 29.5674L19.2041 15.1818Z" fill="#A1A0A2"/>
</svg>
