<svg width="259" height="60" viewBox="0 0 259 60" fill="none" xmlns="http://www.w3.org/2000/svg">
<mask id="path-1-outside-1_4459_156908" maskUnits="userSpaceOnUse" x="0" y="15.8206" width="259" height="28" fill="black">
<rect fill="white" y="15.8206" width="259" height="28"/>
<path d="M26.7966 25.2546C26.7966 22.0976 26.5621 20.0624 26.0931 19.1492C25.6241 18.236 24.5036 17.7794 22.7317 17.7794C22.4451 17.7794 22.3018 17.6751 22.3018 17.4663C22.3018 17.2315 22.4321 17.1141 22.6926 17.1141C23.1617 17.1402 23.6828 17.1663 24.2561 17.1924C24.8554 17.1924 25.3114 17.1924 25.6241 17.1924H28.2819C28.777 17.1924 29.2851 17.1924 29.8063 17.1924C30.3795 17.1402 30.7313 17.1141 30.8616 17.1141C31.1482 17.1141 31.2915 17.2054 31.2915 17.388C31.2915 17.5968 31.1352 17.7272 30.8225 17.7794C30.5098 17.8316 30.2101 17.8968 29.9235 17.9751C29.6629 18.0273 29.3893 18.2099 29.1027 18.523C28.9464 18.6274 28.79 18.9014 28.6337 19.3449C28.5034 19.7885 28.4382 20.2973 28.4382 20.8713L28.321 36.487V42.8273C28.1907 42.8273 28.0735 42.8273 27.9692 42.8273C27.6044 42.462 27.3308 42.188 27.1484 42.0054L6.7847 21.9671C6.36779 21.6018 6.12024 21.4322 6.04207 21.4583C5.98996 21.4844 5.9639 21.5627 5.9639 21.6932C5.9639 21.8236 5.9639 21.9802 5.9639 22.1628L6.00299 34.5693C6.00299 37.5959 6.25053 39.605 6.74562 40.5965C7.2407 41.5619 8.37419 42.0445 10.1461 42.0445C10.4067 42.0445 10.5369 42.1489 10.5369 42.3576C10.5369 42.5925 10.4197 42.7099 10.1852 42.7099L7.21465 42.6316C6.38082 42.6316 5.42973 42.6316 4.36138 42.6316C3.31909 42.6316 2.5504 42.6577 2.05532 42.7099C1.74263 42.7099 1.58629 42.6055 1.58629 42.3968C1.58629 42.2141 1.69052 42.0967 1.89897 42.0445C2.70675 41.9663 3.25395 41.7967 3.54058 41.5358C3.82721 41.2748 4.03567 40.9226 4.16595 40.4791C4.3223 40.0094 4.40047 39.5006 4.40047 38.9527L4.51772 23.3369C4.51772 21.2496 4.34835 19.8798 4.00961 19.2275C3.69692 18.5491 3.37121 18.1577 3.03246 18.0534C2.71978 17.949 2.42012 17.8838 2.13349 17.8577C1.87292 17.8316 1.61234 17.8055 1.35177 17.7794C1.11726 17.7272 1 17.6098 1 17.4272C1 17.2185 1.19543 17.1141 1.58629 17.1141C2.02926 17.1402 2.43315 17.1663 2.79795 17.1924C3.16275 17.1924 3.52755 17.1924 3.89235 17.1924C4.72618 17.1402 5.24733 17.1141 5.45578 17.1141C5.82059 17.1141 6.25053 17.362 6.74562 17.8577C7.2407 18.3273 7.72276 18.7839 8.19179 19.2275L26.8748 36.8393L26.7966 25.2546Z"/>
<path d="M69.8897 22.5542C69.8897 20.6495 69.6552 19.3841 69.1861 18.7579C68.7432 18.1056 67.8181 17.7794 66.4111 17.7794C66.1505 17.7794 66.0202 17.6751 66.0202 17.4663C66.0202 17.2315 66.1505 17.1141 66.4111 17.1141C66.4371 17.1141 66.5674 17.1271 66.8019 17.1532C67.0364 17.1793 67.5576 17.1924 68.3653 17.1924H70.9841C72.1567 17.1924 73.0035 17.1663 73.5247 17.1141C73.8113 17.1141 73.9546 17.2054 73.9546 17.388C73.9546 17.5968 73.8504 17.7272 73.6419 17.7794C72.8341 17.8577 72.2869 18.0273 72.0003 18.2882C71.7397 18.5491 71.5313 18.9144 71.3749 19.3841C71.2447 19.8276 71.1795 20.3233 71.1795 20.8713L70.5932 33.5518C70.5932 35.4042 70.2936 37.0611 69.6943 38.5222C69.0949 39.9833 67.9224 41.1313 66.1765 41.9663C64.4307 42.7751 62.3201 43.1795 59.8446 43.1795C58.3854 43.1795 57.0174 43.023 55.7406 42.7099C54.4638 42.3707 53.2131 41.7967 51.9884 40.9878C50.7897 40.1529 50.0211 39.331 49.6823 38.5222C49.3436 37.6873 49.1742 36.748 49.1742 35.7043V24.0805C49.1742 21.7584 49.1351 20.3625 49.0569 19.8928C49.0048 19.3971 48.8615 18.9796 48.627 18.6404C48.3925 18.2752 48.0668 18.0403 47.6498 17.936C47.2329 17.8316 46.8812 17.7794 46.5945 17.7794C46.3079 17.7794 46.1646 17.6751 46.1646 17.4663C46.1646 17.2315 46.3079 17.1141 46.5945 17.1141L49.4869 17.1924L55.5061 17.1141C55.8188 17.1141 55.9751 17.2185 55.9751 17.4272C55.9751 17.6098 55.7276 17.7403 55.2325 17.8186C54.7635 17.8707 54.1641 17.9229 53.4345 17.9751C52.9916 18.1056 52.6789 18.3273 52.4965 18.6404C52.3141 18.9535 52.1968 19.5015 52.1447 20.2842C52.0926 21.0409 52.0665 21.941 52.0665 22.9847V33.2778C52.0665 35.1042 52.2359 36.6175 52.5747 37.8177C52.9134 38.9918 53.5909 39.892 54.6071 40.5182C55.6494 41.1183 56.6005 41.5227 57.4604 41.7314C58.3203 41.9141 59.2453 42.0054 60.2355 42.0054C62.3982 42.0054 64.2613 41.601 65.8248 40.7922C67.4142 39.9572 68.4565 38.7961 68.9516 37.3089C69.4467 35.7956 69.6943 34.1649 69.6943 32.4168L69.8897 25.1764V22.5542Z"/>
<path d="M101.73 23.3369V35.9391C101.73 38.6526 101.952 40.2573 102.395 40.753C102.838 41.2488 103.502 41.601 104.388 41.8097C105.274 42.0185 105.717 42.2272 105.717 42.4359C105.717 42.6186 105.574 42.7099 105.287 42.7099C104.792 42.6838 104.141 42.6707 103.333 42.6707C102.525 42.6447 101.509 42.6316 100.284 42.6316H99.1897L95.2029 42.7099C94.9424 42.7099 94.8121 42.5925 94.8121 42.3576C94.8121 42.1489 94.9554 42.0445 95.242 42.0445C95.8935 42.0445 96.5058 41.9793 97.0791 41.8489C97.6523 41.7184 98.0432 41.5358 98.2516 41.3009C98.4862 41.0661 98.6425 40.6226 98.7207 39.9703C98.8249 39.318 98.877 37.896 98.877 35.7043V24.1979C98.877 21.7192 98.8249 20.219 98.7207 19.6971C98.6164 19.1492 98.3689 18.7839 97.978 18.6013C97.6132 18.3926 97.0791 18.2491 96.3755 18.1708C95.698 18.0925 95.1769 18.0534 94.8121 18.0534C94.6297 18.0534 94.5255 18.0534 94.4994 18.0534C94.4733 18.0534 94.4473 18.0534 94.4212 18.0534C94.317 18.0273 94.0825 18.0142 93.7177 18.0142C92.6493 18.0142 91.5549 18.1447 90.4345 18.4056C89.314 18.6404 88.5584 19.0449 88.1675 19.6189C88.0111 19.9059 87.7897 20.3103 87.503 20.8321C87.4249 20.9365 87.3467 20.9756 87.2685 20.9495C87.2164 20.9234 87.2034 20.8452 87.2294 20.7147C87.3597 20.4538 87.5161 20.0624 87.6985 19.5406C87.9069 19.0188 88.1024 18.4708 88.2848 17.8968C88.4672 17.2967 88.7147 16.9967 89.0274 16.9967C89.3661 17.0489 89.7309 17.101 90.1218 17.1532C90.5126 17.1793 90.8644 17.1924 91.1771 17.1924H110.681C110.994 17.1663 111.306 17.1532 111.619 17.1532C111.958 17.1271 112.31 17.0749 112.674 16.9967C112.726 17.0228 112.779 17.0358 112.831 17.0358C112.805 17.2185 112.766 17.4011 112.713 17.5837C112.505 18.1317 112.323 18.6926 112.166 19.2666C112.01 19.8407 111.88 20.3625 111.775 20.8321C111.749 20.9104 111.671 20.9495 111.541 20.9495C111.411 20.8974 111.345 20.8452 111.345 20.793C111.424 20.4799 111.489 20.1668 111.541 19.8537C111.593 19.5145 111.58 19.3188 111.502 19.2666C111.137 18.9014 110.303 18.6013 109 18.3665C107.723 18.1317 106.368 18.0142 104.935 18.0142C104.31 18.0142 103.776 18.0534 103.333 18.1317C102.916 18.1838 102.577 18.3404 102.317 18.6013C102.082 18.8361 101.926 19.384 101.848 20.2451C101.769 21.08 101.73 22.1106 101.73 23.3369Z"/>
<path d="M133.308 31.634V35.7043C133.308 37.8177 133.36 39.2267 133.464 39.9311C133.595 40.6095 133.751 41.0531 133.933 41.2618C134.142 41.4705 134.454 41.6532 134.871 41.8097C135.288 41.9663 135.653 42.0445 135.966 42.0445C136.226 42.0445 136.357 42.1489 136.357 42.3576C136.357 42.5925 136.239 42.7099 136.005 42.7099L133.034 42.6316C132.201 42.6316 131.249 42.6316 130.181 42.6316C129.139 42.6316 128.37 42.6577 127.875 42.7099C127.588 42.7099 127.445 42.6186 127.445 42.4359C127.445 42.2272 127.588 42.0967 127.875 42.0445C128.162 41.9924 128.539 41.9141 129.009 41.8097C129.504 41.7054 129.868 41.4966 130.103 41.1835C130.337 40.8443 130.468 40.0485 130.494 38.7961C130.52 37.5438 130.533 36.5523 130.533 35.8217V23.8848C130.533 22.4498 130.507 21.2626 130.455 20.3233C130.403 19.358 130.259 18.7579 130.025 18.523C129.816 18.2882 129.556 18.1186 129.243 18.0142C128.93 17.9099 128.539 17.8316 128.07 17.7794C127.627 17.7272 127.406 17.6098 127.406 17.4272C127.406 17.2185 127.601 17.1141 127.992 17.1141C128.383 17.1402 129.113 17.1663 130.181 17.1924C131.275 17.1924 132.227 17.1924 133.034 17.1924L136.005 17.1141C136.265 17.1141 136.396 17.2315 136.396 17.4663C136.396 17.6751 136.252 17.7794 135.966 17.7794C135.705 17.7794 135.366 17.8446 134.95 17.9751C134.559 18.0795 134.246 18.2621 134.012 18.523C133.777 18.7579 133.595 19.2797 133.464 20.0885C133.36 20.8974 133.308 22.4498 133.308 24.7459V29.1292C133.308 29.5989 133.36 29.8337 133.464 29.8337C133.516 29.8337 133.647 29.7554 133.855 29.5989L134.246 29.2075L140.734 23.063C141.047 22.8542 141.659 22.1237 142.571 20.8713C143.509 19.6189 143.952 18.8883 143.9 18.6796C143.822 18.4187 143.561 18.2099 143.119 18.0534C142.676 17.8707 142.259 17.7794 141.868 17.7794C141.607 17.7794 141.477 17.6751 141.477 17.4663C141.477 17.2315 141.607 17.1141 141.868 17.1141L145.19 17.1924L149.06 17.1141C149.372 17.1141 149.529 17.2185 149.529 17.4272C149.529 17.662 149.372 17.7794 149.06 17.7794C148.304 17.7794 147.665 17.936 147.144 18.2491C146.649 18.5361 145.802 19.2275 144.604 20.3233L135.966 28.5813C135.705 28.8422 135.575 29.0379 135.575 29.1684C135.679 29.3771 135.966 29.6772 136.435 30.0685C136.904 30.4599 137.79 31.2035 139.093 32.2994C140.396 33.3952 141.998 34.7389 143.9 36.3305C145.828 37.9221 147.236 39.0701 148.121 39.7746C149.033 40.453 149.698 40.9226 150.115 41.1835C150.532 41.4444 150.91 41.6793 151.248 41.888C151.587 42.0967 151.756 42.2924 151.756 42.4751C151.756 42.6838 151.652 42.7621 151.444 42.7099L147.848 42.6316C147.431 42.6316 146.884 42.6447 146.206 42.6707C145.529 42.6968 145.008 42.7099 144.643 42.7099C144.278 42.7099 144.096 42.6447 144.096 42.5142C144.122 42.3316 144.161 42.2141 144.213 42.162C144.291 42.1098 144.434 42.0837 144.643 42.0837C144.851 42.0576 144.982 42.0445 145.034 42.0445C145.529 42.0445 145.776 41.888 145.776 41.5749C145.776 41.3923 145.099 40.7139 143.744 39.5398L134.207 31.4775C133.816 31.1905 133.582 31.047 133.503 31.047C133.373 31.047 133.308 31.2427 133.308 31.634Z"/>
<path d="M183.069 41.6532C184.529 41.3401 185.519 40.8965 186.04 40.3225C186.561 39.7485 186.952 39.0049 187.212 38.0917C187.473 37.1524 187.708 36.6827 187.916 36.6827C188.072 36.6827 188.151 36.761 188.151 36.9176L187.212 41.4575C187.134 41.8489 187.069 42.2272 187.017 42.5925C186.965 42.6707 186.678 42.7099 186.157 42.7099L174.9 42.6316L167.161 42.7099C166.875 42.7099 166.732 42.5925 166.732 42.3576C166.732 42.1489 166.862 42.0445 167.122 42.0445C167.617 42.0445 168.073 41.9793 168.49 41.8489C168.907 41.7184 169.181 41.5358 169.311 41.3009C169.441 41.0661 169.546 40.4008 169.624 39.3049C169.702 38.2091 169.741 37.0872 169.741 35.9391V23.9631C169.741 23.7022 169.741 23.4282 169.741 23.1412C169.741 22.8542 169.754 22.5542 169.78 22.2411C169.78 21.067 169.689 20.1537 169.507 19.5015C169.35 18.8492 169.077 18.4317 168.686 18.2491C168.321 18.0403 168.008 17.9099 167.748 17.8577C167.513 17.8055 167.266 17.7794 167.005 17.7794C166.797 17.7794 166.692 17.6751 166.692 17.4663C166.692 17.2315 166.81 17.1141 167.044 17.1141H175.643C177.623 17.1141 179.447 17.101 181.115 17.0749C182.809 17.0489 184.385 17.0228 185.845 16.9967C186.131 16.9967 186.287 17.0097 186.314 17.0358C186.287 17.1663 186.261 17.2837 186.235 17.388L186.001 19.3841C185.949 19.9842 185.897 20.5712 185.845 21.1452C185.818 21.6932 185.688 21.9671 185.454 21.9671C185.349 21.9671 185.258 21.7192 185.18 21.2235C185.128 20.7017 185.063 20.232 184.985 19.8146C184.932 19.371 184.815 19.097 184.633 18.9927C184.45 18.8622 184.047 18.7187 183.421 18.5622C182.796 18.3795 182.066 18.223 181.232 18.0925C180.399 17.936 179.526 17.8577 178.614 17.8577C177.884 17.8577 177.128 17.8968 176.347 17.9751C175.565 18.0534 174.809 18.1708 174.08 18.3273C173.35 18.4578 172.933 18.6013 172.829 18.7579C172.725 18.9144 172.673 19.3058 172.673 19.932L172.594 21.9671L172.555 28.3074C172.555 28.5161 172.555 28.7118 172.555 28.8944C172.607 28.9727 172.777 29.0118 173.063 29.0118H181.271C182.262 29.0118 182.861 28.8814 183.069 28.6205C183.382 27.8638 183.734 27.055 184.125 26.1939C184.151 26.1157 184.229 26.1026 184.359 26.1548C184.516 26.207 184.581 26.2853 184.555 26.3896C184.45 26.8071 184.359 27.4594 184.281 28.3465C184.203 29.2336 184.164 30.0033 184.164 30.6556C184.164 31.0731 184.164 31.5297 184.164 32.0254C184.19 32.495 184.281 32.9125 184.437 33.2778C184.568 33.5909 184.49 33.7474 184.203 33.7474C184.125 33.7474 183.968 33.5387 183.734 33.1212C183.499 32.7038 183.2 32.1428 182.835 31.4383C182.027 30.5251 180.698 30.0685 178.848 30.0685H173.181C172.92 30.0685 172.751 30.1077 172.673 30.1859C172.594 30.2642 172.555 30.4599 172.555 30.773L172.594 37.4263C172.594 38.9657 172.62 39.9311 172.673 40.3225C172.751 40.6878 172.985 41.0009 173.376 41.2618C173.767 41.4966 174.418 41.6923 175.33 41.8489C176.268 41.9793 177.311 42.0445 178.457 42.0445C179.343 42.0445 180.203 42.0054 181.037 41.9271C181.871 41.8489 182.548 41.7575 183.069 41.6532Z"/>
<path d="M215.713 23.3369V35.9391C215.713 38.6526 215.934 40.2573 216.377 40.753C216.82 41.2488 217.485 41.601 218.371 41.8097C219.257 42.0185 219.7 42.2272 219.7 42.4359C219.7 42.6186 219.556 42.7099 219.27 42.7099C218.775 42.6838 218.123 42.6707 217.315 42.6707C216.508 42.6447 215.491 42.6316 214.267 42.6316H213.172L209.185 42.7099C208.925 42.7099 208.795 42.5925 208.795 42.3576C208.795 42.1489 208.938 42.0445 209.225 42.0445C209.876 42.0445 210.488 41.9793 211.062 41.8489C211.635 41.7184 212.026 41.5358 212.234 41.3009C212.469 41.0661 212.625 40.6226 212.703 39.9703C212.807 39.318 212.86 37.896 212.86 35.7043V24.1979C212.86 21.7192 212.807 20.219 212.703 19.6971C212.599 19.1492 212.351 18.7839 211.961 18.6013C211.596 18.3926 211.062 18.2491 210.358 18.1708C209.681 18.0925 209.159 18.0534 208.795 18.0534C208.612 18.0534 208.508 18.0534 208.482 18.0534C208.456 18.0534 208.43 18.0534 208.404 18.0534C208.299 18.0273 208.065 18.0142 207.7 18.0142C206.632 18.0142 205.537 18.1447 204.417 18.4056C203.297 18.6404 202.541 19.0449 202.15 19.6189C201.994 19.9059 201.772 20.3103 201.486 20.8321C201.407 20.9365 201.329 20.9756 201.251 20.9495C201.199 20.9234 201.186 20.8452 201.212 20.7147C201.342 20.4538 201.499 20.0624 201.681 19.5406C201.889 19.0188 202.085 18.4708 202.267 17.8968C202.45 17.2967 202.697 16.9967 203.01 16.9967C203.349 17.0489 203.713 17.101 204.104 17.1532C204.495 17.1793 204.847 17.1924 205.16 17.1924H224.663C224.976 17.1663 225.289 17.1532 225.602 17.1532C225.94 17.1271 226.292 17.0749 226.657 16.9967C226.709 17.0228 226.761 17.0358 226.813 17.0358C226.787 17.2185 226.748 17.4011 226.696 17.5837C226.487 18.1317 226.305 18.6926 226.149 19.2666C225.992 19.8407 225.862 20.3625 225.758 20.8321C225.732 20.9104 225.654 20.9495 225.523 20.9495C225.393 20.8974 225.328 20.8452 225.328 20.793C225.406 20.4799 225.471 20.1668 225.523 19.8537C225.575 19.5145 225.562 19.3188 225.484 19.2666C225.119 18.9014 224.286 18.6013 222.983 18.3665C221.706 18.1317 220.351 18.0142 218.918 18.0142C218.292 18.0142 217.758 18.0534 217.315 18.1317C216.898 18.1838 216.56 18.3404 216.299 18.6013C216.065 18.8361 215.908 19.384 215.83 20.2451C215.752 21.08 215.713 22.1106 215.713 23.3369Z"/>
<path d="M256.202 16.8793C256.332 16.801 256.41 16.801 256.437 16.8793C256.463 16.9575 256.45 17.0489 256.397 17.1532C256.345 17.2837 256.293 17.5185 256.241 17.8577C256.215 18.1708 256.202 18.5491 256.202 18.9927C256.202 19.6971 256.215 20.2059 256.241 20.519C256.267 20.8321 256.358 21.4714 256.515 22.4368C256.489 22.515 256.463 22.5933 256.437 22.6716C256.358 22.6455 256.293 22.5672 256.241 22.4368C255.355 20.9495 254.678 19.9059 254.209 19.3058C253.766 18.7057 253.049 18.2882 252.059 18.0534C251.069 17.8186 250.183 17.7011 249.401 17.7011C248.541 17.7011 247.759 17.8186 247.056 18.0534C246.352 18.2621 245.74 18.6404 245.219 19.1884C244.698 19.7102 244.32 20.2451 244.085 20.793C243.877 21.3409 243.773 21.941 243.773 22.5933C243.773 23.1151 243.864 23.7674 244.046 24.5502C244.255 25.3068 244.802 25.9722 245.688 26.5462C246.574 27.1202 247.746 27.642 249.206 28.1117L251.004 28.6596C253.088 29.3902 254.639 30.1077 255.655 30.8121C256.697 31.4905 257.349 32.3385 257.609 33.3561C257.87 34.3736 258 35.1172 258 35.5869C258 36.3696 257.87 37.1654 257.609 37.9743C257.349 38.757 256.84 39.5398 256.085 40.3225C255.355 41.1052 254.391 41.7184 253.192 42.162C252.02 42.5794 250.704 42.7882 249.245 42.7882C247.786 42.7882 246.118 42.5794 244.242 42.162C244.007 42.0837 243.747 42.0054 243.46 41.9271C243.2 41.8489 243.043 41.8489 242.991 41.9271C242.965 41.9532 242.913 42.0967 242.835 42.3576C242.783 42.5925 242.691 42.736 242.561 42.7882C242.457 42.8142 242.353 42.7882 242.248 42.7099C242.248 41.7967 242.131 40.9226 241.897 40.0877C241.532 39.0701 241.271 38.3265 241.115 37.8569C240.959 37.3611 240.841 36.9828 240.763 36.7219C240.711 36.4349 240.711 36.2 240.763 36.0174C240.919 35.9391 241.193 36.3696 241.584 37.3089C242.001 38.2221 242.665 39.031 243.577 39.7354C244.489 40.4399 245.414 40.9096 246.352 41.1444C247.29 41.3531 247.994 41.4966 248.463 41.5749C248.958 41.6271 249.518 41.6532 250.144 41.6532C251.004 41.6532 251.798 41.5488 252.528 41.3401C253.258 41.1053 253.844 40.753 254.287 40.2834C254.756 39.7876 255.082 39.2528 255.264 38.6787C255.472 38.0786 255.577 37.4655 255.577 36.8393C255.577 36.4218 255.551 36.1087 255.498 35.9C255.446 35.6913 255.342 35.2868 255.186 34.6867C255.056 34.0866 254.586 33.5518 253.779 33.0821C252.997 32.5864 251.759 32.0384 250.066 31.4383L248.307 30.8904C246.274 30.0816 244.737 29.338 243.695 28.6596C242.678 27.9551 242.053 27.1202 241.818 26.1548C241.584 25.1894 241.467 24.5371 241.467 24.1979C241.467 23.4413 241.649 22.6194 242.014 21.7323C242.379 20.8452 242.9 20.0363 243.577 19.3058C244.255 18.5491 245.154 17.9882 246.274 17.6229C247.421 17.2315 248.685 17.0358 250.066 17.0358C250.613 17.0358 251.03 17.0489 251.316 17.0749C251.603 17.101 252.007 17.1532 252.528 17.2315C253.049 17.3098 253.505 17.3489 253.896 17.3489C254.391 17.3489 254.821 17.3098 255.186 17.2315C255.551 17.1271 255.889 17.0097 256.202 16.8793Z"/>
</mask>
<path d="M26.7966 25.2546C26.7966 22.0976 26.5621 20.0624 26.0931 19.1492C25.6241 18.236 24.5036 17.7794 22.7317 17.7794C22.4451 17.7794 22.3018 17.6751 22.3018 17.4663C22.3018 17.2315 22.4321 17.1141 22.6926 17.1141C23.1617 17.1402 23.6828 17.1663 24.2561 17.1924C24.8554 17.1924 25.3114 17.1924 25.6241 17.1924H28.2819C28.777 17.1924 29.2851 17.1924 29.8063 17.1924C30.3795 17.1402 30.7313 17.1141 30.8616 17.1141C31.1482 17.1141 31.2915 17.2054 31.2915 17.388C31.2915 17.5968 31.1352 17.7272 30.8225 17.7794C30.5098 17.8316 30.2101 17.8968 29.9235 17.9751C29.6629 18.0273 29.3893 18.2099 29.1027 18.523C28.9464 18.6274 28.79 18.9014 28.6337 19.3449C28.5034 19.7885 28.4382 20.2973 28.4382 20.8713L28.321 36.487V42.8273C28.1907 42.8273 28.0735 42.8273 27.9692 42.8273C27.6044 42.462 27.3308 42.188 27.1484 42.0054L6.7847 21.9671C6.36779 21.6018 6.12024 21.4322 6.04207 21.4583C5.98996 21.4844 5.9639 21.5627 5.9639 21.6932C5.9639 21.8236 5.9639 21.9802 5.9639 22.1628L6.00299 34.5693C6.00299 37.5959 6.25053 39.605 6.74562 40.5965C7.2407 41.5619 8.37419 42.0445 10.1461 42.0445C10.4067 42.0445 10.5369 42.1489 10.5369 42.3576C10.5369 42.5925 10.4197 42.7099 10.1852 42.7099L7.21465 42.6316C6.38082 42.6316 5.42973 42.6316 4.36138 42.6316C3.31909 42.6316 2.5504 42.6577 2.05532 42.7099C1.74263 42.7099 1.58629 42.6055 1.58629 42.3968C1.58629 42.2141 1.69052 42.0967 1.89897 42.0445C2.70675 41.9663 3.25395 41.7967 3.54058 41.5358C3.82721 41.2748 4.03567 40.9226 4.16595 40.4791C4.3223 40.0094 4.40047 39.5006 4.40047 38.9527L4.51772 23.3369C4.51772 21.2496 4.34835 19.8798 4.00961 19.2275C3.69692 18.5491 3.37121 18.1577 3.03246 18.0534C2.71978 17.949 2.42012 17.8838 2.13349 17.8577C1.87292 17.8316 1.61234 17.8055 1.35177 17.7794C1.11726 17.7272 1 17.6098 1 17.4272C1 17.2185 1.19543 17.1141 1.58629 17.1141C2.02926 17.1402 2.43315 17.1663 2.79795 17.1924C3.16275 17.1924 3.52755 17.1924 3.89235 17.1924C4.72618 17.1402 5.24733 17.1141 5.45578 17.1141C5.82059 17.1141 6.25053 17.362 6.74562 17.8577C7.2407 18.3273 7.72276 18.7839 8.19179 19.2275L26.8748 36.8393L26.7966 25.2546Z" fill="#B3B3B3"/>
<path d="M69.8897 22.5542C69.8897 20.6495 69.6552 19.3841 69.1861 18.7579C68.7432 18.1056 67.8181 17.7794 66.4111 17.7794C66.1505 17.7794 66.0202 17.6751 66.0202 17.4663C66.0202 17.2315 66.1505 17.1141 66.4111 17.1141C66.4371 17.1141 66.5674 17.1271 66.8019 17.1532C67.0364 17.1793 67.5576 17.1924 68.3653 17.1924H70.9841C72.1567 17.1924 73.0035 17.1663 73.5247 17.1141C73.8113 17.1141 73.9546 17.2054 73.9546 17.388C73.9546 17.5968 73.8504 17.7272 73.6419 17.7794C72.8341 17.8577 72.2869 18.0273 72.0003 18.2882C71.7397 18.5491 71.5313 18.9144 71.3749 19.3841C71.2447 19.8276 71.1795 20.3233 71.1795 20.8713L70.5932 33.5518C70.5932 35.4042 70.2936 37.0611 69.6943 38.5222C69.0949 39.9833 67.9224 41.1313 66.1765 41.9663C64.4307 42.7751 62.3201 43.1795 59.8446 43.1795C58.3854 43.1795 57.0174 43.023 55.7406 42.7099C54.4638 42.3707 53.2131 41.7967 51.9884 40.9878C50.7897 40.1529 50.0211 39.331 49.6823 38.5222C49.3436 37.6873 49.1742 36.748 49.1742 35.7043V24.0805C49.1742 21.7584 49.1351 20.3625 49.0569 19.8928C49.0048 19.3971 48.8615 18.9796 48.627 18.6404C48.3925 18.2752 48.0668 18.0403 47.6498 17.936C47.2329 17.8316 46.8812 17.7794 46.5945 17.7794C46.3079 17.7794 46.1646 17.6751 46.1646 17.4663C46.1646 17.2315 46.3079 17.1141 46.5945 17.1141L49.4869 17.1924L55.5061 17.1141C55.8188 17.1141 55.9751 17.2185 55.9751 17.4272C55.9751 17.6098 55.7276 17.7403 55.2325 17.8186C54.7635 17.8707 54.1641 17.9229 53.4345 17.9751C52.9916 18.1056 52.6789 18.3273 52.4965 18.6404C52.3141 18.9535 52.1968 19.5015 52.1447 20.2842C52.0926 21.0409 52.0665 21.941 52.0665 22.9847V33.2778C52.0665 35.1042 52.2359 36.6175 52.5747 37.8177C52.9134 38.9918 53.5909 39.892 54.6071 40.5182C55.6494 41.1183 56.6005 41.5227 57.4604 41.7314C58.3203 41.9141 59.2453 42.0054 60.2355 42.0054C62.3982 42.0054 64.2613 41.601 65.8248 40.7922C67.4142 39.9572 68.4565 38.7961 68.9516 37.3089C69.4467 35.7956 69.6943 34.1649 69.6943 32.4168L69.8897 25.1764V22.5542Z" fill="#B3B3B3"/>
<path d="M101.73 23.3369V35.9391C101.73 38.6526 101.952 40.2573 102.395 40.753C102.838 41.2488 103.502 41.601 104.388 41.8097C105.274 42.0185 105.717 42.2272 105.717 42.4359C105.717 42.6186 105.574 42.7099 105.287 42.7099C104.792 42.6838 104.141 42.6707 103.333 42.6707C102.525 42.6447 101.509 42.6316 100.284 42.6316H99.1897L95.2029 42.7099C94.9424 42.7099 94.8121 42.5925 94.8121 42.3576C94.8121 42.1489 94.9554 42.0445 95.242 42.0445C95.8935 42.0445 96.5058 41.9793 97.0791 41.8489C97.6523 41.7184 98.0432 41.5358 98.2516 41.3009C98.4862 41.0661 98.6425 40.6226 98.7207 39.9703C98.8249 39.318 98.877 37.896 98.877 35.7043V24.1979C98.877 21.7192 98.8249 20.219 98.7207 19.6971C98.6164 19.1492 98.3689 18.7839 97.978 18.6013C97.6132 18.3926 97.0791 18.2491 96.3755 18.1708C95.698 18.0925 95.1769 18.0534 94.8121 18.0534C94.6297 18.0534 94.5255 18.0534 94.4994 18.0534C94.4733 18.0534 94.4473 18.0534 94.4212 18.0534C94.317 18.0273 94.0825 18.0142 93.7177 18.0142C92.6493 18.0142 91.5549 18.1447 90.4345 18.4056C89.314 18.6404 88.5584 19.0449 88.1675 19.6189C88.0111 19.9059 87.7897 20.3103 87.503 20.8321C87.4249 20.9365 87.3467 20.9756 87.2685 20.9495C87.2164 20.9234 87.2034 20.8452 87.2294 20.7147C87.3597 20.4538 87.5161 20.0624 87.6985 19.5406C87.9069 19.0188 88.1024 18.4708 88.2848 17.8968C88.4672 17.2967 88.7147 16.9967 89.0274 16.9967C89.3661 17.0489 89.7309 17.101 90.1218 17.1532C90.5126 17.1793 90.8644 17.1924 91.1771 17.1924H110.681C110.994 17.1663 111.306 17.1532 111.619 17.1532C111.958 17.1271 112.31 17.0749 112.674 16.9967C112.726 17.0228 112.779 17.0358 112.831 17.0358C112.805 17.2185 112.766 17.4011 112.713 17.5837C112.505 18.1317 112.323 18.6926 112.166 19.2666C112.01 19.8407 111.88 20.3625 111.775 20.8321C111.749 20.9104 111.671 20.9495 111.541 20.9495C111.411 20.8974 111.345 20.8452 111.345 20.793C111.424 20.4799 111.489 20.1668 111.541 19.8537C111.593 19.5145 111.58 19.3188 111.502 19.2666C111.137 18.9014 110.303 18.6013 109 18.3665C107.723 18.1317 106.368 18.0142 104.935 18.0142C104.31 18.0142 103.776 18.0534 103.333 18.1317C102.916 18.1838 102.577 18.3404 102.317 18.6013C102.082 18.8361 101.926 19.384 101.848 20.2451C101.769 21.08 101.73 22.1106 101.73 23.3369Z" fill="#B3B3B3"/>
<path d="M133.308 31.634V35.7043C133.308 37.8177 133.36 39.2267 133.464 39.9311C133.595 40.6095 133.751 41.0531 133.933 41.2618C134.142 41.4705 134.454 41.6532 134.871 41.8097C135.288 41.9663 135.653 42.0445 135.966 42.0445C136.226 42.0445 136.357 42.1489 136.357 42.3576C136.357 42.5925 136.239 42.7099 136.005 42.7099L133.034 42.6316C132.201 42.6316 131.249 42.6316 130.181 42.6316C129.139 42.6316 128.37 42.6577 127.875 42.7099C127.588 42.7099 127.445 42.6186 127.445 42.4359C127.445 42.2272 127.588 42.0967 127.875 42.0445C128.162 41.9924 128.539 41.9141 129.009 41.8097C129.504 41.7054 129.868 41.4966 130.103 41.1835C130.337 40.8443 130.468 40.0485 130.494 38.7961C130.52 37.5438 130.533 36.5523 130.533 35.8217V23.8848C130.533 22.4498 130.507 21.2626 130.455 20.3233C130.403 19.358 130.259 18.7579 130.025 18.523C129.816 18.2882 129.556 18.1186 129.243 18.0142C128.93 17.9099 128.539 17.8316 128.07 17.7794C127.627 17.7272 127.406 17.6098 127.406 17.4272C127.406 17.2185 127.601 17.1141 127.992 17.1141C128.383 17.1402 129.113 17.1663 130.181 17.1924C131.275 17.1924 132.227 17.1924 133.034 17.1924L136.005 17.1141C136.265 17.1141 136.396 17.2315 136.396 17.4663C136.396 17.6751 136.252 17.7794 135.966 17.7794C135.705 17.7794 135.366 17.8446 134.95 17.9751C134.559 18.0795 134.246 18.2621 134.012 18.523C133.777 18.7579 133.595 19.2797 133.464 20.0885C133.36 20.8974 133.308 22.4498 133.308 24.7459V29.1292C133.308 29.5989 133.36 29.8337 133.464 29.8337C133.516 29.8337 133.647 29.7554 133.855 29.5989L134.246 29.2075L140.734 23.063C141.047 22.8542 141.659 22.1237 142.571 20.8713C143.509 19.6189 143.952 18.8883 143.9 18.6796C143.822 18.4187 143.561 18.2099 143.119 18.0534C142.676 17.8707 142.259 17.7794 141.868 17.7794C141.607 17.7794 141.477 17.6751 141.477 17.4663C141.477 17.2315 141.607 17.1141 141.868 17.1141L145.19 17.1924L149.06 17.1141C149.372 17.1141 149.529 17.2185 149.529 17.4272C149.529 17.662 149.372 17.7794 149.06 17.7794C148.304 17.7794 147.665 17.936 147.144 18.2491C146.649 18.5361 145.802 19.2275 144.604 20.3233L135.966 28.5813C135.705 28.8422 135.575 29.0379 135.575 29.1684C135.679 29.3771 135.966 29.6772 136.435 30.0685C136.904 30.4599 137.79 31.2035 139.093 32.2994C140.396 33.3952 141.998 34.7389 143.9 36.3305C145.828 37.9221 147.236 39.0701 148.121 39.7746C149.033 40.453 149.698 40.9226 150.115 41.1835C150.532 41.4444 150.91 41.6793 151.248 41.888C151.587 42.0967 151.756 42.2924 151.756 42.4751C151.756 42.6838 151.652 42.7621 151.444 42.7099L147.848 42.6316C147.431 42.6316 146.884 42.6447 146.206 42.6707C145.529 42.6968 145.008 42.7099 144.643 42.7099C144.278 42.7099 144.096 42.6447 144.096 42.5142C144.122 42.3316 144.161 42.2141 144.213 42.162C144.291 42.1098 144.434 42.0837 144.643 42.0837C144.851 42.0576 144.982 42.0445 145.034 42.0445C145.529 42.0445 145.776 41.888 145.776 41.5749C145.776 41.3923 145.099 40.7139 143.744 39.5398L134.207 31.4775C133.816 31.1905 133.582 31.047 133.503 31.047C133.373 31.047 133.308 31.2427 133.308 31.634Z" fill="#B3B3B3"/>
<path d="M183.069 41.6532C184.529 41.3401 185.519 40.8965 186.04 40.3225C186.561 39.7485 186.952 39.0049 187.212 38.0917C187.473 37.1524 187.708 36.6827 187.916 36.6827C188.072 36.6827 188.151 36.761 188.151 36.9176L187.212 41.4575C187.134 41.8489 187.069 42.2272 187.017 42.5925C186.965 42.6707 186.678 42.7099 186.157 42.7099L174.9 42.6316L167.161 42.7099C166.875 42.7099 166.732 42.5925 166.732 42.3576C166.732 42.1489 166.862 42.0445 167.122 42.0445C167.617 42.0445 168.073 41.9793 168.49 41.8489C168.907 41.7184 169.181 41.5358 169.311 41.3009C169.441 41.0661 169.546 40.4008 169.624 39.3049C169.702 38.2091 169.741 37.0872 169.741 35.9391V23.9631C169.741 23.7022 169.741 23.4282 169.741 23.1412C169.741 22.8542 169.754 22.5542 169.78 22.2411C169.78 21.067 169.689 20.1537 169.507 19.5015C169.35 18.8492 169.077 18.4317 168.686 18.2491C168.321 18.0403 168.008 17.9099 167.748 17.8577C167.513 17.8055 167.266 17.7794 167.005 17.7794C166.797 17.7794 166.692 17.6751 166.692 17.4663C166.692 17.2315 166.81 17.1141 167.044 17.1141H175.643C177.623 17.1141 179.447 17.101 181.115 17.0749C182.809 17.0489 184.385 17.0228 185.845 16.9967C186.131 16.9967 186.287 17.0097 186.314 17.0358C186.287 17.1663 186.261 17.2837 186.235 17.388L186.001 19.3841C185.949 19.9842 185.897 20.5712 185.845 21.1452C185.818 21.6932 185.688 21.9671 185.454 21.9671C185.349 21.9671 185.258 21.7192 185.18 21.2235C185.128 20.7017 185.063 20.232 184.985 19.8146C184.932 19.371 184.815 19.097 184.633 18.9927C184.45 18.8622 184.047 18.7187 183.421 18.5622C182.796 18.3795 182.066 18.223 181.232 18.0925C180.399 17.936 179.526 17.8577 178.614 17.8577C177.884 17.8577 177.128 17.8968 176.347 17.9751C175.565 18.0534 174.809 18.1708 174.08 18.3273C173.35 18.4578 172.933 18.6013 172.829 18.7579C172.725 18.9144 172.673 19.3058 172.673 19.932L172.594 21.9671L172.555 28.3074C172.555 28.5161 172.555 28.7118 172.555 28.8944C172.607 28.9727 172.777 29.0118 173.063 29.0118H181.271C182.262 29.0118 182.861 28.8814 183.069 28.6205C183.382 27.8638 183.734 27.055 184.125 26.1939C184.151 26.1157 184.229 26.1026 184.359 26.1548C184.516 26.207 184.581 26.2853 184.555 26.3896C184.45 26.8071 184.359 27.4594 184.281 28.3465C184.203 29.2336 184.164 30.0033 184.164 30.6556C184.164 31.0731 184.164 31.5297 184.164 32.0254C184.19 32.495 184.281 32.9125 184.437 33.2778C184.568 33.5909 184.49 33.7474 184.203 33.7474C184.125 33.7474 183.968 33.5387 183.734 33.1212C183.499 32.7038 183.2 32.1428 182.835 31.4383C182.027 30.5251 180.698 30.0685 178.848 30.0685H173.181C172.92 30.0685 172.751 30.1077 172.673 30.1859C172.594 30.2642 172.555 30.4599 172.555 30.773L172.594 37.4263C172.594 38.9657 172.62 39.9311 172.673 40.3225C172.751 40.6878 172.985 41.0009 173.376 41.2618C173.767 41.4966 174.418 41.6923 175.33 41.8489C176.268 41.9793 177.311 42.0445 178.457 42.0445C179.343 42.0445 180.203 42.0054 181.037 41.9271C181.871 41.8489 182.548 41.7575 183.069 41.6532Z" fill="#B3B3B3"/>
<path d="M215.713 23.3369V35.9391C215.713 38.6526 215.934 40.2573 216.377 40.753C216.82 41.2488 217.485 41.601 218.371 41.8097C219.257 42.0185 219.7 42.2272 219.7 42.4359C219.7 42.6186 219.556 42.7099 219.27 42.7099C218.775 42.6838 218.123 42.6707 217.315 42.6707C216.508 42.6447 215.491 42.6316 214.267 42.6316H213.172L209.185 42.7099C208.925 42.7099 208.795 42.5925 208.795 42.3576C208.795 42.1489 208.938 42.0445 209.225 42.0445C209.876 42.0445 210.488 41.9793 211.062 41.8489C211.635 41.7184 212.026 41.5358 212.234 41.3009C212.469 41.0661 212.625 40.6226 212.703 39.9703C212.807 39.318 212.86 37.896 212.86 35.7043V24.1979C212.86 21.7192 212.807 20.219 212.703 19.6971C212.599 19.1492 212.351 18.7839 211.961 18.6013C211.596 18.3926 211.062 18.2491 210.358 18.1708C209.681 18.0925 209.159 18.0534 208.795 18.0534C208.612 18.0534 208.508 18.0534 208.482 18.0534C208.456 18.0534 208.43 18.0534 208.404 18.0534C208.299 18.0273 208.065 18.0142 207.7 18.0142C206.632 18.0142 205.537 18.1447 204.417 18.4056C203.297 18.6404 202.541 19.0449 202.15 19.6189C201.994 19.9059 201.772 20.3103 201.486 20.8321C201.407 20.9365 201.329 20.9756 201.251 20.9495C201.199 20.9234 201.186 20.8452 201.212 20.7147C201.342 20.4538 201.499 20.0624 201.681 19.5406C201.889 19.0188 202.085 18.4708 202.267 17.8968C202.45 17.2967 202.697 16.9967 203.01 16.9967C203.349 17.0489 203.713 17.101 204.104 17.1532C204.495 17.1793 204.847 17.1924 205.16 17.1924H224.663C224.976 17.1663 225.289 17.1532 225.602 17.1532C225.94 17.1271 226.292 17.0749 226.657 16.9967C226.709 17.0228 226.761 17.0358 226.813 17.0358C226.787 17.2185 226.748 17.4011 226.696 17.5837C226.487 18.1317 226.305 18.6926 226.149 19.2666C225.992 19.8407 225.862 20.3625 225.758 20.8321C225.732 20.9104 225.654 20.9495 225.523 20.9495C225.393 20.8974 225.328 20.8452 225.328 20.793C225.406 20.4799 225.471 20.1668 225.523 19.8537C225.575 19.5145 225.562 19.3188 225.484 19.2666C225.119 18.9014 224.286 18.6013 222.983 18.3665C221.706 18.1317 220.351 18.0142 218.918 18.0142C218.292 18.0142 217.758 18.0534 217.315 18.1317C216.898 18.1838 216.56 18.3404 216.299 18.6013C216.065 18.8361 215.908 19.384 215.83 20.2451C215.752 21.08 215.713 22.1106 215.713 23.3369Z" fill="#B3B3B3"/>
<path d="M256.202 16.8793C256.332 16.801 256.41 16.801 256.437 16.8793C256.463 16.9575 256.45 17.0489 256.397 17.1532C256.345 17.2837 256.293 17.5185 256.241 17.8577C256.215 18.1708 256.202 18.5491 256.202 18.9927C256.202 19.6971 256.215 20.2059 256.241 20.519C256.267 20.8321 256.358 21.4714 256.515 22.4368C256.489 22.515 256.463 22.5933 256.437 22.6716C256.358 22.6455 256.293 22.5672 256.241 22.4368C255.355 20.9495 254.678 19.9059 254.209 19.3058C253.766 18.7057 253.049 18.2882 252.059 18.0534C251.069 17.8186 250.183 17.7011 249.401 17.7011C248.541 17.7011 247.759 17.8186 247.056 18.0534C246.352 18.2621 245.74 18.6404 245.219 19.1884C244.698 19.7102 244.32 20.2451 244.085 20.793C243.877 21.3409 243.773 21.941 243.773 22.5933C243.773 23.1151 243.864 23.7674 244.046 24.5502C244.255 25.3068 244.802 25.9722 245.688 26.5462C246.574 27.1202 247.746 27.642 249.206 28.1117L251.004 28.6596C253.088 29.3902 254.639 30.1077 255.655 30.8121C256.697 31.4905 257.349 32.3385 257.609 33.3561C257.87 34.3736 258 35.1172 258 35.5869C258 36.3696 257.87 37.1654 257.609 37.9743C257.349 38.757 256.84 39.5398 256.085 40.3225C255.355 41.1052 254.391 41.7184 253.192 42.162C252.02 42.5794 250.704 42.7882 249.245 42.7882C247.786 42.7882 246.118 42.5794 244.242 42.162C244.007 42.0837 243.747 42.0054 243.46 41.9271C243.2 41.8489 243.043 41.8489 242.991 41.9271C242.965 41.9532 242.913 42.0967 242.835 42.3576C242.783 42.5925 242.691 42.736 242.561 42.7882C242.457 42.8142 242.353 42.7882 242.248 42.7099C242.248 41.7967 242.131 40.9226 241.897 40.0877C241.532 39.0701 241.271 38.3265 241.115 37.8569C240.959 37.3611 240.841 36.9828 240.763 36.7219C240.711 36.4349 240.711 36.2 240.763 36.0174C240.919 35.9391 241.193 36.3696 241.584 37.3089C242.001 38.2221 242.665 39.031 243.577 39.7354C244.489 40.4399 245.414 40.9096 246.352 41.1444C247.29 41.3531 247.994 41.4966 248.463 41.5749C248.958 41.6271 249.518 41.6532 250.144 41.6532C251.004 41.6532 251.798 41.5488 252.528 41.3401C253.258 41.1053 253.844 40.753 254.287 40.2834C254.756 39.7876 255.082 39.2528 255.264 38.6787C255.472 38.0786 255.577 37.4655 255.577 36.8393C255.577 36.4218 255.551 36.1087 255.498 35.9C255.446 35.6913 255.342 35.2868 255.186 34.6867C255.056 34.0866 254.586 33.5518 253.779 33.0821C252.997 32.5864 251.759 32.0384 250.066 31.4383L248.307 30.8904C246.274 30.0816 244.737 29.338 243.695 28.6596C242.678 27.9551 242.053 27.1202 241.818 26.1548C241.584 25.1894 241.467 24.5371 241.467 24.1979C241.467 23.4413 241.649 22.6194 242.014 21.7323C242.379 20.8452 242.9 20.0363 243.577 19.3058C244.255 18.5491 245.154 17.9882 246.274 17.6229C247.421 17.2315 248.685 17.0358 250.066 17.0358C250.613 17.0358 251.03 17.0489 251.316 17.0749C251.603 17.101 252.007 17.1532 252.528 17.2315C253.049 17.3098 253.505 17.3489 253.896 17.3489C254.391 17.3489 254.821 17.3098 255.186 17.2315C255.551 17.1271 255.889 17.0097 256.202 16.8793Z" fill="#B3B3B3"/>
<path d="M26.7966 25.2546C26.7966 22.0976 26.5621 20.0624 26.0931 19.1492C25.6241 18.236 24.5036 17.7794 22.7317 17.7794C22.4451 17.7794 22.3018 17.6751 22.3018 17.4663C22.3018 17.2315 22.4321 17.1141 22.6926 17.1141C23.1617 17.1402 23.6828 17.1663 24.2561 17.1924C24.8554 17.1924 25.3114 17.1924 25.6241 17.1924H28.2819C28.777 17.1924 29.2851 17.1924 29.8063 17.1924C30.3795 17.1402 30.7313 17.1141 30.8616 17.1141C31.1482 17.1141 31.2915 17.2054 31.2915 17.388C31.2915 17.5968 31.1352 17.7272 30.8225 17.7794C30.5098 17.8316 30.2101 17.8968 29.9235 17.9751C29.6629 18.0273 29.3893 18.2099 29.1027 18.523C28.9464 18.6274 28.79 18.9014 28.6337 19.3449C28.5034 19.7885 28.4382 20.2973 28.4382 20.8713L28.321 36.487V42.8273C28.1907 42.8273 28.0735 42.8273 27.9692 42.8273C27.6044 42.462 27.3308 42.188 27.1484 42.0054L6.7847 21.9671C6.36779 21.6018 6.12024 21.4322 6.04207 21.4583C5.98996 21.4844 5.9639 21.5627 5.9639 21.6932C5.9639 21.8236 5.9639 21.9802 5.9639 22.1628L6.00299 34.5693C6.00299 37.5959 6.25053 39.605 6.74562 40.5965C7.2407 41.5619 8.37419 42.0445 10.1461 42.0445C10.4067 42.0445 10.5369 42.1489 10.5369 42.3576C10.5369 42.5925 10.4197 42.7099 10.1852 42.7099L7.21465 42.6316C6.38082 42.6316 5.42973 42.6316 4.36138 42.6316C3.31909 42.6316 2.5504 42.6577 2.05532 42.7099C1.74263 42.7099 1.58629 42.6055 1.58629 42.3968C1.58629 42.2141 1.69052 42.0967 1.89897 42.0445C2.70675 41.9663 3.25395 41.7967 3.54058 41.5358C3.82721 41.2748 4.03567 40.9226 4.16595 40.4791C4.3223 40.0094 4.40047 39.5006 4.40047 38.9527L4.51772 23.3369C4.51772 21.2496 4.34835 19.8798 4.00961 19.2275C3.69692 18.5491 3.37121 18.1577 3.03246 18.0534C2.71978 17.949 2.42012 17.8838 2.13349 17.8577C1.87292 17.8316 1.61234 17.8055 1.35177 17.7794C1.11726 17.7272 1 17.6098 1 17.4272C1 17.2185 1.19543 17.1141 1.58629 17.1141C2.02926 17.1402 2.43315 17.1663 2.79795 17.1924C3.16275 17.1924 3.52755 17.1924 3.89235 17.1924C4.72618 17.1402 5.24733 17.1141 5.45578 17.1141C5.82059 17.1141 6.25053 17.362 6.74562 17.8577C7.2407 18.3273 7.72276 18.7839 8.19179 19.2275L26.8748 36.8393L26.7966 25.2546Z" stroke="#B3B3B3" stroke-width="0.564835" mask="url(#path-1-outside-1_4459_156908)"/>
<path d="M69.8897 22.5542C69.8897 20.6495 69.6552 19.3841 69.1861 18.7579C68.7432 18.1056 67.8181 17.7794 66.4111 17.7794C66.1505 17.7794 66.0202 17.6751 66.0202 17.4663C66.0202 17.2315 66.1505 17.1141 66.4111 17.1141C66.4371 17.1141 66.5674 17.1271 66.8019 17.1532C67.0364 17.1793 67.5576 17.1924 68.3653 17.1924H70.9841C72.1567 17.1924 73.0035 17.1663 73.5247 17.1141C73.8113 17.1141 73.9546 17.2054 73.9546 17.388C73.9546 17.5968 73.8504 17.7272 73.6419 17.7794C72.8341 17.8577 72.2869 18.0273 72.0003 18.2882C71.7397 18.5491 71.5313 18.9144 71.3749 19.3841C71.2447 19.8276 71.1795 20.3233 71.1795 20.8713L70.5932 33.5518C70.5932 35.4042 70.2936 37.0611 69.6943 38.5222C69.0949 39.9833 67.9224 41.1313 66.1765 41.9663C64.4307 42.7751 62.3201 43.1795 59.8446 43.1795C58.3854 43.1795 57.0174 43.023 55.7406 42.7099C54.4638 42.3707 53.2131 41.7967 51.9884 40.9878C50.7897 40.1529 50.0211 39.331 49.6823 38.5222C49.3436 37.6873 49.1742 36.748 49.1742 35.7043V24.0805C49.1742 21.7584 49.1351 20.3625 49.0569 19.8928C49.0048 19.3971 48.8615 18.9796 48.627 18.6404C48.3925 18.2752 48.0668 18.0403 47.6498 17.936C47.2329 17.8316 46.8812 17.7794 46.5945 17.7794C46.3079 17.7794 46.1646 17.6751 46.1646 17.4663C46.1646 17.2315 46.3079 17.1141 46.5945 17.1141L49.4869 17.1924L55.5061 17.1141C55.8188 17.1141 55.9751 17.2185 55.9751 17.4272C55.9751 17.6098 55.7276 17.7403 55.2325 17.8186C54.7635 17.8707 54.1641 17.9229 53.4345 17.9751C52.9916 18.1056 52.6789 18.3273 52.4965 18.6404C52.3141 18.9535 52.1968 19.5015 52.1447 20.2842C52.0926 21.0409 52.0665 21.941 52.0665 22.9847V33.2778C52.0665 35.1042 52.2359 36.6175 52.5747 37.8177C52.9134 38.9918 53.5909 39.892 54.6071 40.5182C55.6494 41.1183 56.6005 41.5227 57.4604 41.7314C58.3203 41.9141 59.2453 42.0054 60.2355 42.0054C62.3982 42.0054 64.2613 41.601 65.8248 40.7922C67.4142 39.9572 68.4565 38.7961 68.9516 37.3089C69.4467 35.7956 69.6943 34.1649 69.6943 32.4168L69.8897 25.1764V22.5542Z" stroke="#B3B3B3" stroke-width="0.564835" mask="url(#path-1-outside-1_4459_156908)"/>
<path d="M101.73 23.3369V35.9391C101.73 38.6526 101.952 40.2573 102.395 40.753C102.838 41.2488 103.502 41.601 104.388 41.8097C105.274 42.0185 105.717 42.2272 105.717 42.4359C105.717 42.6186 105.574 42.7099 105.287 42.7099C104.792 42.6838 104.141 42.6707 103.333 42.6707C102.525 42.6447 101.509 42.6316 100.284 42.6316H99.1897L95.2029 42.7099C94.9424 42.7099 94.8121 42.5925 94.8121 42.3576C94.8121 42.1489 94.9554 42.0445 95.242 42.0445C95.8935 42.0445 96.5058 41.9793 97.0791 41.8489C97.6523 41.7184 98.0432 41.5358 98.2516 41.3009C98.4862 41.0661 98.6425 40.6226 98.7207 39.9703C98.8249 39.318 98.877 37.896 98.877 35.7043V24.1979C98.877 21.7192 98.8249 20.219 98.7207 19.6971C98.6164 19.1492 98.3689 18.7839 97.978 18.6013C97.6132 18.3926 97.0791 18.2491 96.3755 18.1708C95.698 18.0925 95.1769 18.0534 94.8121 18.0534C94.6297 18.0534 94.5255 18.0534 94.4994 18.0534C94.4733 18.0534 94.4473 18.0534 94.4212 18.0534C94.317 18.0273 94.0825 18.0142 93.7177 18.0142C92.6493 18.0142 91.5549 18.1447 90.4345 18.4056C89.314 18.6404 88.5584 19.0449 88.1675 19.6189C88.0111 19.9059 87.7897 20.3103 87.503 20.8321C87.4249 20.9365 87.3467 20.9756 87.2685 20.9495C87.2164 20.9234 87.2034 20.8452 87.2294 20.7147C87.3597 20.4538 87.5161 20.0624 87.6985 19.5406C87.9069 19.0188 88.1024 18.4708 88.2848 17.8968C88.4672 17.2967 88.7147 16.9967 89.0274 16.9967C89.3661 17.0489 89.7309 17.101 90.1218 17.1532C90.5126 17.1793 90.8644 17.1924 91.1771 17.1924H110.681C110.994 17.1663 111.306 17.1532 111.619 17.1532C111.958 17.1271 112.31 17.0749 112.674 16.9967C112.726 17.0228 112.779 17.0358 112.831 17.0358C112.805 17.2185 112.766 17.4011 112.713 17.5837C112.505 18.1317 112.323 18.6926 112.166 19.2666C112.01 19.8407 111.88 20.3625 111.775 20.8321C111.749 20.9104 111.671 20.9495 111.541 20.9495C111.411 20.8974 111.345 20.8452 111.345 20.793C111.424 20.4799 111.489 20.1668 111.541 19.8537C111.593 19.5145 111.58 19.3188 111.502 19.2666C111.137 18.9014 110.303 18.6013 109 18.3665C107.723 18.1317 106.368 18.0142 104.935 18.0142C104.31 18.0142 103.776 18.0534 103.333 18.1317C102.916 18.1838 102.577 18.3404 102.317 18.6013C102.082 18.8361 101.926 19.384 101.848 20.2451C101.769 21.08 101.73 22.1106 101.73 23.3369Z" stroke="#B3B3B3" stroke-width="0.564835" mask="url(#path-1-outside-1_4459_156908)"/>
<path d="M133.308 31.634V35.7043C133.308 37.8177 133.36 39.2267 133.464 39.9311C133.595 40.6095 133.751 41.0531 133.933 41.2618C134.142 41.4705 134.454 41.6532 134.871 41.8097C135.288 41.9663 135.653 42.0445 135.966 42.0445C136.226 42.0445 136.357 42.1489 136.357 42.3576C136.357 42.5925 136.239 42.7099 136.005 42.7099L133.034 42.6316C132.201 42.6316 131.249 42.6316 130.181 42.6316C129.139 42.6316 128.37 42.6577 127.875 42.7099C127.588 42.7099 127.445 42.6186 127.445 42.4359C127.445 42.2272 127.588 42.0967 127.875 42.0445C128.162 41.9924 128.539 41.9141 129.009 41.8097C129.504 41.7054 129.868 41.4966 130.103 41.1835C130.337 40.8443 130.468 40.0485 130.494 38.7961C130.52 37.5438 130.533 36.5523 130.533 35.8217V23.8848C130.533 22.4498 130.507 21.2626 130.455 20.3233C130.403 19.358 130.259 18.7579 130.025 18.523C129.816 18.2882 129.556 18.1186 129.243 18.0142C128.93 17.9099 128.539 17.8316 128.07 17.7794C127.627 17.7272 127.406 17.6098 127.406 17.4272C127.406 17.2185 127.601 17.1141 127.992 17.1141C128.383 17.1402 129.113 17.1663 130.181 17.1924C131.275 17.1924 132.227 17.1924 133.034 17.1924L136.005 17.1141C136.265 17.1141 136.396 17.2315 136.396 17.4663C136.396 17.6751 136.252 17.7794 135.966 17.7794C135.705 17.7794 135.366 17.8446 134.95 17.9751C134.559 18.0795 134.246 18.2621 134.012 18.523C133.777 18.7579 133.595 19.2797 133.464 20.0885C133.36 20.8974 133.308 22.4498 133.308 24.7459V29.1292C133.308 29.5989 133.36 29.8337 133.464 29.8337C133.516 29.8337 133.647 29.7554 133.855 29.5989L134.246 29.2075L140.734 23.063C141.047 22.8542 141.659 22.1237 142.571 20.8713C143.509 19.6189 143.952 18.8883 143.9 18.6796C143.822 18.4187 143.561 18.2099 143.119 18.0534C142.676 17.8707 142.259 17.7794 141.868 17.7794C141.607 17.7794 141.477 17.6751 141.477 17.4663C141.477 17.2315 141.607 17.1141 141.868 17.1141L145.19 17.1924L149.06 17.1141C149.372 17.1141 149.529 17.2185 149.529 17.4272C149.529 17.662 149.372 17.7794 149.06 17.7794C148.304 17.7794 147.665 17.936 147.144 18.2491C146.649 18.5361 145.802 19.2275 144.604 20.3233L135.966 28.5813C135.705 28.8422 135.575 29.0379 135.575 29.1684C135.679 29.3771 135.966 29.6772 136.435 30.0685C136.904 30.4599 137.79 31.2035 139.093 32.2994C140.396 33.3952 141.998 34.7389 143.9 36.3305C145.828 37.9221 147.236 39.0701 148.121 39.7746C149.033 40.453 149.698 40.9226 150.115 41.1835C150.532 41.4444 150.91 41.6793 151.248 41.888C151.587 42.0967 151.756 42.2924 151.756 42.4751C151.756 42.6838 151.652 42.7621 151.444 42.7099L147.848 42.6316C147.431 42.6316 146.884 42.6447 146.206 42.6707C145.529 42.6968 145.008 42.7099 144.643 42.7099C144.278 42.7099 144.096 42.6447 144.096 42.5142C144.122 42.3316 144.161 42.2141 144.213 42.162C144.291 42.1098 144.434 42.0837 144.643 42.0837C144.851 42.0576 144.982 42.0445 145.034 42.0445C145.529 42.0445 145.776 41.888 145.776 41.5749C145.776 41.3923 145.099 40.7139 143.744 39.5398L134.207 31.4775C133.816 31.1905 133.582 31.047 133.503 31.047C133.373 31.047 133.308 31.2427 133.308 31.634Z" stroke="#B3B3B3" stroke-width="0.564835" mask="url(#path-1-outside-1_4459_156908)"/>
<path d="M183.069 41.6532C184.529 41.3401 185.519 40.8965 186.04 40.3225C186.561 39.7485 186.952 39.0049 187.212 38.0917C187.473 37.1524 187.708 36.6827 187.916 36.6827C188.072 36.6827 188.151 36.761 188.151 36.9176L187.212 41.4575C187.134 41.8489 187.069 42.2272 187.017 42.5925C186.965 42.6707 186.678 42.7099 186.157 42.7099L174.9 42.6316L167.161 42.7099C166.875 42.7099 166.732 42.5925 166.732 42.3576C166.732 42.1489 166.862 42.0445 167.122 42.0445C167.617 42.0445 168.073 41.9793 168.49 41.8489C168.907 41.7184 169.181 41.5358 169.311 41.3009C169.441 41.0661 169.546 40.4008 169.624 39.3049C169.702 38.2091 169.741 37.0872 169.741 35.9391V23.9631C169.741 23.7022 169.741 23.4282 169.741 23.1412C169.741 22.8542 169.754 22.5542 169.78 22.2411C169.78 21.067 169.689 20.1537 169.507 19.5015C169.35 18.8492 169.077 18.4317 168.686 18.2491C168.321 18.0403 168.008 17.9099 167.748 17.8577C167.513 17.8055 167.266 17.7794 167.005 17.7794C166.797 17.7794 166.692 17.6751 166.692 17.4663C166.692 17.2315 166.81 17.1141 167.044 17.1141H175.643C177.623 17.1141 179.447 17.101 181.115 17.0749C182.809 17.0489 184.385 17.0228 185.845 16.9967C186.131 16.9967 186.287 17.0097 186.314 17.0358C186.287 17.1663 186.261 17.2837 186.235 17.388L186.001 19.3841C185.949 19.9842 185.897 20.5712 185.845 21.1452C185.818 21.6932 185.688 21.9671 185.454 21.9671C185.349 21.9671 185.258 21.7192 185.18 21.2235C185.128 20.7017 185.063 20.232 184.985 19.8146C184.932 19.371 184.815 19.097 184.633 18.9927C184.45 18.8622 184.047 18.7187 183.421 18.5622C182.796 18.3795 182.066 18.223 181.232 18.0925C180.399 17.936 179.526 17.8577 178.614 17.8577C177.884 17.8577 177.128 17.8968 176.347 17.9751C175.565 18.0534 174.809 18.1708 174.08 18.3273C173.35 18.4578 172.933 18.6013 172.829 18.7579C172.725 18.9144 172.673 19.3058 172.673 19.932L172.594 21.9671L172.555 28.3074C172.555 28.5161 172.555 28.7118 172.555 28.8944C172.607 28.9727 172.777 29.0118 173.063 29.0118H181.271C182.262 29.0118 182.861 28.8814 183.069 28.6205C183.382 27.8638 183.734 27.055 184.125 26.1939C184.151 26.1157 184.229 26.1026 184.359 26.1548C184.516 26.207 184.581 26.2853 184.555 26.3896C184.45 26.8071 184.359 27.4594 184.281 28.3465C184.203 29.2336 184.164 30.0033 184.164 30.6556C184.164 31.0731 184.164 31.5297 184.164 32.0254C184.19 32.495 184.281 32.9125 184.437 33.2778C184.568 33.5909 184.49 33.7474 184.203 33.7474C184.125 33.7474 183.968 33.5387 183.734 33.1212C183.499 32.7038 183.2 32.1428 182.835 31.4383C182.027 30.5251 180.698 30.0685 178.848 30.0685H173.181C172.92 30.0685 172.751 30.1077 172.673 30.1859C172.594 30.2642 172.555 30.4599 172.555 30.773L172.594 37.4263C172.594 38.9657 172.62 39.9311 172.673 40.3225C172.751 40.6878 172.985 41.0009 173.376 41.2618C173.767 41.4966 174.418 41.6923 175.33 41.8489C176.268 41.9793 177.311 42.0445 178.457 42.0445C179.343 42.0445 180.203 42.0054 181.037 41.9271C181.871 41.8489 182.548 41.7575 183.069 41.6532Z" stroke="#B3B3B3" stroke-width="0.564835" mask="url(#path-1-outside-1_4459_156908)"/>
<path d="M215.713 23.3369V35.9391C215.713 38.6526 215.934 40.2573 216.377 40.753C216.82 41.2488 217.485 41.601 218.371 41.8097C219.257 42.0185 219.7 42.2272 219.7 42.4359C219.7 42.6186 219.556 42.7099 219.27 42.7099C218.775 42.6838 218.123 42.6707 217.315 42.6707C216.508 42.6447 215.491 42.6316 214.267 42.6316H213.172L209.185 42.7099C208.925 42.7099 208.795 42.5925 208.795 42.3576C208.795 42.1489 208.938 42.0445 209.225 42.0445C209.876 42.0445 210.488 41.9793 211.062 41.8489C211.635 41.7184 212.026 41.5358 212.234 41.3009C212.469 41.0661 212.625 40.6226 212.703 39.9703C212.807 39.318 212.86 37.896 212.86 35.7043V24.1979C212.86 21.7192 212.807 20.219 212.703 19.6971C212.599 19.1492 212.351 18.7839 211.961 18.6013C211.596 18.3926 211.062 18.2491 210.358 18.1708C209.681 18.0925 209.159 18.0534 208.795 18.0534C208.612 18.0534 208.508 18.0534 208.482 18.0534C208.456 18.0534 208.43 18.0534 208.404 18.0534C208.299 18.0273 208.065 18.0142 207.7 18.0142C206.632 18.0142 205.537 18.1447 204.417 18.4056C203.297 18.6404 202.541 19.0449 202.15 19.6189C201.994 19.9059 201.772 20.3103 201.486 20.8321C201.407 20.9365 201.329 20.9756 201.251 20.9495C201.199 20.9234 201.186 20.8452 201.212 20.7147C201.342 20.4538 201.499 20.0624 201.681 19.5406C201.889 19.0188 202.085 18.4708 202.267 17.8968C202.45 17.2967 202.697 16.9967 203.01 16.9967C203.349 17.0489 203.713 17.101 204.104 17.1532C204.495 17.1793 204.847 17.1924 205.16 17.1924H224.663C224.976 17.1663 225.289 17.1532 225.602 17.1532C225.94 17.1271 226.292 17.0749 226.657 16.9967C226.709 17.0228 226.761 17.0358 226.813 17.0358C226.787 17.2185 226.748 17.4011 226.696 17.5837C226.487 18.1317 226.305 18.6926 226.149 19.2666C225.992 19.8407 225.862 20.3625 225.758 20.8321C225.732 20.9104 225.654 20.9495 225.523 20.9495C225.393 20.8974 225.328 20.8452 225.328 20.793C225.406 20.4799 225.471 20.1668 225.523 19.8537C225.575 19.5145 225.562 19.3188 225.484 19.2666C225.119 18.9014 224.286 18.6013 222.983 18.3665C221.706 18.1317 220.351 18.0142 218.918 18.0142C218.292 18.0142 217.758 18.0534 217.315 18.1317C216.898 18.1838 216.56 18.3404 216.299 18.6013C216.065 18.8361 215.908 19.384 215.83 20.2451C215.752 21.08 215.713 22.1106 215.713 23.3369Z" stroke="#B3B3B3" stroke-width="0.564835" mask="url(#path-1-outside-1_4459_156908)"/>
<path d="M256.202 16.8793C256.332 16.801 256.41 16.801 256.437 16.8793C256.463 16.9575 256.45 17.0489 256.397 17.1532C256.345 17.2837 256.293 17.5185 256.241 17.8577C256.215 18.1708 256.202 18.5491 256.202 18.9927C256.202 19.6971 256.215 20.2059 256.241 20.519C256.267 20.8321 256.358 21.4714 256.515 22.4368C256.489 22.515 256.463 22.5933 256.437 22.6716C256.358 22.6455 256.293 22.5672 256.241 22.4368C255.355 20.9495 254.678 19.9059 254.209 19.3058C253.766 18.7057 253.049 18.2882 252.059 18.0534C251.069 17.8186 250.183 17.7011 249.401 17.7011C248.541 17.7011 247.759 17.8186 247.056 18.0534C246.352 18.2621 245.74 18.6404 245.219 19.1884C244.698 19.7102 244.32 20.2451 244.085 20.793C243.877 21.3409 243.773 21.941 243.773 22.5933C243.773 23.1151 243.864 23.7674 244.046 24.5502C244.255 25.3068 244.802 25.9722 245.688 26.5462C246.574 27.1202 247.746 27.642 249.206 28.1117L251.004 28.6596C253.088 29.3902 254.639 30.1077 255.655 30.8121C256.697 31.4905 257.349 32.3385 257.609 33.3561C257.87 34.3736 258 35.1172 258 35.5869C258 36.3696 257.87 37.1654 257.609 37.9743C257.349 38.757 256.84 39.5398 256.085 40.3225C255.355 41.1052 254.391 41.7184 253.192 42.162C252.02 42.5794 250.704 42.7882 249.245 42.7882C247.786 42.7882 246.118 42.5794 244.242 42.162C244.007 42.0837 243.747 42.0054 243.46 41.9271C243.2 41.8489 243.043 41.8489 242.991 41.9271C242.965 41.9532 242.913 42.0967 242.835 42.3576C242.783 42.5925 242.691 42.736 242.561 42.7882C242.457 42.8142 242.353 42.7882 242.248 42.7099C242.248 41.7967 242.131 40.9226 241.897 40.0877C241.532 39.0701 241.271 38.3265 241.115 37.8569C240.959 37.3611 240.841 36.9828 240.763 36.7219C240.711 36.4349 240.711 36.2 240.763 36.0174C240.919 35.9391 241.193 36.3696 241.584 37.3089C242.001 38.2221 242.665 39.031 243.577 39.7354C244.489 40.4399 245.414 40.9096 246.352 41.1444C247.29 41.3531 247.994 41.4966 248.463 41.5749C248.958 41.6271 249.518 41.6532 250.144 41.6532C251.004 41.6532 251.798 41.5488 252.528 41.3401C253.258 41.1053 253.844 40.753 254.287 40.2834C254.756 39.7876 255.082 39.2528 255.264 38.6787C255.472 38.0786 255.577 37.4655 255.577 36.8393C255.577 36.4218 255.551 36.1087 255.498 35.9C255.446 35.6913 255.342 35.2868 255.186 34.6867C255.056 34.0866 254.586 33.5518 253.779 33.0821C252.997 32.5864 251.759 32.0384 250.066 31.4383L248.307 30.8904C246.274 30.0816 244.737 29.338 243.695 28.6596C242.678 27.9551 242.053 27.1202 241.818 26.1548C241.584 25.1894 241.467 24.5371 241.467 24.1979C241.467 23.4413 241.649 22.6194 242.014 21.7323C242.379 20.8452 242.9 20.0363 243.577 19.3058C244.255 18.5491 245.154 17.9882 246.274 17.6229C247.421 17.2315 248.685 17.0358 250.066 17.0358C250.613 17.0358 251.03 17.0489 251.316 17.0749C251.603 17.101 252.007 17.1532 252.528 17.2315C253.049 17.3098 253.505 17.3489 253.896 17.3489C254.391 17.3489 254.821 17.3098 255.186 17.2315C255.551 17.1271 255.889 17.0097 256.202 16.8793Z" stroke="#B3B3B3" stroke-width="0.564835" mask="url(#path-1-outside-1_4459_156908)"/>
</svg>
