<svg width="235" height="60" viewBox="0 0 235 60" fill="none" xmlns="http://www.w3.org/2000/svg">
<path d="M1.8404 43.594L0.728895 16.2559L10.7537 16.4077V30.5412V30.8773L10.9218 30.5862L19.2866 16.0999H30.2499L10.9376 43.8988L1.8404 43.594Z" fill="#999999" stroke="#999999" stroke-width="0.18018"/>
<path d="M52.5388 16.5616L50.6322 23.1853H42.0296H41.959L41.9421 23.2538L41.103 26.6548L41.0755 26.7665H41.1905H48.9006L46.9971 33.079H39.2327H39.1657L39.1464 33.1431L38.0276 36.8533L37.9926 36.9694H38.1139H46.6569L44.2031 43.9013L25.3707 44.2075L33.9847 16.2555L52.5388 16.5616Z" fill="#999999" stroke="#999999" stroke-width="0.18018"/>
<path d="M73.3818 34.646C73.4096 34.6322 73.4353 34.6193 73.459 34.6071L69.9316 43.6056C69.9107 43.611 69.8824 43.6181 69.8472 43.6269C69.7628 43.6479 69.6382 43.6779 69.478 43.714C69.1576 43.7862 68.6948 43.8825 68.1263 43.9788C66.989 44.1714 65.4297 44.364 63.7406 44.364C60.3556 44.364 56.4815 43.5912 54.4105 40.5388C52.3326 37.4761 52.2586 33.4086 52.956 29.8628C53.3043 28.0916 53.8442 26.4554 54.4184 25.1473C54.9942 23.8359 55.6001 22.8641 56.0761 22.4132C56.2565 22.2422 56.455 22.0383 56.6774 21.8099C57.6707 20.7894 59.1409 19.2791 61.6138 18.0223C64.636 16.4863 69.1596 15.3292 76.1302 15.9436L78.2797 16.8346L75.5412 25.9163C75.5285 25.9082 75.5147 25.8995 75.4997 25.8902C75.4058 25.8319 75.2675 25.75 75.0886 25.6547C74.7308 25.4643 74.2104 25.2206 73.5579 25.0062C72.2531 24.5773 70.4183 24.2652 68.3011 24.7333C64.0577 25.6714 62.6366 29.1148 62.6366 31.0048V31.012C62.6366 31.9364 62.6366 33.4993 63.2404 34.7163C63.5446 35.3297 64.0039 35.8591 64.6953 36.1737C65.3858 36.488 66.2975 36.5836 67.4987 36.3493C69.8799 35.8848 71.423 35.4198 72.3723 35.07C72.847 34.8951 73.1733 34.7489 73.3818 34.646Z" fill="#999999" stroke="#999999" stroke-width="0.18018"/>
<path d="M85.1884 24.8465L85.2199 24.7387L85.1077 24.7314L80.4697 24.4298L83.2089 16.2544H103.434L100.421 24.7312H96.0099H95.9414L95.9231 24.7972L90.6272 43.9003H79.6282L85.1884 24.8465Z" fill="#999999" stroke="#999999" stroke-width="0.18018"/>
<path d="M115.007 35.1323C116.115 36.0414 117.682 36.3531 119.52 35.7322C119.525 35.732 119.532 35.7318 119.54 35.7315C119.544 35.7313 119.548 35.7311 119.553 35.7309C119.584 35.7294 119.628 35.7264 119.685 35.7205C119.799 35.7087 119.962 35.6851 120.163 35.6383C120.564 35.5446 121.115 35.3577 121.719 34.9847C122.929 34.2375 124.34 32.7493 125.185 29.7927C125.608 28.3106 125.541 27.1858 125.154 26.3392C124.766 25.4921 124.064 24.9377 123.246 24.5838C121.615 23.8782 119.497 23.9582 118.373 24.1135C117.223 24.2724 115.946 25.1413 114.958 26.3884C113.97 27.6376 113.261 29.28 113.261 31.0047C113.261 32.7264 113.898 34.223 115.007 35.1323ZM113.941 16.8676L113.942 16.8674L113.97 16.8604C113.996 16.8542 114.033 16.845 114.083 16.8333C114.182 16.8099 114.328 16.7762 114.516 16.7352C114.892 16.6533 115.435 16.5425 116.102 16.4268C117.437 16.1953 119.268 15.9447 121.256 15.8676C123.244 15.7905 125.385 15.8872 127.341 16.3484C129.297 16.8097 131.061 17.6341 132.303 19.0071C137.297 24.5272 136.199 32.5131 130.903 38.6754C128.265 41.7455 124.232 43.4394 120.084 44.0944C115.937 44.7494 111.687 44.3634 108.626 43.2868C105.594 42.2203 103.788 39.0903 103.161 35.5109C102.535 31.9334 103.093 27.9371 104.758 25.1768C106.428 22.4078 108.725 20.3291 110.607 18.9419C111.548 18.2486 112.384 17.7287 112.985 17.3822C113.285 17.209 113.527 17.0792 113.693 16.9928C113.776 16.9496 113.84 16.9173 113.884 16.8958L113.933 16.8717L113.941 16.8676Z" fill="#999999" stroke="#999999" stroke-width="0.18018"/>
<path d="M160.614 16.8725L160.615 16.8725C163.802 17.0257 165.382 18.4012 166.17 19.7271C166.566 20.3926 166.764 21.0491 166.863 21.5395C166.913 21.7845 166.937 21.9877 166.95 22.1291C166.956 22.1998 166.959 22.255 166.96 22.2923C166.961 22.3109 166.961 22.3251 166.962 22.3344L166.962 22.3448L166.962 22.3472L166.962 22.3477V22.3477C166.962 22.3477 166.962 22.3478 166.962 22.3478C166.962 26.9564 165.088 29.4804 163.223 30.8549C162.288 31.5436 161.353 31.9455 160.652 32.1752C160.302 32.29 160.01 32.3616 159.806 32.4045C159.704 32.4259 159.625 32.4402 159.57 32.449C159.543 32.4535 159.523 32.4565 159.509 32.4585L159.494 32.4606L159.49 32.4611L159.489 32.4612L159.489 32.4612L159.381 32.4745L159.414 32.5779L163.013 43.9002H151.738L149.239 34.3828L149.156 34.0684L149.065 34.3805L146.287 43.9002H136.128L144.742 15.949L160.614 16.8725ZM150.463 29.4341L150.433 29.5419L150.545 29.5488L150.55 29.4588C150.545 29.5488 150.545 29.5488 150.545 29.5488L150.545 29.5488L150.546 29.5488L150.549 29.549L150.56 29.5496C150.57 29.5501 150.585 29.5507 150.604 29.5514C150.642 29.5527 150.697 29.5541 150.768 29.5544C150.91 29.555 151.113 29.5513 151.36 29.5342C151.855 29.5001 152.526 29.4123 153.233 29.1972C154.648 28.7671 156.219 27.8233 156.79 25.7729C157.074 24.7528 156.939 24.077 156.542 23.6532C156.15 23.2352 155.525 23.0888 154.888 23.0693C154.248 23.0496 153.576 23.1576 153.066 23.2694C152.81 23.3254 152.594 23.3827 152.442 23.4259C152.366 23.4476 152.305 23.4657 152.264 23.4785C152.243 23.4849 152.228 23.49 152.217 23.4935L152.204 23.4975L152.201 23.4985L152.2 23.4988L152.2 23.4989C152.2 23.4989 152.2 23.4989 152.228 23.5844L152.2 23.4989L152.155 23.5139L152.142 23.5597L150.463 29.4341Z" fill="#999999" stroke="#999999" stroke-width="0.18018"/>
<path d="M197.513 43.9L176.943 43.5968L232.159 16.9124L233.236 21.3787L197.513 43.9Z" fill="#999999" stroke="#999999" stroke-width="0.18018"/>
<path d="M212.049 14.1233L216.712 22.3102L210.161 25.6293L205.771 17.7439L212.049 14.1233Z" fill="#999999" stroke="#999999" stroke-width="0.18018"/>
<path d="M220.806 44.2112L215.281 34.4391L221.557 30.8198L228.989 44.5128L220.806 44.2112Z" fill="#999999" stroke="#999999" stroke-width="0.18018"/>
</svg>
