<svg width="400" height="400" viewBox="0 0 400 400" fill="none" xmlns="http://www.w3.org/2000/svg">
<rect width="400" height="400" fill="#FFE01B"/>
<g clip-path="url(#clip0_1070_33747)">
<path d="M246.529 156.448C248.165 156.236 249.822 156.236 251.458 156.448C252.339 154.415 252.494 150.92 251.698 147.111C250.513 141.446 248.916 138.02 245.608 138.553C242.299 139.086 242.173 143.187 243.358 148.864C244.028 152.037 245.213 154.758 246.529 156.448Z" fill="black"/>
<path d="M218.143 160.928C220.507 161.965 221.961 162.646 222.528 162.074C222.894 161.696 222.786 160.98 222.219 160.057C221.074 158.15 218.653 156.213 216.106 155.125C213.461 154.033 210.58 153.638 207.74 153.98C204.899 154.322 202.194 155.389 199.883 157.078C198.298 158.224 196.798 159.845 197.021 160.819C197.09 161.14 197.325 161.392 197.88 161.455C199.185 161.604 203.747 159.295 209.002 158.975C212.705 158.728 215.774 159.891 218.143 160.928Z" fill="black"/>
<path d="M213.381 163.643C210.301 164.13 208.601 165.15 207.508 166.095C206.581 166.908 206.003 167.813 206.008 168.444C206.002 168.551 206.019 168.658 206.06 168.757C206.101 168.856 206.163 168.945 206.243 169.016C206.382 169.143 206.564 169.213 206.752 169.211C207.528 169.096 208.285 168.884 209.008 168.581C212.171 167.391 215.587 167.036 218.928 167.55C220.473 167.728 221.217 167.825 221.549 167.292C221.634 167.138 221.671 166.961 221.655 166.785C221.638 166.61 221.57 166.443 221.458 166.307C220.736 165.127 217.628 163.139 213.381 163.643Z" fill="black"/>
<path d="M236.941 173.622C239.036 174.653 241.338 174.246 242.093 172.723C242.849 171.199 241.755 169.12 239.666 168.094C237.577 167.069 235.27 167.47 234.514 168.994C233.759 170.517 234.852 172.574 236.941 173.622Z" fill="black"/>
<path d="M250.393 161.862C248.676 161.833 247.285 163.7 247.245 166.032C247.205 168.363 248.55 170.277 250.25 170.305C251.95 170.334 253.364 168.466 253.404 166.135C253.444 163.803 252.093 161.89 250.393 161.862Z" fill="black"/>
<path d="M136.226 203.919C135.802 203.392 135.081 203.553 134.434 203.708C133.917 203.849 133.384 203.924 132.848 203.931C132.281 203.945 131.719 203.817 131.212 203.561C130.706 203.304 130.271 202.925 129.946 202.459C129.168 201.267 129.214 199.497 130.072 197.464C130.187 197.189 130.318 196.885 130.467 196.553C131.83 193.494 134.113 188.373 131.555 183.486C129.626 179.814 126.477 177.529 122.7 177.048C120.915 176.822 119.103 177.023 117.411 177.634C115.719 178.246 114.197 179.25 112.969 180.565C109.208 184.718 108.618 190.366 109.345 192.36C109.614 193.093 110.026 193.293 110.33 193.333C110.971 193.425 111.915 192.955 112.511 191.363C112.551 191.248 112.608 191.071 112.682 190.842C113.045 189.557 113.568 188.323 114.239 187.17C114.718 186.42 115.341 185.773 116.072 185.267C116.803 184.762 117.628 184.408 118.498 184.225C119.387 184.031 120.306 184.017 121.2 184.183C122.095 184.349 122.947 184.693 123.707 185.193C124.981 186.039 125.927 187.297 126.387 188.756C126.846 190.216 126.791 191.789 126.231 193.213C125.659 194.806 124.703 197.853 124.909 200.356C125.333 205.426 128.447 207.46 131.246 207.677C133.97 207.78 135.871 206.251 136.352 205.134C136.454 204.942 136.496 204.724 136.474 204.507C136.451 204.291 136.365 204.086 136.226 203.919Z" fill="black"/>
<path d="M293.285 194.65C293.182 194.283 292.506 191.786 291.567 188.841C291.036 187.117 290.407 185.425 289.684 183.772C293.399 178.198 293.468 173.214 292.97 170.396C292.443 166.896 290.989 163.917 288.058 160.835C285.128 157.753 279.123 154.597 270.691 152.243C269.73 151.973 266.547 151.097 266.267 151.017C266.267 150.833 266.038 140.58 265.843 136.174C265.706 132.995 265.431 128.029 263.891 123.131C262.054 116.509 258.86 110.718 254.864 107.006C265.9 95.5602 272.769 82.9749 272.769 72.1712C272.741 51.4 247.251 45.116 215.843 58.1366L209.186 60.9607C209.186 60.9607 197.165 49.1488 196.971 48.9884C161.149 17.7286 49.1741 142.281 84.9727 172.533L92.7975 179.166C90.686 184.832 89.9407 190.916 90.6224 196.924C91.4581 205.247 95.7454 213.227 102.7 219.397C109.306 225.251 117.984 228.957 126.41 228.946C140.342 261.076 172.202 280.782 209.495 281.893C249.529 283.085 283.136 264.284 297.217 230.515C298.139 228.144 302.048 217.466 302.048 208.037C302.048 198.608 296.696 194.65 293.285 194.65ZM129.489 219.935C128.264 220.141 127.022 220.229 125.78 220.199C113.691 219.872 100.628 208.977 99.3287 196.059C97.892 181.778 105.185 170.785 118.092 168.185C119.876 167.83 121.697 167.699 123.513 167.795C130.748 168.19 141.407 173.753 143.839 189.517C145.997 203.506 142.574 217.701 129.489 219.935ZM115.986 159.638C107.972 161.202 100.863 165.762 96.5239 172.057C93.9309 169.898 89.1112 165.716 88.2583 164.083C81.3436 150.942 95.8084 125.399 105.906 110.97C130.874 75.3161 169.976 48.3296 188.081 53.2217C191.023 54.058 200.766 65.3659 200.766 65.3659C200.766 65.3659 182.672 75.4135 165.894 89.4251C143.296 106.839 126.232 132.165 115.986 159.638ZM242.907 214.596C243.04 214.535 243.152 214.434 243.226 214.307C243.299 214.179 243.332 214.032 243.319 213.886C243.294 213.714 243.205 213.558 243.068 213.451C242.931 213.345 242.759 213.295 242.586 213.313C242.586 213.313 223.645 216.12 205.751 209.561C207.698 203.225 212.884 205.511 220.714 206.124C232.891 206.846 245.103 205.525 256.845 202.217C264.944 199.886 275.591 195.297 283.857 188.767C285.648 192.886 286.922 197.212 287.652 201.644C289.018 201.445 290.412 201.701 291.619 202.372C293.336 203.42 294.572 205.603 293.72 211.245C292.002 221.785 287.503 230.338 279.982 238.209C275.281 243.298 269.688 247.482 263.479 250.553C260.022 252.37 256.418 253.893 252.706 255.107C224.338 264.376 195.305 254.185 185.946 232.297C185.185 230.631 184.557 228.907 184.068 227.141C180.062 212.717 183.496 195.412 194.051 184.522C194.704 183.829 195.368 183.01 195.368 181.984C195.277 181.097 194.922 180.257 194.349 179.573C190.645 174.2 177.818 165.04 180.394 147.316C182.242 134.582 193.37 125.611 203.748 126.121L206.375 126.27C210.874 126.539 214.796 127.112 218.499 127.273C224.692 127.536 230.262 126.637 236.862 121.132C239.089 119.276 240.869 117.695 243.891 117.156C244.767 116.928 245.673 116.839 246.576 116.893C248.186 116.957 249.75 117.458 251.098 118.342C256.387 121.865 257.137 130.372 257.394 136.633C257.549 140.196 257.967 148.817 258.127 151.292C258.465 156.951 259.947 157.748 262.958 158.739C264.647 159.311 266.215 159.712 268.528 160.36C275.534 162.325 279.684 164.324 282.3 166.884C283.653 168.209 284.534 169.942 284.807 171.817C285.637 177.843 280.136 185.29 265.568 192.055C249.65 199.45 230.331 201.323 216.988 199.834L212.311 199.307C201.636 197.869 195.551 211.675 201.956 221.132C206.083 227.227 217.331 231.197 228.585 231.197C254.383 231.197 274.212 220.176 281.59 210.649C281.808 210.369 281.831 210.334 282.163 209.813C282.495 209.292 282.226 208.959 281.773 209.269C275.746 213.399 248.98 229.782 220.348 224.85C218.079 224.449 215.851 223.845 213.691 223.046C211.166 222.06 205.883 219.608 205.242 214.207C228.356 221.356 242.907 214.596 242.907 214.596ZM162.065 110.826C170.943 100.561 181.87 91.6363 191.659 86.6239C191.732 86.5846 191.816 86.5702 191.898 86.5828C191.98 86.5954 192.056 86.6343 192.114 86.6938C192.172 86.7532 192.209 86.8299 192.22 86.9124C192.231 86.9948 192.215 87.0785 192.174 87.1509C191.395 88.5601 189.884 91.579 189.426 93.8646C189.407 93.9431 189.411 94.0257 189.44 94.1013C189.469 94.177 189.52 94.242 189.587 94.2876C189.653 94.3332 189.733 94.3571 189.813 94.3563C189.894 94.3554 189.973 94.3298 190.039 94.2828C196.129 90.1297 206.719 85.6902 216.009 85.1173C216.096 85.114 216.181 85.138 216.253 85.186C216.325 85.2339 216.381 85.3035 216.411 85.3847C216.441 85.4658 216.446 85.5546 216.423 85.6382C216.4 85.7218 216.351 85.7962 216.284 85.8506C214.749 87.0345 213.375 88.4132 212.197 89.9521C212.154 90.0113 212.128 90.081 212.122 90.1538C212.116 90.2266 212.13 90.2997 212.162 90.3651C212.195 90.4306 212.244 90.4859 212.306 90.5252C212.368 90.5645 212.439 90.5862 212.512 90.588C219.031 90.6338 228.23 92.9194 234.223 96.282C234.63 96.5111 234.343 97.2959 233.891 97.1928C224.818 95.1134 209.97 93.5324 194.549 97.3016C180.811 100.658 170.273 105.848 162.609 111.428C162.527 111.47 162.434 111.484 162.344 111.466C162.254 111.449 162.172 111.401 162.113 111.332C162.053 111.262 162.019 111.174 162.015 111.082C162.012 110.991 162.039 110.9 162.094 110.826H162.065Z" fill="black"/>
<path d="M110.874 319.117C106.466 319.117 104.285 322.589 103.283 324.846C102.711 326.1 102.568 327.086 102.139 327.086C101.503 327.086 101.961 326.226 101.434 324.325C100.748 321.815 98.6755 319.169 94.2736 319.169C89.6428 319.169 87.6623 323.081 86.7235 325.235C86.0767 326.702 86.0767 327.114 85.5787 327.114C84.8632 327.114 85.4528 325.969 85.779 324.577C86.1643 323.014 86.215 321.388 85.9279 319.805H78.5724V347.421H88.5896V333.673C88.5896 330.964 89.7344 327.527 91.6634 327.527C93.9073 327.527 94.3595 329.245 94.3595 332.442V347.421H104.417V333.673C104.417 331.262 105.401 327.527 107.502 327.527C109.792 327.527 110.181 329.95 110.181 332.442V347.416H120.061V331.13C120.061 323.924 117.519 319.117 110.874 319.117Z" fill="black"/>
<path d="M280.897 319.117C276.489 319.117 274.314 322.589 273.312 324.846C272.74 326.1 272.597 327.086 272.168 327.086C271.526 327.086 271.956 325.997 271.464 324.325C270.731 321.827 268.905 319.169 264.297 319.169C259.689 319.169 257.686 323.081 256.747 325.235C256.106 326.702 256.106 327.114 255.602 327.114C254.887 327.114 255.482 325.969 255.802 324.577C256.188 323.014 256.241 321.389 255.957 319.805H248.601V347.421H258.619V333.673C258.619 330.964 259.763 327.527 261.692 327.527C263.936 327.527 264.383 329.245 264.383 332.442V347.421H274.44V333.673C274.44 331.262 275.425 327.527 277.531 327.527C279.821 327.527 280.21 329.95 280.21 332.442V347.416H290.084V331.13C290.084 323.924 287.548 319.117 280.897 319.117Z" fill="black"/>
<path d="M137.164 319.123C132.624 319.106 128.133 320.069 123.999 321.947V330.242C123.999 330.242 130.084 326.748 135.012 326.748C138.95 326.748 139.437 328.873 139.254 330.637C139.254 330.637 138.109 330.334 134.674 330.334C126.506 330.334 122.385 334.046 122.385 340.003C122.385 345.651 127.016 348.023 130.919 348.023C136.644 348.023 139.116 344.19 139.889 342.375C140.421 341.114 140.519 340.267 141 340.267C141.48 340.267 141.36 340.874 141.332 342.128C141.237 343.891 141.373 345.659 141.738 347.387H149.288V333.782C149.254 325.298 146.266 319.123 137.164 319.123ZM134.726 340.891C132.328 341.464 131.085 340.708 131.085 339.115C131.085 336.938 133.335 336.068 136.546 336.068C137.966 336.068 139.294 336.194 139.294 336.194C139.294 337.145 137.273 340.324 134.726 340.914V340.891Z" fill="black"/>
<path d="M175.774 311.396H165.756V347.376H175.774V311.396Z" fill="black"/>
<path d="M186.798 333.541C186.798 331.061 189.088 328.804 193.335 328.804C196.574 328.886 199.734 329.825 202.494 331.525V321.947C202.494 321.947 199.563 319.123 192.362 319.123C184.772 319.123 178.447 323.568 178.447 333.135C178.447 342.701 184.171 348.028 192.339 348.028C196.034 348.081 199.632 346.841 202.511 344.523V335.386C201.309 336.056 197.932 338.382 193.387 338.382C188.538 338.382 186.798 336.154 186.798 333.541Z" fill="black"/>
<path d="M222.78 319.123C216.981 319.123 214.766 324.622 214.331 325.579C213.896 326.536 213.667 327.08 213.301 327.068C212.665 327.068 213.106 325.923 213.352 325.149C214.324 322.026 214.816 318.774 214.812 315.503C214.812 312.421 214.394 311.39 214.394 311.39H205.745V347.376H215.762V333.628C215.762 331.393 216.655 327.481 219.197 327.481C221.286 327.481 221.939 329.028 221.939 332.15V347.37H231.956V332.757C231.939 325.671 230.765 319.123 222.78 319.123Z" fill="black"/>
<path d="M235.196 319.793V347.381H245.213V319.793C245.213 319.793 243.53 320.784 240.216 320.784C236.901 320.784 235.196 319.793 235.196 319.793Z" fill="black"/>
<path d="M240.176 319.123C243.561 319.123 246.306 317.33 246.306 315.119C246.306 312.907 243.561 311.115 240.176 311.115C236.79 311.115 234.045 312.907 234.045 315.119C234.045 317.33 236.79 319.123 240.176 319.123Z" fill="black"/>
<path d="M152.499 319.793V347.381H162.517V319.793C162.517 319.793 160.828 320.784 157.514 320.784C154.199 320.784 152.499 319.793 152.499 319.793Z" fill="black"/>
<path d="M157.474 319.123C160.859 319.123 163.604 317.33 163.604 315.119C163.604 312.907 160.859 311.115 157.474 311.115C154.088 311.115 151.343 312.907 151.343 315.119C151.343 317.33 154.088 319.123 157.474 319.123Z" fill="black"/>
<path d="M309.975 319.117C304.824 319.117 302.465 322.978 301.441 325.184C300.76 326.639 300.8 327.063 300.296 327.063C299.58 327.063 300.176 325.917 300.496 324.525C300.882 322.963 300.935 321.337 300.651 319.753H293.324V354.994H303.347V343.853C304.532 345.863 306.724 348.011 310.113 348.011C317.354 348.011 320.989 341.882 320.989 333.593C321 324.17 316.633 319.117 309.975 319.117ZM307.228 341.458C304.938 341.458 303.221 338.542 303.221 334.481C303.221 330.534 304.938 327.504 307.131 327.504C309.918 327.504 311.103 330.059 311.103 334.481C311.12 339.058 310.038 341.441 307.239 341.441L307.228 341.458Z" fill="black"/>
</g>
<defs>
<clipPath id="clip0_1070_33747">
<rect width="243" height="311" fill="white" transform="translate(78 44)"/>
</clipPath>
</defs>
</svg>
