<svg width="80" height="80" viewBox="0 0 80 80" fill="none" xmlns="http://www.w3.org/2000/svg">
<g clip-path="url(#clip0_2046_1656)">
<rect width="80" height="80" rx="4" fill="#4AB5B6"/>
<path d="M8.19995 39.7635C9.88948 40.5229 12.7982 38.9067 13.4125 38.4394C14.0365 37.9721 14.6125 36.6091 14.4109 35.5381L13.1533 34.2627C13.1533 34.2627 11.6846 33.6494 10.571 34.7203C9.45749 35.7913 9.12151 38.8386 8.19995 39.7635Z" fill="#FAF7F0"/>
<path d="M17.9341 32.8297L15.5918 30.4542C15.5534 30.4153 15.5534 30.3471 15.5918 30.3179L30.5671 16.4248C30.9031 16.1133 31.4215 16.123 31.7479 16.454C32.0743 16.7851 32.0839 17.3108 31.7767 17.6515L18.0781 32.8395C18.0301 32.8687 17.9725 32.8687 17.9341 32.8297Z" fill="#FAF7F0" stroke="#0B0033" stroke-miterlimit="10"/>
<path d="M17.9051 32.9667L14.4013 35.537L12.9133 34.0279L15.4476 30.4744C15.486 30.4257 15.5532 30.4159 15.5916 30.4646L17.9147 32.8207C17.9627 32.8596 17.9531 32.9278 17.9051 32.9667Z" fill="#F4D06F" stroke="#0B0033" stroke-miterlimit="10"/>
<path d="M11.3294 39.4903C9.97588 40.0161 8.60313 40.1816 8.19995 39.7629C9.3423 38.6043 8.89112 36.4235 10.571 34.71C11.2718 33.9993 12.3086 33.8533 13.1533 34.2524L14.2381 35.3526C14.5357 35.9951 14.5261 36.7448 14.2093 37.3874" stroke="#0B0033" stroke-miterlimit="10"/>
<path d="M73.1078 65.2002H49.4294C48.8632 65.2002 48.3999 64.737 48.3999 64.1707V48.8313C48.3999 48.265 48.8632 47.8018 49.4294 47.8018H73.1078C73.674 47.8018 74.1373 48.265 74.1373 48.8313V64.1707C74.1373 64.737 73.674 65.2002 73.1078 65.2002Z" fill="#FAF7F0"/>
<path d="M53.4238 47.79H49.4294C48.8632 47.79 48.3999 48.2533 48.3999 48.8195V64.159C48.3999 64.7252 48.8632 65.1885 49.4294 65.1885H53.4238" fill="#0B0033"/>
<path d="M53.4238 47.79H49.4294C48.8632 47.79 48.3999 48.2533 48.3999 48.8195V64.159C48.3999 64.7252 48.8632 65.1885 49.4294 65.1885H53.4238" stroke="#0B0033" stroke-miterlimit="10"/>
<path d="M74.1373 63.4913V64.1707C74.1373 64.737 73.674 65.2002 73.1078 65.2002H51.9414C51.3751 65.2002 50.9119 64.737 50.9119 64.1707V48.8313C50.9119 48.265 51.3751 47.8018 51.9414 47.8018H73.1078C73.674 47.8018 74.1373 48.265 74.1373 48.8313V59.0542" fill="#FAF7F0" stroke="#0B0033" stroke-miterlimit="10"/>
<path d="M65.9636 63.4911C69.8128 63.4911 72.9333 60.3707 72.9333 56.5215C72.9333 52.6722 69.8128 49.5518 65.9636 49.5518C62.1143 49.5518 58.9939 52.6722 58.9939 56.5215C58.9939 60.3707 62.1143 63.4911 65.9636 63.4911Z" fill="#F4D06F" stroke="#0B0033" stroke-miterlimit="10"/>
<path d="M54.5153 46.1328H52.9402C52.5284 46.1328 52.199 46.4622 52.199 46.874V47.8006H55.2463V46.874C55.2463 46.4622 54.9168 46.1328 54.5153 46.1328Z" fill="#0B0033" stroke="#0B0033" stroke-width="0.514748" stroke-miterlimit="10"/>
<path d="M67.5284 44.7432H63.1736C62.803 44.7432 62.4632 44.9388 62.2779 45.2682L60.8469 47.7905H69.855L68.424 45.2682C68.2387 44.9491 67.899 44.7432 67.5284 44.7432Z" fill="#F4D06F" stroke="#0B0033" stroke-miterlimit="10"/>
<path d="M63.1737 44.7432H61.3206C60.9499 44.7432 60.6102 44.9388 60.4249 45.2682L58.9939 47.7905H62.8442" stroke="#0B0033" stroke-miterlimit="10"/>
<path d="M65.9635 61.2152C68.5562 61.2152 70.658 59.1134 70.658 56.5207C70.658 53.928 68.5562 51.8262 65.9635 51.8262C63.3708 51.8262 61.269 53.928 61.269 56.5207C61.269 59.1134 63.3708 61.2152 65.9635 61.2152Z" fill="#F5F5FA" stroke="#0B0033" stroke-miterlimit="10"/>
<path d="M30.992 52.935L33.7079 53.4232C34.0333 53.4857 34.2711 53.7611 34.2711 54.099V66.2392H30.1784C28.3386 66.2392 26.8493 67.7286 26.8493 69.5684C26.8493 72.3469 29.1021 74.5997 31.8806 74.5997C34.659 74.5997 36.9119 72.3469 36.9119 69.5684V48.5671L14.8092 44.5996V63.4107H10.7291C8.88927 63.4107 7.3999 64.9 7.3999 66.7398C7.3999 69.5183 9.65272 71.7711 12.4312 71.7711C15.2097 71.7711 17.4625 69.5183 17.4625 66.7398V50.4945L27.4375 52.2342" fill="#FAF7F0" stroke="#0B0033" stroke-miterlimit="10" stroke-linejoin="round"/>
<g clip-path="url(#clip1_2046_1656)">
<path d="M65.6022 18.8537C65.4499 19.1964 64.1425 20.7418 63.5078 21.4717H62.175C62.413 21.1385 63.0604 20.2531 63.7458 19.3773C64.6026 18.2825 64.793 16.5689 64.3646 15.6169C63.9362 14.6649 63.5078 14.5221 62.6034 13.7129C64.317 13.7605 65.3166 14.6173 65.8402 15.7597C66.3638 16.9021 65.7926 18.4253 65.6022 18.8537Z" fill="#0B0033"/>
<path d="M66.0786 21.5186H64.6506V23.7082H66.0786V21.5186Z" fill="#0B0033"/>
<path d="M63.2221 14.3801C62.0797 13.5709 60.5089 13.1425 58.1289 14.6657V16.9505L58.3669 17.1409C58.9698 16.6967 60.3756 15.9224 61.1753 16.3793C62.1749 16.9505 61.7941 17.9977 61.1753 19.0449C60.6803 19.8827 58.9381 21.7423 58.1289 22.5673V23.7097H64.6501V21.5677L62.1273 21.4249C62.6826 20.8855 63.9171 19.5019 64.4121 18.2833C65.0309 16.7601 64.3645 15.1893 63.2221 14.3801Z" fill="#F4D06F" stroke="#0B0033" stroke-width="0.2"/>
<path d="M70.4101 28.6593C70.4577 27.2789 68.5537 26.2793 67.0781 26.0889V26.5173C67.5541 26.6918 68.5537 27.4026 68.7441 28.8497C68.9821 30.6585 67.8397 30.8489 67.0781 31.1821C67.5065 31.1821 68.6013 31.8485 68.7441 33.2289C68.8869 34.6093 67.6969 35.7041 66.6497 36.1801C68.4585 36.5609 70.4101 34.6569 70.4101 33.6573C70.4101 32.6577 69.8865 31.5629 69.3629 31.1821C69.9341 30.8489 70.3625 30.0397 70.4101 28.6593Z" fill="#0B0033"/>
<path d="M66.0785 26.1372C65.4121 26.042 63.7937 25.9468 62.7941 26.9464L62.8417 29.0408C63.1115 28.8504 63.8318 28.4791 64.5553 28.5172C65.4597 28.5648 66.0309 28.9932 66.0309 29.4692C66.0309 29.85 65.7453 30.0721 65.6025 30.1356H63.7461V31.992C63.7779 32.0396 63.9461 32.1348 64.3649 32.1348C64.8885 32.1348 66.0309 32.1824 66.0309 32.8964C66.0309 33.6104 65.2693 33.9436 64.3649 33.896C63.6414 33.8579 63.048 33.5311 62.8417 33.3724H62.5085V35.5144C62.8417 36.0856 64.2697 36.3712 64.8885 36.3712C65.5073 36.3712 68.7917 35.9428 68.7917 33.8008C68.7917 31.6588 67.5065 31.3256 67.2209 31.1828C67.5541 31.04 68.7917 30.564 68.7917 28.8504C68.7917 27.1368 66.7449 26.2324 66.0785 26.1372Z" fill="#FAF7F0" stroke="#0B0033" stroke-width="0.2"/>
<path d="M52.0842 26.8047C51.8304 26.9316 51.1798 27.2426 50.6086 27.4711V30.9935H52.0842V26.8047Z" fill="#0B0033"/>
<path d="M48.3711 27.6125H49.9419V24.6137C50.6559 24.6137 52.8931 23.4237 52.8931 22.6621H51.3223C51.2271 23.0429 49.2279 24.6137 48.3711 24.6137V27.6125Z" fill="#0B0033"/>
<path d="M49.8467 33.7523H48.3235V31.0391H49.8467V33.7523Z" fill="#0B0033"/>
<path d="M52.8931 22.7574C52.6551 23.3762 50.8463 24.471 49.9895 24.709V27.6125C50.5226 27.6125 51.6713 27.0731 52.1791 26.8033V30.9445H49.8467V33.7053H57.4627V30.9445H55.7015H55.2731V22.7574C54.7495 22.7415 53.5404 22.7193 52.8931 22.7574Z" fill="#FAF7F0"/>
<path fill-rule="evenodd" clip-rule="evenodd" d="M55.0919 22.4248C55.3285 22.4248 55.5203 22.6166 55.5203 22.8532V30.7556H57.3255C57.5621 30.7556 57.7539 30.9474 57.7539 31.184V33.5252C57.7539 33.7618 57.5621 33.9536 57.3255 33.9536H50.0459C50.0228 33.9536 50.0001 33.9518 49.978 33.9482V33.9536H48.5138C48.2773 33.9536 48.0854 33.7618 48.0854 33.5252V31.184C48.0854 30.9474 48.2773 30.7556 48.5138 30.7556H50.4183V27.7938C50.362 27.8131 50.3062 27.8315 50.2509 27.849C50.1734 27.8737 50.0964 27.8751 50.0257 27.8581H48.5966C48.36 27.8581 48.1682 27.6663 48.1682 27.4297V24.7778C48.1682 24.5944 48.2841 24.4354 48.4506 24.3735C48.8756 24.2155 49.345 23.9896 49.8593 23.6938C50.3806 23.3939 50.8183 23.0243 51.1747 22.5855C51.2553 22.4863 51.3775 22.4248 51.5103 22.4248H55.0919ZM52.425 22.9008H51.5318C51.1389 23.3807 50.6598 23.7824 50.0966 24.1064C49.5763 24.4057 49.092 24.6406 48.6442 24.8093V27.3821H49.7002V24.7778C49.7002 24.5944 49.8161 24.4354 49.9826 24.3735C50.4077 24.2155 50.877 23.9896 51.3914 23.6938C51.7827 23.4686 52.1269 23.2043 52.425 22.9008ZM50.8943 27.6169V30.7556H51.9504V27.0914C51.7112 27.2474 51.4519 27.3837 51.173 27.5009C51.0788 27.5415 50.9859 27.5802 50.8943 27.6169ZM49.6175 31.2316H48.5614V33.4776H49.6175V31.2316ZM53.0639 22.9008C52.671 23.3807 52.1919 23.7824 51.6287 24.1064C51.1084 24.4057 50.624 24.6406 50.1762 24.8093V27.3729C50.4311 27.2892 50.7008 27.1861 50.9856 27.0633L50.9867 27.0629L50.9877 27.0624C51.259 26.9486 51.5069 26.816 51.7319 26.6653C52.0065 26.4813 52.4264 26.6542 52.4264 27.026V30.8032C52.4264 31.0398 52.2346 31.2316 51.998 31.2316H50.0935V33.4776H57.2779V31.2316H55.4727C55.2361 31.2316 55.0443 31.0398 55.0443 30.8032V22.9008H53.0639Z" fill="#0B0033" stroke="#0B0033" stroke-width="0.4"/>
<path fill-rule="evenodd" clip-rule="evenodd" d="M58.2245 23.9451C57.9879 23.9451 57.7961 23.7533 57.7961 23.5167V22.6749C57.7961 22.5642 57.839 22.4581 57.9151 22.3786C58.7652 21.4898 59.4602 20.7422 60.0008 20.1353C60.5502 19.5184 60.9475 19.0013 61.1992 18.5821C61.4495 18.1553 61.5597 17.7992 61.5597 17.5073C61.5597 17.1925 61.4627 16.9615 61.283 16.7893L61.2811 16.7876L61.2793 16.7858C61.0985 16.6049 60.852 16.5054 60.514 16.5054C60.1522 16.5054 59.7674 16.6086 59.3569 16.8275L59.356 16.828L59.3552 16.8284C59.1095 16.9568 58.8913 17.1028 58.6997 17.2659C58.5542 17.3898 58.3656 17.3965 58.2226 17.3384C58.0778 17.2795 57.942 17.1371 57.942 16.9324V14.7652C57.942 14.6413 57.9959 14.518 58.0993 14.4354C58.4477 14.1573 58.8846 13.9357 59.4031 13.7659C59.971 13.5734 60.5458 13.4766 61.1267 13.4766C61.1538 13.4766 61.1808 13.4768 61.2077 13.4771V13.4766H62.5493C63.2698 13.4766 63.9108 13.6136 64.4654 13.896C65.0254 14.1761 65.4675 14.5638 65.7842 15.0599C66.1026 15.5588 66.2592 16.1292 66.2592 16.7634C66.2592 17.2674 66.1989 17.7238 66.0742 18.1297C65.9602 18.5228 65.7847 18.8987 65.5491 19.2573C65.3183 19.6084 65.0342 19.9769 64.6981 20.3624C64.458 20.6378 64.1923 20.9439 63.9009 21.2809H65.9037C66.1403 21.2809 66.3321 21.4727 66.3321 21.7093V23.5167C66.3321 23.7533 66.1403 23.9451 65.9037 23.9451H58.2245ZM59.5548 14.2171C60.0757 14.0404 60.5994 13.9526 61.1267 13.9526C61.7869 13.9526 62.3515 14.078 62.8275 14.3205L62.8283 14.3209L62.8291 14.3213C63.3191 14.5663 63.6936 14.8981 63.9603 15.316C64.2254 15.7312 64.3606 16.2111 64.3606 16.7634C64.3606 17.231 64.3044 17.6395 64.196 17.9917L64.1954 17.9936L64.1949 17.9955C64.0949 18.3409 63.94 18.6742 63.7286 18.9959C63.512 19.3254 63.2418 19.6767 62.9166 20.0496C62.6575 20.3469 62.3685 20.6799 62.0499 21.0486C61.8099 21.3262 62.0074 21.7569 62.3739 21.7569H64.4335V23.4691H58.2721V22.6939C59.1185 21.8089 59.8134 21.0614 60.3562 20.4519C60.9151 19.8244 61.3345 19.2818 61.608 18.826L61.6085 18.825L61.6091 18.824C61.8835 18.3565 62.0357 17.9154 62.0357 17.5073C62.0357 17.084 61.9 16.7223 61.6141 16.4474C61.3284 16.1627 60.9531 16.0294 60.514 16.0294C60.0593 16.0294 59.5983 16.1594 59.1338 16.407C58.8707 16.5446 58.6318 16.7024 58.418 16.8808V14.7903C58.7089 14.5632 59.0849 14.3709 59.5523 14.2179L59.5536 14.2175L59.5548 14.2171ZM64.9095 23.4691H65.8561V21.7569H64.9095V23.4691ZM63.2719 21.2809C63.6709 20.8186 64.0268 20.4081 64.3393 20.0496C64.6644 19.6767 64.9347 19.3254 65.1513 18.9959C65.3626 18.6742 65.5176 18.3409 65.6175 17.9955L65.6181 17.9936L65.6187 17.9917C65.727 17.6395 65.7832 17.231 65.7832 16.7634C65.7832 16.2111 65.648 15.7312 65.3829 15.316C65.1163 14.8981 64.7417 14.5663 64.2518 14.3213L64.251 14.3209L64.2502 14.3205C63.9502 14.1677 63.6151 14.0614 63.2431 14.0036C63.7091 14.2726 64.0836 14.6245 64.3615 15.0599C64.68 15.5588 64.8366 16.1292 64.8366 16.7634C64.8366 17.2674 64.7762 17.7238 64.6516 18.1297C64.5376 18.5228 64.362 18.8987 64.1264 19.2573C63.8957 19.6084 63.6116 19.9769 63.2754 20.3624C63.0354 20.6377 62.7697 20.9439 62.4783 21.2809H63.2719Z" fill="#0B0033" stroke="#0B0033" stroke-width="0.4"/>
<path fill-rule="evenodd" clip-rule="evenodd" d="M65.0787 25.877C64.5215 25.877 64.0282 25.9579 63.6045 26.1274L63.6035 26.1278L63.6025 26.1282C63.2341 26.2793 62.9157 26.4678 62.6513 26.6962C62.5555 26.7789 62.5067 26.8972 62.5067 27.0152V28.8384C62.5067 29.0296 62.6261 29.1702 62.7643 29.2339C62.9006 29.2967 63.0779 29.2965 63.2234 29.1925C63.6298 28.9021 64.0664 28.7599 64.5389 28.7599C64.8823 28.7599 65.1888 28.8344 65.463 28.9801L65.4656 28.9815L65.4682 28.9828C65.5899 29.0436 65.6699 29.1183 65.721 29.2029C65.7724 29.288 65.8035 29.398 65.8035 29.543C65.8035 29.7219 65.7522 29.7871 65.7047 29.8175C65.6057 29.8686 65.4559 29.9031 65.2391 29.9031H63.9562C63.7196 29.9031 63.5278 30.0949 63.5278 30.3315V31.9346C63.5278 32.1712 63.7196 32.363 63.9562 32.363H64.4952C64.746 32.363 64.9809 32.3816 65.2 32.4182L65.2054 32.419L65.2108 32.4197C65.4233 32.4452 65.5719 32.5064 65.674 32.588L65.6779 32.5912L65.6819 32.5941C65.7521 32.6456 65.8035 32.7303 65.8035 32.8982C65.8035 33.1788 65.6981 33.358 65.4891 33.4774C65.2402 33.6094 64.9267 33.6813 64.5389 33.6813C64.2046 33.6813 63.8855 33.6319 63.5805 33.5337C63.3716 33.4575 63.1587 33.3587 62.942 33.2367C62.6629 33.0796 62.2878 33.2673 62.2878 33.6129V35.5454C62.2878 35.6782 62.3499 35.8112 62.469 35.8926C62.7578 36.0899 63.1173 36.246 63.5406 36.3657L63.5419 36.366C64.0197 36.4982 64.5079 36.5643 65.0057 36.5643C65.0548 36.5643 65.1036 36.5637 65.1523 36.5625V36.5643H66.5378C67.2568 36.5643 67.9252 36.4376 68.5403 36.1813L68.5419 36.1806L68.5434 36.18C69.1577 35.9138 69.6576 35.5464 70.035 35.0745L70.0358 35.0735L70.0366 35.0725C70.421 34.5814 70.6123 34.0089 70.6123 33.365C70.6123 32.6551 70.4458 32.1514 70.2079 31.777C70.0511 31.5302 69.8675 31.347 69.6976 31.2034C69.8683 31.0579 70.0529 30.8706 70.2103 30.6125C70.4476 30.2232 70.6123 29.6924 70.6123 28.9304C70.6123 28.327 70.4366 27.7895 70.0826 27.3278C69.7324 26.8613 69.2487 26.5069 68.6428 26.2601C68.0445 26.0026 67.3656 25.877 66.6107 25.877H65.207V25.8782C65.1644 25.8774 65.1217 25.877 65.0787 25.877ZM62.9827 27.0392C63.1982 26.8573 63.4635 26.6998 63.7822 26.5689C64.1363 26.4275 64.5665 26.353 65.0787 26.353C65.7816 26.353 66.3953 26.4701 66.9246 26.6982L66.9269 26.6992L66.9291 26.7001C67.4693 26.9198 67.8793 27.2262 68.1705 27.6144L68.1713 27.6155L68.1721 27.6165C68.4594 27.9909 68.6043 28.4255 68.6043 28.9304C68.6043 29.5341 68.4346 29.9907 68.1164 30.3262C67.7836 30.6674 67.3842 30.8713 66.911 30.9414L66.9025 31.4109C67.3848 31.5002 67.7897 31.7038 68.1243 32.0207C68.4333 32.3134 68.6043 32.7485 68.6043 33.365C68.6043 33.9071 68.4458 34.3749 68.1305 34.7782C67.8081 35.1808 67.3751 35.5033 66.8236 35.7425C66.2721 35.9721 65.6671 36.0883 65.0057 36.0883C64.5508 36.0883 64.1055 36.028 63.6694 35.9074C63.295 35.8016 62.9952 35.6701 62.7638 35.5172V33.6822C62.9838 33.8027 63.2032 33.903 63.4219 33.9825L63.4259 33.984L63.4299 33.9853C63.7851 34.1002 64.1551 34.1573 64.5389 34.1573C64.9861 34.1573 65.3817 34.0741 65.7158 33.8959L65.7185 33.8945L65.7212 33.893C66.0939 33.6817 66.2795 33.3361 66.2795 32.8982C66.2795 32.6205 66.1861 32.3758 65.9675 32.2133C65.7797 32.0645 65.5426 31.9808 65.273 31.9477C65.0269 31.9071 64.7675 31.887 64.4952 31.887H64.0038V30.3791H65.2391C65.5043 30.3791 65.7419 30.3372 65.9346 30.2344L65.9399 30.2316L65.9451 30.2285C66.1881 30.0827 66.2795 29.8253 66.2795 29.543C66.2795 29.3283 66.2327 29.1295 66.1285 28.9569C66.0245 28.7846 65.872 28.653 65.6838 28.5584C65.3363 28.3743 64.9531 28.2839 64.5389 28.2839C63.977 28.2839 63.4565 28.4511 62.9827 28.7799V27.0392ZM67.4454 26.4138C67.897 26.6468 68.2674 26.9506 68.5505 27.3278C68.9045 27.7895 69.0803 28.327 69.0803 28.9304C69.0803 29.6291 68.8807 30.2128 68.4605 30.6552L68.4595 30.6562L68.4584 30.6573C68.2425 30.8789 68.0015 31.0541 67.7364 31.1825C67.9981 31.3075 68.2369 31.4716 68.4516 31.6751C68.8817 32.0826 69.0803 32.6589 69.0803 33.365C69.0803 34.0088 68.8889 34.5814 68.5045 35.0725L68.5038 35.0735L68.503 35.0745C68.1922 35.463 67.7984 35.7807 67.3261 36.0294C67.6882 35.9734 68.0312 35.8776 68.3557 35.7425C68.9072 35.5033 69.3402 35.1808 69.6625 34.7782C69.9778 34.3749 70.1363 33.9071 70.1363 33.365C70.1363 32.7343 69.9899 32.3214 69.8062 32.0323C69.6202 31.7397 69.3859 31.5563 69.1703 31.3935L68.9189 31.2036L69.1703 31.0137C69.3851 30.8515 69.6182 30.6691 69.8039 30.3647C69.9881 30.0625 70.1363 29.6208 70.1363 28.9304C70.1363 28.4255 69.9914 27.9909 69.7041 27.6165L69.7033 27.6155L69.7026 27.6144C69.4114 27.2262 69.0014 26.9199 68.4612 26.7001L68.4589 26.6992L68.4567 26.6982C68.1485 26.5654 67.8118 26.4702 67.4454 26.4138Z" fill="#0B0033" stroke="#0B0033" stroke-width="0.4"/>
</g>
<path d="M64.9999 6.0002C65.7731 6.0002 66.3999 5.37339 66.3999 4.6002C66.3999 3.827 65.7731 3.2002 64.9999 3.2002C64.2267 3.2002 63.5999 3.827 63.5999 4.6002C63.5999 5.37339 64.2267 6.0002 64.9999 6.0002Z" fill="#FF5959"/>
<path d="M70.1998 6.0002C70.973 6.0002 71.5998 5.37339 71.5998 4.6002C71.5998 3.827 70.973 3.2002 70.1998 3.2002C69.4266 3.2002 68.7998 3.827 68.7998 4.6002C68.7998 5.37339 69.4266 6.0002 70.1998 6.0002Z" fill="#FFC500"/>
<path d="M75.4 6.0002C76.1732 6.0002 76.8 5.37339 76.8 4.6002C76.8 3.827 76.1732 3.2002 75.4 3.2002C74.6268 3.2002 74 3.827 74 4.6002C74 5.37339 74.6268 6.0002 75.4 6.0002Z" fill="#2DD752"/>
<path d="M0 9.19922L80.2 9.19923" stroke="#0B0033" stroke-width="1.2"/>
</g>
<defs>
<clipPath id="clip0_2046_1656">
<rect width="80" height="80" rx="4" fill="white"/>
</clipPath>
<clipPath id="clip1_2046_1656">
<rect width="23.8" height="23.8" fill="white" transform="translate(47.7998 12.999)"/>
</clipPath>
</defs>
</svg>
