<svg width="65" height="64" viewBox="0 0 65 64" fill="none" xmlns="http://www.w3.org/2000/svg">
<rect x="0.666656" width="64" height="64" rx="32" fill="#FDE2B1" fill-opacity="0.3"/>
<path d="M29.3769 15.791L36.4499 16.4341L40.308 17.7201L46.2558 23.1053L49.1494 32.7504L46.2558 40.7881L40.308 46.1733L32.2704 48.0219L24.3935 46.1733L18.1241 48.0219L18.9279 42.476L16.4362 34.6795L16.9989 28.3297L21.6607 20.2117L29.3769 15.791Z" fill="#FDE2B1"/>
<path fill-rule="evenodd" clip-rule="evenodd" d="M32.6667 16.9419C24.3503 16.9419 17.6085 23.6836 17.6085 32C17.6085 34.2593 18.1058 36.3993 18.9954 38.3196C19.0398 38.4155 19.0852 38.5126 19.1312 38.6107C19.8278 40.0985 20.6454 41.8445 20.0103 44.0545C19.8793 44.5103 19.6632 44.9752 19.4975 45.3317C19.4611 45.4098 19.4272 45.4827 19.3972 45.5492C19.2004 45.9846 19.1029 46.2677 19.0836 46.5028C19.0619 46.767 19.2946 46.9811 19.5561 46.9375C20.1783 46.8339 20.6249 46.6057 21.2207 46.3013C21.4299 46.1944 21.6576 46.0781 21.9176 45.9545C22.8885 45.4931 24.0576 45.1088 25.6621 45.4861L25.3826 46.6746L25.6621 45.4861C25.9988 45.5653 26.7331 45.828 27.9441 46.2614C28.0131 46.286 28.0835 46.3112 28.1555 46.337C29.484 46.8122 30.9334 47.0581 32.6667 47.0581C40.983 47.0581 47.7248 40.3164 47.7248 32C47.7248 23.6836 40.983 16.9419 32.6667 16.9419ZM15.1667 32C15.1667 22.335 23.0017 14.5 32.6667 14.5C42.3316 14.5 50.1667 22.335 50.1667 32C50.1667 41.665 42.3316 49.5 32.6667 49.5C30.6903 49.5 28.9585 49.2176 27.3331 48.6362L27.7443 47.4866L27.3331 48.6362C25.8789 48.116 25.2829 47.9054 25.1031 47.8631C24.2366 47.6593 23.6577 47.8312 22.9658 48.16C22.8352 48.2221 22.6891 48.2975 22.529 48.3802C21.8775 48.7166 20.9921 49.1738 19.9574 49.3462L19.7568 48.1419L19.9574 49.3462C18.1269 49.6512 16.4981 48.1525 16.65 46.3029C16.7066 45.6139 16.9666 44.9979 17.1721 44.5433C17.2256 44.4251 17.2752 44.3176 17.3211 44.2182C17.477 43.8806 17.5898 43.6363 17.6634 43.38C18.0407 42.0672 17.5961 41.1078 16.8176 39.4278L16.7797 39.346L17.8875 38.8328L16.7797 39.346C15.7443 37.1108 15.1667 34.6212 15.1667 32ZM24.9341 28.7442C24.9341 28.0699 25.4807 27.5233 26.155 27.5233H39.1783C39.8526 27.5233 40.3992 28.0699 40.3992 28.7442C40.3992 29.4185 39.8526 29.9651 39.1783 29.9651H26.155C25.4807 29.9651 24.9341 29.4185 24.9341 28.7442ZM24.9341 35.2558C24.9341 34.5815 25.4807 34.0349 26.155 34.0349H32.6667C33.341 34.0349 33.8876 34.5815 33.8876 35.2558C33.8876 35.9301 33.341 36.4767 32.6667 36.4767H26.155C25.4807 36.4767 24.9341 35.9301 24.9341 35.2558Z" fill="#22272F"/>
</svg>
