<svg width="65" height="64" viewBox="0 0 65 64" fill="none" xmlns="http://www.w3.org/2000/svg">
<rect x="0.333313" width="64" height="64" rx="32" fill="#A2E1A4" fill-opacity="0.3"/>
<path d="M28.4911 16.4341H36.1165L40.5055 16.9291L47.8425 18.2131L48.816 32.7504V40.5911L46.6502 46.1733L31.937 48.0219L24.0601 46.1733L22.5297 47.1944L16.1029 42.9756V34.6795L15.5595 27.6595L17.7908 17.7201L28.4911 16.4341Z" fill="#A2E1A4"/>
<path fill-rule="evenodd" clip-rule="evenodd" d="M26.3494 15.6035L26.4049 15.6035H38.5132L38.5687 15.6035C40.4054 15.6035 41.8609 15.6035 43.0341 15.6994C44.2338 15.7974 45.2489 16.0019 46.1758 16.4742C47.6789 17.24 48.9009 18.462 49.6668 19.9651C50.139 20.892 50.3436 21.9071 50.4416 23.1069C50.5374 24.28 50.5374 25.7355 50.5374 27.5722V27.6277V36.3726V36.4281C50.5374 38.2648 50.5374 39.7203 50.4416 40.8935C50.3436 42.0932 50.139 43.1083 49.6668 44.0352C48.9009 45.5383 47.6789 46.7603 46.1758 47.5262C45.2489 47.9985 44.2338 48.203 43.0341 48.301C41.8609 48.3969 40.4054 48.3968 38.5687 48.3968H38.5132H26.4049H26.3494C24.5127 48.3968 23.0572 48.3969 21.884 48.301C20.6843 48.203 19.6692 47.9985 18.7423 47.5262C17.2392 46.7603 16.0172 45.5383 15.2513 44.0352C14.779 43.1083 14.5745 42.0932 14.4765 40.8935C14.3807 39.7203 14.3807 38.2648 14.3807 36.4281L14.3807 36.3726V27.6277L14.3807 27.5722C14.3807 25.7356 14.3807 24.28 14.4765 23.1069C14.5745 21.9071 14.779 20.892 15.2513 19.9651C16.0172 18.462 17.2392 17.24 18.7423 16.4742C19.6692 16.0019 20.6843 15.7974 21.884 15.6994C23.0572 15.6035 24.5127 15.6035 26.3494 15.6035ZM22.0894 18.2135C21.0457 18.2988 20.3995 18.4609 19.8875 18.7218C18.8591 19.2458 18.023 20.0819 17.4989 21.1103C17.2381 21.6224 17.076 22.2686 16.9907 23.3123C16.9727 23.5321 16.9585 23.7646 16.9471 24.0121H47.971C47.9596 23.7646 47.9454 23.5321 47.9274 23.3123C47.8421 22.2686 47.68 21.6224 47.4191 21.1103C46.8951 20.0819 46.059 19.2458 45.0306 18.7218C44.5186 18.4609 43.8724 18.2988 42.8287 18.2135C41.7702 18.1271 40.4177 18.1261 38.5132 18.1261H26.4049C24.5004 18.1261 23.1479 18.1271 22.0894 18.2135ZM48.014 26.5346H16.9041C16.9033 26.8777 16.9032 27.2414 16.9032 27.6277V36.3726C16.9032 38.2771 16.9042 39.6296 16.9907 40.6881C17.076 41.7318 17.2381 42.378 17.4989 42.89C18.023 43.9184 18.8591 44.7546 19.8875 45.2786C20.3995 45.5395 21.0457 45.7015 22.0894 45.7868C23.1479 45.8733 24.5004 45.8743 26.4049 45.8743H38.5132C40.4177 45.8743 41.7702 45.8733 42.8287 45.7868C43.8724 45.7015 44.5186 45.5395 45.0306 45.2786C46.059 44.7546 46.8951 43.9184 47.4191 42.89C47.68 42.378 47.8421 41.7318 47.9274 40.6881C48.0139 39.6296 48.0149 38.2771 48.0149 36.3726V27.6277C48.0149 27.2414 48.0148 26.8777 48.014 26.5346ZM21.1073 32.0002C21.1073 31.3036 21.672 30.7389 22.3686 30.7389H29.0954C29.792 30.7389 30.3567 31.3036 30.3567 32.0002C30.3567 32.6968 29.792 33.2615 29.0954 33.2615H22.3686C21.672 33.2615 21.1073 32.6968 21.1073 32.0002Z" fill="#22272F"/>
</svg>
