<svg width="64" height="64" viewBox="0 0 64 64" fill="none" xmlns="http://www.w3.org/2000/svg">
<rect width="64" height="64" rx="32" fill="#A7D9F5" fill-opacity="0.5"/>
<path d="M21.4788 25.8625L40.3408 24.6758L46.0871 28.8604L46.8991 43.2881L43.8386 46.9731L21.916 48.1598L17.1692 43.2881L16.6696 34.4816L18.6681 28.2983L21.4788 25.8625Z" fill="#A7D9F5"/>
<path fill-rule="evenodd" clip-rule="evenodd" d="M31.6191 14.3589L31.6718 14.3589H32.3282L32.3809 14.3589C33.7148 14.3589 34.7907 14.3589 35.6619 14.43C36.5589 14.5033 37.3469 14.6582 38.0758 15.0296C39.2338 15.6196 40.1752 16.561 40.7652 17.7189C41.1366 18.4479 41.2914 19.2358 41.3647 20.1329C41.4359 21.0041 41.4359 22.08 41.4359 23.4139V23.4666V24.3798C42.2866 24.4963 43.0412 24.6966 43.7439 25.0546C45.2106 25.802 46.4031 26.9944 47.1504 28.4611C47.6113 29.3656 47.8108 30.3562 47.9065 31.5269C48 32.6717 48 34.092 48 35.8842V35.9384V37.9076V37.9618C48 39.754 48 41.1743 47.9065 42.3191C47.8108 43.4898 47.6113 44.4804 47.1504 45.3849C46.4031 46.8516 45.2106 48.044 43.7439 48.7913C42.8394 49.2522 41.8489 49.4518 40.6782 49.5474C39.5334 49.641 38.1131 49.6409 36.3209 49.6409H36.2667H27.7333H27.6791C25.8869 49.6409 24.4666 49.641 23.3218 49.5474C22.1511 49.4518 21.1606 49.2522 20.2561 48.7913C18.7894 48.044 17.5969 46.8516 16.8496 45.3849C16.3887 44.4804 16.1892 43.4898 16.0935 42.3191C16 41.1743 16 39.754 16 37.9618L16 37.9076V35.9384L16 35.8842C16 34.092 16 32.6717 16.0935 31.5269C16.1892 30.3562 16.3887 29.3656 16.8496 28.4611C17.5969 26.9944 18.7894 25.802 20.2561 25.0546C20.9588 24.6966 21.7134 24.4963 22.5641 24.3798V23.4666V23.4139C22.5641 22.08 22.5641 21.0041 22.6353 20.1329C22.7086 19.2358 22.8634 18.4479 23.2348 17.7189C23.8248 16.561 24.7662 15.6196 25.9242 15.0296C26.6531 14.6582 27.4411 14.5033 28.3381 14.43C29.2093 14.3589 30.2852 14.3589 31.6191 14.3589ZM25.0256 24.221C25.8069 24.205 26.6859 24.205 27.6792 24.205H27.7333H36.2667H36.3208C37.3141 24.205 38.1931 24.205 38.9744 24.221V23.4666C38.9744 22.0677 38.9734 21.0925 38.9114 20.3333C38.8505 19.5885 38.7371 19.1606 38.5719 18.8365C38.2179 18.1417 37.6531 17.5769 36.9583 17.2229C36.6342 17.0577 36.2063 16.9443 35.4614 16.8834C34.7023 16.8214 33.7271 16.8204 32.3282 16.8204H31.6718C30.2729 16.8204 29.2977 16.8214 28.5386 16.8834C27.7937 16.9443 27.3658 17.0577 27.0417 17.2229C26.3469 17.5769 25.7821 18.1417 25.4281 18.8365C25.2629 19.1606 25.1495 19.5885 25.0886 20.3333C25.0266 21.0925 25.0256 22.0677 25.0256 23.4666V24.221ZM23.5223 26.7519C22.5038 26.8351 21.8732 26.9933 21.3736 27.2479C20.3701 27.7592 19.5542 28.5751 19.0428 29.5786C18.7883 30.0783 18.6301 30.7088 18.5469 31.7273C18.4625 32.7601 18.4615 34.0799 18.4615 35.9384V37.9076C18.4615 39.766 18.4625 41.0858 18.5469 42.1187C18.6301 43.1371 18.7883 43.7677 19.0428 44.2673C19.5542 45.2709 20.3701 46.0868 21.3736 46.5981C21.8732 46.8527 22.5038 47.0108 23.5223 47.0941C24.5551 47.1784 25.8749 47.1794 27.7333 47.1794H36.2667C38.1251 47.1794 39.4449 47.1784 40.4777 47.0941C41.4962 47.0108 42.1268 46.8527 42.6264 46.5981C43.6299 46.0868 44.4458 45.2709 44.9572 44.2673C45.2117 43.7677 45.3699 43.1371 45.4531 42.1187C45.5375 41.0858 45.5385 39.766 45.5385 37.9076V35.9384C45.5385 34.0799 45.5375 32.7601 45.4531 31.7273C45.3699 30.7088 45.2117 30.0783 44.9572 29.5786C44.4458 28.5751 43.6299 27.7592 42.6264 27.2479C42.1268 26.9933 41.4962 26.8351 40.4777 26.7519C39.4449 26.6675 38.1251 26.6666 36.2667 26.6666H27.7333C25.8749 26.6666 24.5551 26.6675 23.5223 26.7519ZM32 34.0512C32.6797 34.0512 33.2308 34.6022 33.2308 35.282V38.564C33.2308 39.2438 32.6797 39.7948 32 39.7948C31.3203 39.7948 30.7692 39.2438 30.7692 38.564V35.282C30.7692 34.6022 31.3203 34.0512 32 34.0512Z" fill="#1A181E"/>
</svg>
