<svg width="400" height="400" viewBox="0 0 400 400" fill="none" xmlns="http://www.w3.org/2000/svg">
<rect width="400" height="400" fill="white"/>
<rect width="400" height="400" fill="#303030"/>
<g clip-path="url(#clip0_1081_32898)">
<path d="M53.49 185.603C49.2047 168.601 76.9698 148.872 96.8149 145.863C115.314 143.058 119.734 152.628 112.745 162.775C105.756 172.922 94.5823 177.153 86.4716 179.969C87.3131 166.44 88.2441 159.868 76.7791 162.119C64.4053 164.551 61.3764 168.035 61.3764 168.035C68.6683 184.291 62.3412 212.198 62.9246 232.017C63.2611 236.87 63.2611 244.788 69.8798 244.788C77.4296 244.788 95.4124 239.155 95.4124 239.155C84.228 228.634 84.8223 216.383 85.7199 188.239C93.5505 196.417 112.644 187.108 117.445 183.589C122.056 193.408 120.811 213.714 119.722 225.535C118.746 236.248 120.844 246.768 144.043 241.135C139.152 236.621 138.737 220.84 140.689 206.463C142.641 192.085 148.654 172.221 166.682 170.388C169.486 170.105 171.854 170.139 173.783 169.393C177.025 168.137 179.044 165.581 179.964 161.169C181.277 154.845 177.104 147.017 168.959 147.017C157.741 147.017 146.209 154.902 139.511 191.813C139.803 188.227 139.287 184.359 139.377 182.164C139.556 177.232 136.236 175.264 132.253 175.682C127.777 176.158 125.612 176.881 125.612 176.881C131.692 172.085 140.207 161.293 141.979 144.71C143.987 125.943 135.607 109.517 111.578 112.311C87.4253 115.117 66.9743 129.925 54.5445 141.791C36.7188 158.782 31.5135 184.766 53.49 185.603Z" fill="white"/>
<path d="M155.495 181.259C161.565 201.395 154.564 219.913 156.067 234.653C156.999 243.77 161.385 242.729 167.712 242.515C172.267 242.356 177.64 241.089 182.89 239.438C170.685 222.334 174.914 210.173 177.954 194.155C179.166 187.764 180.837 177.051 172.648 177.051C163.987 177.062 155.495 181.259 155.495 181.259Z" fill="white"/>
<path d="M208.94 173.374C204.8 170.388 192.314 174.619 187.659 182.797C185.426 187.209 184.058 200.026 184.316 212.865C184.607 226.723 189.061 242.458 198.462 244.426C205.642 245.93 217.465 239.822 225.644 213.804C230.478 198.419 232.161 174.63 231.813 172.379C241.214 172.447 248.921 170.58 253.712 167.401C258.042 164.517 261.261 161.575 261.261 155.942C261.261 151.101 257.268 146.61 251.389 146.451C243.559 151.994 237.972 154.63 230.983 156.316C228.471 138.555 222.132 136.96 215.985 140.908C209.837 144.856 208.805 162.141 220.64 169.845C222.974 192.956 215.244 219.087 208.525 220.195C202.276 221.213 200.885 192.265 208.94 173.374Z" fill="white"/>
<path d="M255.485 211.44C256.18 215.23 258.267 218.544 260.612 218.589C264.258 218.68 266.871 213.623 268.262 210.671C268.262 206.44 268.364 188.838 265.57 180.388C268.924 179.257 277.024 177.357 280.109 177.357C284.024 177.357 290.104 177.221 289.521 183.849C288.646 193.963 286.604 224.37 284.641 245.852C305.328 252.107 323.422 266.281 360.039 253.668C364.863 266.847 358.782 280.942 344.243 282.062C325.991 283.476 306.932 268.397 281.635 258.815C274.792 274.743 261.363 283.272 249.629 284.279C235.864 285.455 226.43 277.073 226.43 266.428C226.43 245.365 246.555 240.218 268.15 241.983C268.15 241.983 268.364 231.553 268.15 223.94C264.235 233.804 259.052 240.524 247.004 236.994C234.148 233.239 230.513 211.248 236.01 181.474C236.762 178.94 241.597 175.083 257.998 177.718C257.471 180.173 253.151 198.759 255.485 211.44ZM266.468 254.381C255.014 252.549 245.22 254.664 245.22 264.381C245.22 272.198 253.084 278.193 259.333 270.58C265.604 262.967 266.445 254.935 266.468 254.381Z" fill="white"/>
</g>
<defs>
<clipPath id="clip0_1081_32898">
<rect width="322.667" height="176" fill="white" transform="translate(39 112)"/>
</clipPath>
</defs>
</svg>
