<svg width="92" height="60" viewBox="0 0 92 60" fill="none" xmlns="http://www.w3.org/2000/svg">
<g clip-path="url(#clip0_1172_33425)">
<path d="M72.8063 37.1945C70.9455 37.1945 69.201 37.1945 67.4136 37.1945C67.3946 37.0175 67.3605 36.857 67.3617 36.6977C67.3655 32.7157 67.3567 28.7351 67.3896 24.7531C67.4009 23.2981 67.0091 22.0871 65.6729 21.3463C64.2293 20.5474 62.8249 20.7825 61.4874 21.6156C60.8035 22.0416 60.6847 22.7697 60.6822 23.5042C60.6683 27.1486 60.667 30.793 60.662 34.4374C60.6607 35.34 60.662 36.2413 60.662 37.1894C58.8138 37.1894 57.0138 37.1894 55.1264 37.1894C55.1264 36.9682 55.1264 36.7444 55.1264 36.522C55.1302 32.1406 55.1429 27.7579 55.1277 23.3765C55.1252 22.6673 54.971 21.9594 54.9343 21.249C54.9242 21.0505 55.0241 20.7611 55.1732 20.6536C56.1162 19.9836 57.0934 19.3604 58.0478 18.7056C58.5193 18.382 58.9023 18.449 59.2563 18.8813C59.5369 19.2239 59.8289 19.5564 60.1235 19.885C61.0551 20.9203 61.4331 21.0177 62.7124 20.4197C63.8361 19.8951 64.922 19.2871 66.0458 18.7612C67.6411 18.0141 69.1985 18.1001 70.6434 19.1493C71.7356 19.9432 72.2589 21.1175 72.398 22.3918C72.6015 24.2487 72.6938 26.1234 72.738 27.993C72.8037 30.7728 72.7873 33.5538 72.805 36.3349C72.8075 36.6029 72.8063 36.8709 72.8063 37.1945Z" fill="#B3B3B3"/>
<path d="M31.762 35.4563C30.5257 36.1212 29.3753 36.7684 28.1934 37.3537C27.9469 37.4751 27.531 37.4776 27.2895 37.3512C25.0306 36.1667 23.2646 34.5335 22.9246 31.8561C22.6591 29.7703 23.5541 28.036 24.9105 26.5253C25.3099 26.0816 25.8725 25.916 26.4742 26.0437C29.0833 26.5999 31.3751 25.7467 33.5646 24.4547C34.2358 24.0578 34.3521 22.8341 33.8351 21.8937C32.8579 20.1151 30.5004 19.5171 28.5296 20.5448C27.8407 20.9039 27.172 21.3197 26.4502 21.5941C25.5704 21.929 24.9648 21.6396 24.6299 20.8735C24.3454 20.2238 24.4251 19.6258 24.8473 19.2441C25.3036 18.8307 26.0406 18.7549 26.6208 19.0355C27.1682 19.2997 27.7067 19.6119 28.2844 19.7725C29.6357 20.1467 30.939 19.8635 32.1109 19.1632C33.648 18.2442 35.0866 18.4388 36.6793 19.0886C38.6943 19.9115 39.468 21.3122 39.4237 23.4005C39.3694 25.9906 39.3858 28.5833 39.4402 31.1747C39.4642 32.3238 39.6361 33.4716 39.784 34.6156C39.8358 35.0138 39.8143 35.2667 39.4136 35.4841C38.396 36.034 37.4011 36.6294 36.4076 37.2235C35.8754 37.5421 35.4835 37.4182 35.2054 36.8974C34.988 36.4916 34.8224 36.058 34.5948 35.6585C34.3862 35.2945 34.1258 34.9595 33.8149 34.5044C34.5 31.7638 34.0854 28.7906 34.165 25.8389C34.1701 25.6341 34.1448 25.4294 34.1296 25.1475C33.7087 25.2107 33.3282 25.2208 32.9768 25.3282C30.4561 26.0993 28.6105 27.5847 28.005 30.2658C27.6144 31.9951 28.5461 34.067 30.0845 34.9355C30.5459 35.1933 31.1135 35.2616 31.762 35.4563Z" fill="#B3B3B3"/>
<path d="M19.5875 16.7095C19.5875 17.2012 19.5875 17.5779 19.5875 17.9546C19.5875 21.9353 19.5913 25.916 19.5863 29.8966C19.585 31.5261 19.2917 33.0847 18.355 34.4576C17.2022 36.1451 15.4855 36.8796 13.5501 37.159C10.9537 37.5344 8.33823 37.5963 5.74428 37.2108C2.99358 36.8012 1.30979 34.9708 0.102562 32.6208C-0.122449 32.1834 -0.130033 31.6601 0.417326 31.4325C2.21742 30.6855 4.0352 29.9801 6.04008 29.1812C6.04008 30.4592 5.99457 31.6133 6.05651 32.7611C6.09317 33.4463 6.24107 34.139 6.4408 34.7989C6.82509 36.0731 7.67331 36.8897 9.02843 37.0743C10.3937 37.2601 11.4467 36.6748 12.2759 35.6433C12.7917 35.0024 13.0293 34.2641 13.0255 33.421C13.0091 28.6616 13.0142 23.901 13.0319 19.1416C13.0331 18.928 13.1836 18.5728 13.339 18.5247C15.3667 17.9091 17.4057 17.3352 19.5875 16.7095Z" fill="#B3B3B3"/>
<path d="M50.1875 37.1919C48.2319 37.1919 46.3471 37.1919 44.4244 37.1919C44.4105 37.0086 44.3865 36.848 44.3865 36.6862C44.3827 32.3516 44.3991 28.0157 44.3625 23.6811C44.3549 22.7254 44.1817 21.7685 44.0325 20.8204C43.9807 20.4917 44.0224 20.3262 44.3258 20.1757C45.3055 19.6916 46.2776 19.1897 47.2408 18.6752C47.8413 18.3541 48.3823 18.4426 48.8741 18.8661C49.6009 19.4906 49.9814 20.2478 49.8639 21.254C49.6098 23.4257 49.2002 25.6051 49.2331 27.7755C49.271 30.3063 49.7134 32.832 49.9827 35.3589C50.0459 35.9581 50.1167 36.556 50.1875 37.1919Z" fill="#B3B3B3"/>
<path d="M0.871005 15.7829C0.236422 14.8803 0.194707 13.9676 0.456377 13.0183C1.13647 10.5533 3.07055 9.28157 5.62658 9.35109C8.61999 9.432 11.5009 10.1007 14.4045 10.7024C16.4625 11.1284 18.5053 11.064 20.4887 10.2777C20.5393 10.2575 20.6012 10.2688 20.6606 10.265C20.5671 12.5379 17.762 15.7032 14.8343 15.2633C11.9648 14.831 9.09277 14.4252 6.2245 13.9904C4.5129 13.7312 2.95805 14.0106 1.632 15.2001C1.41331 15.3948 1.16681 15.5579 0.871005 15.7829Z" fill="#B3B3B3"/>
<path d="M76.4181 48.4525C76.4181 46.301 76.4181 44.1495 76.4181 41.95C76.9756 41.95 77.4446 41.95 77.9654 41.95C77.9793 42.132 78.0058 42.314 78.0071 42.4948C78.0096 45.5489 77.9919 48.603 78.0248 51.657C78.0311 52.2613 77.7581 52.3738 77.2777 52.3612C76.614 52.3435 76.1918 51.9554 75.8745 51.4245C75.087 50.106 74.3235 48.7736 73.5182 47.4665C73.1833 46.9242 72.7674 46.4312 72.3881 45.9155C72.3211 45.942 72.2554 45.9686 72.1884 45.9951C72.1884 48.0569 72.1884 50.1186 72.1884 52.2208C71.5222 52.2208 70.9433 52.2208 70.2897 52.2208C70.2758 52.0287 70.248 51.829 70.248 51.6292C70.2455 48.5966 70.2619 45.5628 70.2316 42.5302C70.2252 41.9487 70.4755 41.7919 70.966 41.7806C71.751 41.7629 72.2567 42.1851 72.6435 42.8209C73.6257 44.4403 74.6142 46.0545 75.6065 47.6675C75.7873 47.9608 76.0009 48.2326 76.1994 48.5145C76.2727 48.493 76.3461 48.4728 76.4181 48.4525Z" fill="#B3B3B3"/>
<path d="M40.2989 46.0064C40.2989 44.6551 40.2989 43.3366 40.2989 41.9651C40.9435 41.9651 41.5377 41.9651 42.1697 41.9651C42.1697 45.3807 42.1697 48.7799 42.1697 52.2259C41.5996 52.2259 41.0421 52.2259 40.4076 52.2259C40.4076 50.6874 40.4076 49.144 40.4076 47.5638C39.0992 47.5638 37.8642 47.5221 36.6342 47.5828C36.1033 47.6093 35.9819 48.1352 35.9642 48.5852C35.9263 49.5523 35.9301 50.5206 35.9187 51.4889C35.9162 51.7139 35.9187 51.9389 35.9187 52.2018C35.293 52.2018 34.7317 52.2018 34.1123 52.2018C34.1123 48.8153 34.1123 45.4199 34.1123 41.9727C34.6672 41.9727 35.2222 41.9727 35.853 41.9727C35.853 43.2949 35.853 44.6286 35.853 46.0077C37.3686 46.0064 38.8072 46.0064 40.2989 46.0064Z" fill="#B3B3B3"/>
<path d="M67.8887 52.2082C66.3908 52.4067 66.0406 52.212 65.7537 50.8088C65.6095 50.106 65.3011 49.8797 64.6223 49.9455C64.08 49.9985 63.5288 49.9505 62.9827 49.9631C61.9209 49.9884 61.6908 50.1629 61.3394 51.1691C60.9336 52.3296 60.2295 52.6254 59.0488 52.0982C59.911 49.5194 60.7743 46.9369 61.6377 44.3543C61.8248 43.7968 62.017 43.2406 62.204 42.6844C62.3722 42.1851 62.6869 41.8476 63.2292 41.7869C63.8234 41.7212 64.3783 41.8084 64.731 42.3583C64.8877 42.6022 65.018 42.8728 65.1052 43.1483C66.0191 46.052 66.9217 48.9594 67.8255 51.8669C67.8571 51.9642 67.8647 52.0691 67.8887 52.2082ZM62.1939 48.4766C63.1458 48.4766 64.0155 48.4766 64.9661 48.4766C64.5148 47.0797 64.08 45.7372 63.6464 44.3935C63.5528 44.396 63.4593 44.3985 63.367 44.3998C62.9815 45.741 62.5959 47.0822 62.1939 48.4766Z" fill="#B3B3B3"/>
<path d="M58.0001 52.1993C56.7499 52.5394 55.9042 52.1159 55.2014 51.2133C54.2634 50.0074 53.285 48.8343 52.3243 47.646C52.2509 47.6789 52.1776 47.7118 52.1043 47.7446C52.1043 49.2337 52.1043 50.7216 52.1043 52.2537C51.476 52.2537 50.9401 52.2537 50.3535 52.2537C50.3535 48.8267 50.3535 45.4073 50.3535 41.9221C50.8958 41.9221 51.4432 41.9221 52.0727 41.9221C52.0727 43.1685 52.0727 44.4036 52.0727 45.6386C52.0727 45.765 52.0512 45.8965 52.0803 46.0153C52.1169 46.1632 52.1966 46.2997 52.2573 46.4413C52.4039 46.3579 52.6036 46.3099 52.6909 46.1834C53.4329 45.1115 54.1585 44.0281 54.8803 42.9423C55.6008 41.8602 56.377 41.5859 57.6537 42.0435C56.9774 43.0434 56.3302 44.0383 55.6451 45.004C54.3923 46.7687 54.3835 46.8711 55.6046 48.6624C56.396 49.8241 57.181 50.9896 58.0001 52.1993Z" fill="#B3B3B3"/>
<path d="M51.2987 11.2234C49.9512 12.4129 48.6605 13.5518 47.3686 14.6908C47.3079 14.7452 47.2371 14.7881 47.1208 14.8728C45.523 13.39 43.929 11.9098 42.3008 10.3979C43.9365 8.91509 45.5331 7.46769 47.184 5.97351C48.5543 7.72177 49.9082 9.44981 51.2987 11.2234Z" fill="#B3B3B3"/>
<path d="M24.6289 52.2575C24.7503 51.7076 24.8489 51.2626 24.9538 50.7924C26.0156 50.867 27.0383 50.9681 28.0635 50.9997C28.9825 51.0275 29.4843 50.6344 29.7056 49.8329C29.9533 48.9329 29.6019 48.1908 28.6981 47.7825C28.0281 47.4804 27.3316 47.2339 26.6603 46.9318C25.3052 46.3212 24.7439 45.296 24.9336 43.8322C25.0701 42.7817 26.0397 41.9196 27.4163 41.6453C28.5792 41.414 29.7245 41.5404 30.842 41.8931C31.0228 41.9499 31.2971 42.2786 31.2604 42.3519C31.1302 42.6174 30.9267 42.9448 30.6764 43.0295C30.3869 43.1281 30.0191 42.9701 29.6853 42.9675C29.0811 42.9625 28.449 42.8816 27.8789 43.027C26.9612 43.2621 26.6654 44.2215 27.324 44.8966C27.8347 45.4199 28.5262 45.7751 29.162 46.1657C29.4629 46.3503 29.8269 46.4249 30.1505 46.5766C31.847 47.373 32.34 48.5688 31.7168 50.3461C31.2806 51.5913 30.4375 52.2309 29.1203 52.2524C27.6476 52.2752 26.1762 52.2575 24.6289 52.2575Z" fill="#B3B3B3"/>
<path d="M80.291 52.2829C80.291 51.8935 80.291 51.5623 80.291 51.1679C80.8219 51.1136 81.3377 51.0529 81.8547 51.0074C82.5045 50.9505 82.9659 50.6496 82.9785 49.9657C83.0152 47.9672 83.0202 45.9686 83.0114 43.9701C83.0089 43.4897 82.7004 43.2078 82.2175 43.1383C81.8661 43.0877 81.5134 43.0334 81.114 42.974C81.0823 42.6453 81.0508 42.3179 81.0154 41.9475C82.2125 41.9475 83.3577 41.9475 84.5751 41.9475C84.5751 42.9171 84.5763 43.8576 84.5751 44.7993C84.5713 46.7574 84.5726 48.7155 84.5561 50.6724C84.5485 51.6129 84.0505 52.2045 83.1188 52.2677C82.2024 52.3309 81.277 52.2829 80.291 52.2829Z" fill="#B3B3B3"/>
<path d="M45.3057 41.9133C45.8644 41.9133 46.3802 41.9133 46.9351 41.9133C46.9351 45.3643 46.9351 48.7787 46.9351 52.2335C46.3865 52.2335 45.8707 52.2335 45.3057 52.2335C45.3057 48.8103 45.3057 45.3972 45.3057 41.9133Z" fill="#B3B3B3"/>
<path d="M88 41.9006C88.5423 41.9006 89.0214 41.9006 89.5574 41.9006C89.5574 45.3441 89.5574 48.7812 89.5574 52.2512C89.0454 52.2512 88.5486 52.2512 88 52.2512C88 48.8115 88 45.3921 88 41.9006Z" fill="#B3B3B3"/>
</g>
<defs>
<clipPath id="clip0_1172_33425">
<rect width="92" height="48" fill="white" transform="translate(0 6)"/>
</clipPath>
</defs>
</svg>
