<svg width="90" height="72" viewBox="0 0 90 72" fill="none" xmlns="http://www.w3.org/2000/svg">
<path d="M0.74896 54.725C0.249653 52.2032 0 49.4711 0 46.5289C0 42.3257 0.499306 37.9124 1.49792 33.289C2.57975 28.6655 4.24411 24.2522 6.49098 20.049C8.82108 15.7618 11.7753 11.8949 15.3537 8.44834C18.932 5.00175 23.301 2.35377 28.4605 0.504378C29.1262 0.168126 29.8752 0 30.7074 0C31.4563 0 32.1637 0.252189 32.8294 0.756567C33.4951 1.26095 33.828 2.31173 33.828 3.90893V10.8441C31.8308 12.1051 29.8752 13.6602 27.9612 15.5096C26.1304 17.359 24.466 19.4186 22.9681 21.6883C21.5534 23.958 20.3883 26.4378 19.473 29.1278C18.6408 31.7338 18.2247 34.4238 18.2247 37.1979C18.3911 37.0298 18.5992 36.9457 18.8488 36.9457C19.1817 36.9457 19.473 36.9457 19.7226 36.9457C22.3856 36.9457 24.8405 37.4081 27.0874 38.3327C29.3343 39.2574 31.2483 40.5184 32.8294 42.1156C34.4105 43.6287 35.6172 45.4781 36.4494 47.6637C37.3648 49.8494 37.8225 52.2032 37.8225 54.725C37.8225 57.1629 37.3648 59.4326 36.4494 61.5341C35.6172 63.5517 34.4105 65.359 32.8294 66.9562C31.2483 68.5534 29.3343 69.8144 27.0874 70.7391C24.8405 71.5797 22.3856 72 19.7226 72C16.9764 72 14.5215 71.5797 12.3578 70.7391C10.1942 69.8144 8.32178 68.5534 6.74064 66.9562C5.24272 65.359 3.99445 63.5517 2.99584 61.5341C1.99723 59.4326 1.24827 57.1629 0.74896 54.725ZM52.9265 54.725C52.4272 52.2032 52.1775 49.4711 52.1775 46.5289C52.1775 42.3257 52.6768 37.9124 53.6754 33.289C54.7573 28.6655 56.4216 24.2522 58.6685 20.049C60.9986 15.7618 63.9528 11.8949 67.5312 8.44834C71.1096 5.00175 75.4369 2.35377 80.5132 0.504378C80.846 0.336252 81.1789 0.210158 81.5118 0.126095C81.9279 0.0420315 82.3856 0 82.8849 0C83.6338 0 84.2996 0.252189 84.8821 0.756567C85.5479 1.26095 85.8807 2.31173 85.8807 3.90893V10.8441C83.8835 12.1051 81.9695 13.6602 80.1387 15.5096C78.3079 17.359 76.6435 19.4186 75.1456 21.6883C73.7309 23.958 72.5659 26.4378 71.6505 29.1278C70.8183 31.7338 70.4022 34.4238 70.4022 37.1979C70.5687 37.0298 70.7767 36.9457 71.0264 36.9457C71.3592 36.9457 71.6505 36.9457 71.9001 36.9457C74.5631 36.9457 77.018 37.4081 79.2649 38.3327C81.5118 39.2574 83.4258 40.5184 85.0069 42.1156C86.5881 43.6287 87.7947 45.4781 88.6269 47.6637C89.5423 49.8494 90 52.2032 90 54.725C90 57.1629 89.5423 59.4326 88.6269 61.5341C87.7947 63.5517 86.5881 65.359 85.0069 66.9562C83.4258 68.5534 81.5118 69.8144 79.2649 70.7391C77.018 71.5797 74.5631 72 71.9001 72C69.154 72 66.699 71.5797 64.5354 70.7391C62.3717 69.8144 60.4993 68.5534 58.9182 66.9562C57.4202 65.359 56.172 63.5517 55.1734 61.5341C54.1748 59.4326 53.4258 57.1629 52.9265 54.725Z" fill="#1A181E"/>
</svg>
