<svg width="480" height="360" viewBox="0 0 480 360" fill="none" xmlns="http://www.w3.org/2000/svg">
<rect width="480" height="360" rx="8" fill="#C1E5FF"/>
<path d="M100 85C100 80.5817 103.582 77 108 77H388C392.418 77 396 80.5817 396 85V106.389H100V85Z" fill="#146EB4"/>
<circle cx="116.695" cy="93.6947" r="4.69466" fill="#FF6158"/>
<circle cx="132.343" cy="93.6947" r="4.69466" fill="#FFBF2F"/>
<circle cx="147.992" cy="93.6947" r="4.69466" fill="#25C83D"/>
<path d="M101 107.389H395V283.389C395 287.255 391.866 290.389 388 290.389H108C104.134 290.389 101 287.255 101 283.389V107.389Z" fill="white"/>
<rect x="135.5" y="258.389" width="24" height="10" rx="2" transform="rotate(-90 135.5 258.389)" fill="#4CA1FF" fill-opacity="0.4"/>
<rect x="156.5" y="258.389" width="32" height="10" rx="2" transform="rotate(-90 156.5 258.389)" fill="#4CA1FF" fill-opacity="0.4"/>
<rect x="177.5" y="258.389" width="48" height="10" rx="2" transform="rotate(-90 177.5 258.389)" fill="#4CA1FF"/>
<rect x="198.5" y="258.389" width="40" height="10" rx="2" transform="rotate(-90 198.5 258.389)" fill="#4CA1FF" fill-opacity="0.4"/>
<rect x="219.5" y="258.389" width="60" height="10" rx="2" transform="rotate(-90 219.5 258.389)" fill="#4CA1FF" fill-opacity="0.4"/>
<rect x="240.5" y="258.389" width="80" height="10" rx="2" transform="rotate(-90 240.5 258.389)" fill="#4CA1FF"/>
<rect x="261.5" y="258.389" width="57.9038" height="10" rx="2" transform="rotate(-90 261.5 258.389)" fill="#4CA1FF" fill-opacity="0.4"/>
<rect x="282.5" y="258.389" width="77.9531" height="10" rx="2" transform="rotate(-90 282.5 258.389)" fill="#4CA1FF" fill-opacity="0.4"/>
<rect x="303.5" y="258.389" width="96" height="10" rx="2" transform="rotate(-90 303.5 258.389)" fill="#4CA1FF"/>
<rect x="324.5" y="258.389" width="64" height="10" rx="2" transform="rotate(-90 324.5 258.389)" fill="#4CA1FF" fill-opacity="0.4"/>
<rect x="345.5" y="258.389" width="104" height="10" rx="2" transform="rotate(-90 345.5 258.389)" fill="#4CA1FF" fill-opacity="0.4"/>
<rect x="366.5" y="258.389" width="128" height="10" rx="2" transform="rotate(-90 366.5 258.389)" fill="#4CA1FF"/>
<path d="M134.286 272.497C133.872 272.497 133.515 272.431 133.215 272.299C132.921 272.161 132.696 271.963 132.54 271.705C132.39 271.441 132.315 271.111 132.315 270.715V270.445H133.17V270.76C133.17 271.084 133.266 271.333 133.458 271.507C133.65 271.675 133.926 271.759 134.286 271.759C134.652 271.759 134.931 271.642 135.123 271.408C135.321 271.174 135.42 270.826 135.42 270.364V266.215H136.275V270.319C136.275 270.805 136.197 271.21 136.041 271.534C135.885 271.858 135.657 272.101 135.357 272.263C135.063 272.419 134.706 272.497 134.286 272.497ZM139.016 272.497C138.842 272.497 138.668 272.476 138.494 272.434C138.32 272.392 138.158 272.323 138.008 272.227C137.858 272.131 137.738 271.999 137.648 271.831C137.558 271.657 137.513 271.441 137.513 271.183C137.513 270.859 137.591 270.592 137.747 270.382C137.903 270.172 138.119 270.01 138.395 269.896C138.677 269.776 139.01 269.695 139.394 269.653C139.778 269.605 140.195 269.581 140.645 269.581V269.041C140.645 268.867 140.615 268.717 140.555 268.591C140.495 268.465 140.387 268.369 140.231 268.303C140.081 268.231 139.865 268.195 139.583 268.195C139.313 268.195 139.097 268.231 138.935 268.303C138.779 268.369 138.668 268.456 138.602 268.564C138.542 268.672 138.512 268.792 138.512 268.924V269.059H137.747C137.741 269.029 137.738 268.999 137.738 268.969C137.738 268.939 137.738 268.903 137.738 268.861C137.738 268.573 137.816 268.333 137.972 268.141C138.134 267.943 138.359 267.796 138.647 267.7C138.935 267.598 139.265 267.547 139.637 267.547C140.033 267.547 140.363 267.604 140.627 267.718C140.897 267.832 141.098 267.994 141.23 268.204C141.368 268.414 141.437 268.666 141.437 268.96V271.525C141.437 271.639 141.464 271.72 141.518 271.768C141.572 271.81 141.638 271.831 141.716 271.831H142.067V272.353C141.983 272.389 141.89 272.419 141.788 272.443C141.686 272.473 141.569 272.488 141.437 272.488C141.281 272.488 141.152 272.455 141.05 272.389C140.948 272.329 140.87 272.245 140.816 272.137C140.762 272.023 140.726 271.897 140.708 271.759H140.645C140.537 271.909 140.399 272.041 140.231 272.155C140.069 272.263 139.886 272.347 139.682 272.407C139.478 272.467 139.256 272.497 139.016 272.497ZM139.214 271.831C139.406 271.831 139.586 271.801 139.754 271.741C139.928 271.681 140.081 271.597 140.213 271.489C140.345 271.375 140.45 271.24 140.528 271.084C140.606 270.928 140.645 270.757 140.645 270.571V270.175C140.159 270.175 139.745 270.202 139.403 270.256C139.061 270.31 138.797 270.406 138.611 270.544C138.431 270.682 138.341 270.877 138.341 271.129C138.341 271.291 138.377 271.423 138.449 271.525C138.521 271.627 138.623 271.705 138.755 271.759C138.887 271.807 139.04 271.831 139.214 271.831ZM142.913 272.389V267.655H143.552L143.624 268.366H143.687C143.813 268.174 143.954 268.018 144.11 267.898C144.272 267.778 144.449 267.691 144.641 267.637C144.839 267.577 145.049 267.547 145.271 267.547C145.571 267.547 145.832 267.598 146.054 267.7C146.282 267.802 146.459 267.967 146.585 268.195C146.717 268.423 146.783 268.732 146.783 269.122V272.389H145.991V269.23C145.991 269.032 145.964 268.87 145.91 268.744C145.862 268.618 145.793 268.519 145.703 268.447C145.619 268.375 145.514 268.324 145.388 268.294C145.268 268.264 145.133 268.249 144.983 268.249C144.761 268.249 144.551 268.303 144.353 268.411C144.155 268.519 143.996 268.675 143.876 268.879C143.762 269.083 143.705 269.326 143.705 269.608V272.389H142.913Z" fill="#4D4D4D"/>
<path d="M153.774 272.389V266.215H158.148V266.953H154.629V268.933H157.833V269.662H154.629V272.389H153.774ZM160.973 272.497C160.505 272.497 160.109 272.41 159.785 272.236C159.467 272.056 159.224 271.783 159.056 271.417C158.894 271.051 158.813 270.586 158.813 270.022C158.813 269.452 158.894 268.987 159.056 268.627C159.224 268.261 159.47 267.991 159.794 267.817C160.118 267.637 160.523 267.547 161.009 267.547C161.453 267.547 161.825 267.634 162.125 267.808C162.425 267.976 162.65 268.231 162.8 268.573C162.956 268.909 163.034 269.332 163.034 269.842V270.22H159.632C159.644 270.598 159.698 270.91 159.794 271.156C159.896 271.396 160.046 271.573 160.244 271.687C160.442 271.795 160.691 271.849 160.991 271.849C161.195 271.849 161.372 271.825 161.522 271.777C161.678 271.723 161.807 271.648 161.909 271.552C162.017 271.456 162.098 271.342 162.152 271.21C162.206 271.078 162.236 270.934 162.242 270.778H163.016C163.01 271.03 162.962 271.264 162.872 271.48C162.782 271.69 162.65 271.87 162.476 272.02C162.302 272.17 162.089 272.287 161.837 272.371C161.585 272.455 161.297 272.497 160.973 272.497ZM159.65 269.626H162.215C162.215 269.362 162.185 269.14 162.125 268.96C162.065 268.78 161.978 268.633 161.864 268.519C161.756 268.405 161.627 268.324 161.477 268.276C161.333 268.222 161.168 268.195 160.982 268.195C160.706 268.195 160.472 268.246 160.28 268.348C160.088 268.45 159.941 268.606 159.839 268.816C159.737 269.026 159.674 269.296 159.65 269.626ZM166.444 272.497C166.126 272.497 165.841 272.434 165.589 272.308C165.337 272.176 165.13 271.978 164.968 271.714H164.905L164.824 272.389H164.194V265.882H164.986V268.249H165.04C165.148 268.081 165.274 267.946 165.418 267.844C165.562 267.742 165.724 267.667 165.904 267.619C166.084 267.571 166.276 267.547 166.48 267.547C166.846 267.547 167.167 267.634 167.443 267.808C167.719 267.982 167.932 268.249 168.082 268.609C168.238 268.969 168.316 269.428 168.316 269.986C168.316 270.574 168.241 271.054 168.091 271.426C167.941 271.792 167.728 272.062 167.452 272.236C167.176 272.41 166.84 272.497 166.444 272.497ZM166.255 271.804C166.525 271.804 166.75 271.75 166.93 271.642C167.116 271.534 167.257 271.357 167.353 271.111C167.449 270.859 167.497 270.529 167.497 270.121V269.932C167.497 269.536 167.452 269.215 167.362 268.969C167.272 268.717 167.134 268.534 166.948 268.42C166.762 268.3 166.522 268.24 166.228 268.24C166.06 268.24 165.901 268.267 165.751 268.321C165.601 268.375 165.466 268.468 165.346 268.6C165.232 268.732 165.142 268.909 165.076 269.131C165.016 269.353 164.986 269.626 164.986 269.95V270.094C164.986 270.466 165.028 270.778 165.112 271.03C165.202 271.282 165.34 271.474 165.526 271.606C165.718 271.738 165.961 271.804 166.255 271.804Z" fill="#4D4D4D"/>
<path d="M174.774 272.389V266.215H176.097L177.501 270.22C177.537 270.328 177.573 270.448 177.609 270.58C177.651 270.706 177.687 270.826 177.717 270.94C177.753 271.054 177.78 271.153 177.798 271.237H177.861C177.879 271.147 177.903 271.045 177.933 270.931C177.963 270.811 177.996 270.688 178.032 270.562C178.068 270.436 178.101 270.322 178.131 270.22L179.535 266.215H180.849V272.389H179.994V268.771C179.994 268.585 179.997 268.384 180.003 268.168C180.009 267.946 180.015 267.745 180.021 267.565C180.027 267.379 180.03 267.247 180.03 267.169H179.958C179.94 267.247 179.91 267.358 179.868 267.502C179.826 267.64 179.781 267.787 179.733 267.943C179.691 268.093 179.652 268.228 179.616 268.348L178.167 272.389H177.429L175.98 268.348C175.944 268.246 175.905 268.129 175.863 267.997C175.827 267.859 175.788 267.718 175.746 267.574C175.71 267.43 175.674 267.295 175.638 267.169H175.575C175.581 267.301 175.584 267.466 175.584 267.664C175.59 267.856 175.593 268.051 175.593 268.249C175.599 268.441 175.602 268.615 175.602 268.771V272.389H174.774ZM183.609 272.497C183.435 272.497 183.261 272.476 183.087 272.434C182.913 272.392 182.751 272.323 182.601 272.227C182.451 272.131 182.331 271.999 182.241 271.831C182.151 271.657 182.106 271.441 182.106 271.183C182.106 270.859 182.184 270.592 182.34 270.382C182.496 270.172 182.712 270.01 182.988 269.896C183.27 269.776 183.603 269.695 183.987 269.653C184.371 269.605 184.788 269.581 185.238 269.581V269.041C185.238 268.867 185.208 268.717 185.148 268.591C185.088 268.465 184.98 268.369 184.824 268.303C184.674 268.231 184.458 268.195 184.176 268.195C183.906 268.195 183.69 268.231 183.528 268.303C183.372 268.369 183.261 268.456 183.195 268.564C183.135 268.672 183.105 268.792 183.105 268.924V269.059H182.34C182.334 269.029 182.331 268.999 182.331 268.969C182.331 268.939 182.331 268.903 182.331 268.861C182.331 268.573 182.409 268.333 182.565 268.141C182.727 267.943 182.952 267.796 183.24 267.7C183.528 267.598 183.858 267.547 184.23 267.547C184.626 267.547 184.956 267.604 185.22 267.718C185.49 267.832 185.691 267.994 185.823 268.204C185.961 268.414 186.03 268.666 186.03 268.96V271.525C186.03 271.639 186.057 271.72 186.111 271.768C186.165 271.81 186.231 271.831 186.309 271.831H186.66V272.353C186.576 272.389 186.483 272.419 186.381 272.443C186.279 272.473 186.162 272.488 186.03 272.488C185.874 272.488 185.745 272.455 185.643 272.389C185.541 272.329 185.463 272.245 185.409 272.137C185.355 272.023 185.319 271.897 185.301 271.759H185.238C185.13 271.909 184.992 272.041 184.824 272.155C184.662 272.263 184.479 272.347 184.275 272.407C184.071 272.467 183.849 272.497 183.609 272.497ZM183.807 271.831C183.999 271.831 184.179 271.801 184.347 271.741C184.521 271.681 184.674 271.597 184.806 271.489C184.938 271.375 185.043 271.24 185.121 271.084C185.199 270.928 185.238 270.757 185.238 270.571V270.175C184.752 270.175 184.338 270.202 183.996 270.256C183.654 270.31 183.39 270.406 183.204 270.544C183.024 270.682 182.934 270.877 182.934 271.129C182.934 271.291 182.97 271.423 183.042 271.525C183.114 271.627 183.216 271.705 183.348 271.759C183.48 271.807 183.633 271.831 183.807 271.831ZM187.505 272.389V267.655H188.144L188.216 268.438H188.279C188.327 268.288 188.393 268.147 188.477 268.015C188.561 267.877 188.675 267.766 188.819 267.682C188.963 267.592 189.14 267.547 189.35 267.547C189.44 267.547 189.521 267.556 189.593 267.574C189.671 267.586 189.728 267.601 189.764 267.619V268.348H189.467C189.263 268.348 189.086 268.384 188.936 268.456C188.792 268.522 188.672 268.618 188.576 268.744C188.48 268.87 188.408 269.02 188.36 269.194C188.318 269.368 188.297 269.554 188.297 269.752V272.389H187.505Z" fill="#4D4D4D"/>
<path d="M195.063 272.389L197.502 266.215H198.627L201.075 272.389H200.148L199.545 270.859H196.539L195.945 272.389H195.063ZM196.818 270.13H199.257L198.51 268.195C198.492 268.141 198.465 268.066 198.429 267.97C198.393 267.874 198.354 267.769 198.312 267.655C198.27 267.535 198.228 267.415 198.186 267.295C198.144 267.169 198.105 267.055 198.069 266.953H198.015C197.973 267.073 197.925 267.211 197.871 267.367C197.817 267.523 197.763 267.676 197.709 267.826C197.655 267.97 197.61 268.093 197.574 268.195L196.818 270.13ZM201.936 273.946V267.655H202.566L202.647 268.33H202.71C202.872 268.066 203.079 267.871 203.331 267.745C203.583 267.613 203.868 267.547 204.186 267.547C204.582 267.547 204.918 267.634 205.194 267.808C205.47 267.982 205.683 268.255 205.833 268.627C205.983 268.993 206.058 269.47 206.058 270.058C206.058 270.61 205.98 271.069 205.824 271.435C205.674 271.795 205.461 272.062 205.185 272.236C204.909 272.41 204.588 272.497 204.222 272.497C204.018 272.497 203.826 272.473 203.646 272.425C203.466 272.377 203.304 272.302 203.16 272.2C203.016 272.092 202.89 271.957 202.782 271.795H202.728V273.946H201.936ZM203.97 271.804C204.264 271.804 204.504 271.747 204.69 271.633C204.876 271.513 205.014 271.33 205.104 271.084C205.194 270.832 205.239 270.511 205.239 270.121V269.932C205.239 269.518 205.191 269.188 205.095 268.942C204.999 268.69 204.858 268.51 204.672 268.402C204.492 268.294 204.267 268.24 203.997 268.24C203.703 268.24 203.46 268.306 203.268 268.438C203.082 268.564 202.944 268.756 202.854 269.014C202.77 269.272 202.728 269.587 202.728 269.959V270.094C202.728 270.424 202.758 270.7 202.818 270.922C202.884 271.138 202.974 271.312 203.088 271.444C203.208 271.576 203.343 271.669 203.493 271.723C203.643 271.777 203.802 271.804 203.97 271.804ZM207.222 272.389V267.655H207.861L207.933 268.438H207.996C208.044 268.288 208.11 268.147 208.194 268.015C208.278 267.877 208.392 267.766 208.536 267.682C208.68 267.592 208.857 267.547 209.067 267.547C209.157 267.547 209.238 267.556 209.31 267.574C209.388 267.586 209.445 267.601 209.481 267.619V268.348H209.184C208.98 268.348 208.803 268.384 208.653 268.456C208.509 268.522 208.389 268.618 208.293 268.744C208.197 268.87 208.125 269.02 208.077 269.194C208.035 269.368 208.014 269.554 208.014 269.752V272.389H207.222Z" fill="#4D4D4D"/>
<path d="M215.774 272.389V266.215H217.097L218.501 270.22C218.537 270.328 218.573 270.448 218.609 270.58C218.651 270.706 218.687 270.826 218.717 270.94C218.753 271.054 218.78 271.153 218.798 271.237H218.861C218.879 271.147 218.903 271.045 218.933 270.931C218.963 270.811 218.996 270.688 219.032 270.562C219.068 270.436 219.101 270.322 219.131 270.22L220.535 266.215H221.849V272.389H220.994V268.771C220.994 268.585 220.997 268.384 221.003 268.168C221.009 267.946 221.015 267.745 221.021 267.565C221.027 267.379 221.03 267.247 221.03 267.169H220.958C220.94 267.247 220.91 267.358 220.868 267.502C220.826 267.64 220.781 267.787 220.733 267.943C220.691 268.093 220.652 268.228 220.616 268.348L219.167 272.389H218.429L216.98 268.348C216.944 268.246 216.905 268.129 216.863 267.997C216.827 267.859 216.788 267.718 216.746 267.574C216.71 267.43 216.674 267.295 216.638 267.169H216.575C216.581 267.301 216.584 267.466 216.584 267.664C216.59 267.856 216.593 268.051 216.593 268.249C216.599 268.441 216.602 268.615 216.602 268.771V272.389H215.774ZM224.609 272.497C224.435 272.497 224.261 272.476 224.087 272.434C223.913 272.392 223.751 272.323 223.601 272.227C223.451 272.131 223.331 271.999 223.241 271.831C223.151 271.657 223.106 271.441 223.106 271.183C223.106 270.859 223.184 270.592 223.34 270.382C223.496 270.172 223.712 270.01 223.988 269.896C224.27 269.776 224.603 269.695 224.987 269.653C225.371 269.605 225.788 269.581 226.238 269.581V269.041C226.238 268.867 226.208 268.717 226.148 268.591C226.088 268.465 225.98 268.369 225.824 268.303C225.674 268.231 225.458 268.195 225.176 268.195C224.906 268.195 224.69 268.231 224.528 268.303C224.372 268.369 224.261 268.456 224.195 268.564C224.135 268.672 224.105 268.792 224.105 268.924V269.059H223.34C223.334 269.029 223.331 268.999 223.331 268.969C223.331 268.939 223.331 268.903 223.331 268.861C223.331 268.573 223.409 268.333 223.565 268.141C223.727 267.943 223.952 267.796 224.24 267.7C224.528 267.598 224.858 267.547 225.23 267.547C225.626 267.547 225.956 267.604 226.22 267.718C226.49 267.832 226.691 267.994 226.823 268.204C226.961 268.414 227.03 268.666 227.03 268.96V271.525C227.03 271.639 227.057 271.72 227.111 271.768C227.165 271.81 227.231 271.831 227.309 271.831H227.66V272.353C227.576 272.389 227.483 272.419 227.381 272.443C227.279 272.473 227.162 272.488 227.03 272.488C226.874 272.488 226.745 272.455 226.643 272.389C226.541 272.329 226.463 272.245 226.409 272.137C226.355 272.023 226.319 271.897 226.301 271.759H226.238C226.13 271.909 225.992 272.041 225.824 272.155C225.662 272.263 225.479 272.347 225.275 272.407C225.071 272.467 224.849 272.497 224.609 272.497ZM224.807 271.831C224.999 271.831 225.179 271.801 225.347 271.741C225.521 271.681 225.674 271.597 225.806 271.489C225.938 271.375 226.043 271.24 226.121 271.084C226.199 270.928 226.238 270.757 226.238 270.571V270.175C225.752 270.175 225.338 270.202 224.996 270.256C224.654 270.31 224.39 270.406 224.204 270.544C224.024 270.682 223.934 270.877 223.934 271.129C223.934 271.291 223.97 271.423 224.042 271.525C224.114 271.627 224.216 271.705 224.348 271.759C224.48 271.807 224.633 271.831 224.807 271.831ZM228.91 274.027C228.766 274.027 228.64 274.015 228.532 273.991C228.43 273.973 228.361 273.961 228.325 273.955V273.379H228.721C228.865 273.379 229.006 273.349 229.144 273.289C229.282 273.229 229.411 273.127 229.531 272.983C229.651 272.839 229.753 272.641 229.837 272.389L228.001 267.655H228.829L229.774 270.094C229.816 270.208 229.864 270.349 229.918 270.517C229.978 270.679 230.035 270.847 230.089 271.021C230.149 271.195 230.197 271.348 230.233 271.48H230.287C230.311 271.384 230.341 271.276 230.377 271.156C230.413 271.036 230.449 270.913 230.485 270.787C230.527 270.655 230.566 270.532 230.602 270.418C230.644 270.298 230.677 270.193 230.701 270.103L231.502 267.655H232.303L230.701 272.254C230.611 272.512 230.512 272.749 230.404 272.965C230.296 273.187 230.176 273.376 230.044 273.532C229.912 273.688 229.753 273.808 229.567 273.892C229.381 273.982 229.162 274.027 228.91 274.027Z" fill="#4D4D4D"/>
<path d="M240.286 272.497C239.872 272.497 239.515 272.431 239.215 272.299C238.921 272.161 238.696 271.963 238.54 271.705C238.39 271.441 238.315 271.111 238.315 270.715V270.445H239.17V270.76C239.17 271.084 239.266 271.333 239.458 271.507C239.65 271.675 239.926 271.759 240.286 271.759C240.652 271.759 240.931 271.642 241.123 271.408C241.321 271.174 241.42 270.826 241.42 270.364V266.215H242.275V270.319C242.275 270.805 242.197 271.21 242.041 271.534C241.885 271.858 241.657 272.101 241.357 272.263C241.063 272.419 240.706 272.497 240.286 272.497ZM245.295 272.497C244.839 272.497 244.473 272.38 244.197 272.146C243.921 271.912 243.783 271.504 243.783 270.922V267.655H244.575V270.814C244.575 271.012 244.599 271.174 244.647 271.3C244.695 271.426 244.764 271.525 244.854 271.597C244.944 271.669 245.049 271.72 245.169 271.75C245.295 271.78 245.43 271.795 245.574 271.795C245.802 271.795 246.012 271.741 246.204 271.633C246.396 271.525 246.552 271.369 246.672 271.165C246.798 270.955 246.861 270.712 246.861 270.436V267.655H247.653V272.389H247.014L246.942 271.678H246.879C246.753 271.87 246.609 272.026 246.447 272.146C246.291 272.266 246.114 272.353 245.916 272.407C245.724 272.467 245.517 272.497 245.295 272.497ZM249.062 272.389V267.655H249.701L249.773 268.366H249.836C249.962 268.174 250.103 268.018 250.259 267.898C250.421 267.778 250.598 267.691 250.79 267.637C250.988 267.577 251.198 267.547 251.42 267.547C251.72 267.547 251.981 267.598 252.203 267.7C252.431 267.802 252.608 267.967 252.734 268.195C252.866 268.423 252.932 268.732 252.932 269.122V272.389H252.14V269.23C252.14 269.032 252.113 268.87 252.059 268.744C252.011 268.618 251.942 268.519 251.852 268.447C251.768 268.375 251.663 268.324 251.537 268.294C251.417 268.264 251.282 268.249 251.132 268.249C250.91 268.249 250.7 268.303 250.502 268.411C250.304 268.519 250.145 268.675 250.025 268.879C249.911 269.083 249.854 269.326 249.854 269.608V272.389H249.062Z" fill="#4D4D4D"/>
<path d="M261.286 272.497C260.872 272.497 260.515 272.431 260.215 272.299C259.921 272.161 259.696 271.963 259.54 271.705C259.39 271.441 259.315 271.111 259.315 270.715V270.445H260.17V270.76C260.17 271.084 260.266 271.333 260.458 271.507C260.65 271.675 260.926 271.759 261.286 271.759C261.652 271.759 261.931 271.642 262.123 271.408C262.321 271.174 262.42 270.826 262.42 270.364V266.215H263.275V270.319C263.275 270.805 263.197 271.21 263.041 271.534C262.885 271.858 262.657 272.101 262.357 272.263C262.063 272.419 261.706 272.497 261.286 272.497ZM266.295 272.497C265.839 272.497 265.473 272.38 265.197 272.146C264.921 271.912 264.783 271.504 264.783 270.922V267.655H265.575V270.814C265.575 271.012 265.599 271.174 265.647 271.3C265.695 271.426 265.764 271.525 265.854 271.597C265.944 271.669 266.049 271.72 266.169 271.75C266.295 271.78 266.43 271.795 266.574 271.795C266.802 271.795 267.012 271.741 267.204 271.633C267.396 271.525 267.552 271.369 267.672 271.165C267.798 270.955 267.861 270.712 267.861 270.436V267.655H268.653V272.389H268.014L267.942 271.678H267.879C267.753 271.87 267.609 272.026 267.447 272.146C267.291 272.266 267.114 272.353 266.916 272.407C266.724 272.467 266.517 272.497 266.295 272.497ZM270.062 272.389V265.882H270.854V272.389H270.062Z" fill="#4D4D4D"/>
<path d="M277.063 272.389L279.502 266.215H280.627L283.075 272.389H282.148L281.545 270.859H278.539L277.945 272.389H277.063ZM278.818 270.13H281.257L280.51 268.195C280.492 268.141 280.465 268.066 280.429 267.97C280.393 267.874 280.354 267.769 280.312 267.655C280.27 267.535 280.228 267.415 280.186 267.295C280.144 267.169 280.105 267.055 280.069 266.953H280.015C279.973 267.073 279.925 267.211 279.871 267.367C279.817 267.523 279.763 267.676 279.709 267.826C279.655 267.97 279.61 268.093 279.574 268.195L278.818 270.13ZM285.359 272.497C284.903 272.497 284.537 272.38 284.261 272.146C283.985 271.912 283.847 271.504 283.847 270.922V267.655H284.639V270.814C284.639 271.012 284.663 271.174 284.711 271.3C284.759 271.426 284.828 271.525 284.918 271.597C285.008 271.669 285.113 271.72 285.233 271.75C285.359 271.78 285.494 271.795 285.638 271.795C285.866 271.795 286.076 271.741 286.268 271.633C286.46 271.525 286.616 271.369 286.736 271.165C286.862 270.955 286.925 270.712 286.925 270.436V267.655H287.717V272.389H287.078L287.006 271.678H286.943C286.817 271.87 286.673 272.026 286.511 272.146C286.355 272.266 286.178 272.353 285.98 272.407C285.788 272.467 285.581 272.497 285.359 272.497ZM289.927 274.027C289.699 274.027 289.489 273.979 289.297 273.883C289.105 273.793 288.952 273.661 288.838 273.487C288.724 273.313 288.667 273.106 288.667 272.866C288.667 272.602 288.739 272.383 288.883 272.209C289.033 272.035 289.21 271.906 289.414 271.822C289.264 271.75 289.147 271.651 289.063 271.525C288.979 271.393 288.937 271.249 288.937 271.093C288.937 270.883 289.012 270.706 289.162 270.562C289.318 270.418 289.507 270.322 289.729 270.274C289.525 270.142 289.363 269.974 289.243 269.77C289.129 269.56 289.072 269.329 289.072 269.077C289.072 268.777 289.141 268.513 289.279 268.285C289.423 268.057 289.639 267.877 289.927 267.745C290.221 267.613 290.578 267.547 290.998 267.547C291.19 267.547 291.37 267.562 291.538 267.592C291.706 267.616 291.856 267.658 291.988 267.718C292.198 267.622 292.354 267.499 292.456 267.349C292.564 267.199 292.63 267.046 292.654 266.89H293.437C293.437 267.07 293.395 267.241 293.311 267.403C293.233 267.559 293.125 267.691 292.987 267.799C292.849 267.901 292.681 267.97 292.483 268.006C292.633 268.15 292.744 268.312 292.816 268.492C292.894 268.672 292.933 268.867 292.933 269.077C292.933 269.377 292.861 269.644 292.717 269.878C292.579 270.106 292.369 270.286 292.087 270.418C291.805 270.55 291.451 270.616 291.025 270.616H290.287C290.125 270.616 289.993 270.649 289.891 270.715C289.789 270.775 289.738 270.874 289.738 271.012C289.738 271.132 289.789 271.231 289.891 271.309C289.993 271.381 290.125 271.417 290.287 271.417H292.213C292.561 271.417 292.846 271.534 293.068 271.768C293.29 271.996 293.401 272.29 293.401 272.65C293.401 272.908 293.335 273.139 293.203 273.343C293.077 273.553 292.897 273.718 292.663 273.838C292.435 273.964 292.168 274.027 291.862 274.027H289.927ZM290.152 273.424H291.853C291.991 273.424 292.117 273.394 292.231 273.334C292.345 273.28 292.435 273.202 292.501 273.1C292.567 272.998 292.6 272.887 292.6 272.767C292.6 272.563 292.54 272.401 292.42 272.281C292.3 272.161 292.15 272.101 291.97 272.101H290.152C289.96 272.101 289.798 272.167 289.666 272.299C289.534 272.425 289.468 272.581 289.468 272.767C289.468 272.965 289.534 273.124 289.666 273.244C289.798 273.364 289.96 273.424 290.152 273.424ZM291.007 270.022C291.391 270.022 291.676 269.938 291.862 269.77C292.048 269.602 292.141 269.371 292.141 269.077C292.141 268.789 292.048 268.561 291.862 268.393C291.676 268.225 291.391 268.141 291.007 268.141C290.623 268.141 290.335 268.225 290.143 268.393C289.957 268.561 289.864 268.789 289.864 269.077C289.864 269.263 289.906 269.428 289.99 269.572C290.074 269.716 290.2 269.827 290.368 269.905C290.536 269.983 290.749 270.022 291.007 270.022Z" fill="#4D4D4D"/>
<path d="M302.042 272.497C301.706 272.497 301.382 272.464 301.07 272.398C300.764 272.332 300.491 272.227 300.251 272.083C300.011 271.933 299.819 271.741 299.675 271.507C299.537 271.273 299.468 270.985 299.468 270.643C299.468 270.613 299.468 270.583 299.468 270.553C299.474 270.523 299.477 270.493 299.477 270.463H300.341C300.341 270.481 300.338 270.511 300.332 270.553C300.332 270.589 300.332 270.622 300.332 270.652C300.332 270.892 300.404 271.096 300.548 271.264C300.692 271.432 300.89 271.558 301.142 271.642C301.4 271.72 301.691 271.759 302.015 271.759C302.159 271.759 302.309 271.75 302.465 271.732C302.627 271.714 302.78 271.684 302.924 271.642C303.074 271.594 303.206 271.534 303.32 271.462C303.44 271.384 303.533 271.291 303.599 271.183C303.671 271.069 303.707 270.931 303.707 270.769C303.707 270.565 303.647 270.397 303.527 270.265C303.413 270.127 303.26 270.016 303.068 269.932C302.876 269.842 302.657 269.764 302.411 269.698C302.171 269.626 301.922 269.557 301.664 269.491C301.406 269.425 301.154 269.35 300.908 269.266C300.668 269.176 300.452 269.068 300.26 268.942C300.068 268.81 299.912 268.648 299.792 268.456C299.678 268.264 299.621 268.03 299.621 267.754C299.621 267.496 299.672 267.265 299.774 267.061C299.882 266.857 300.038 266.686 300.242 266.548C300.452 266.404 300.71 266.296 301.016 266.224C301.322 266.146 301.673 266.107 302.069 266.107C302.393 266.107 302.693 266.143 302.969 266.215C303.251 266.281 303.497 266.386 303.707 266.53C303.923 266.668 304.091 266.845 304.211 267.061C304.331 267.277 304.391 267.538 304.391 267.844V267.952H303.545V267.817C303.545 267.613 303.482 267.439 303.356 267.295C303.23 267.151 303.056 267.04 302.834 266.962C302.618 266.884 302.372 266.845 302.096 266.845C301.736 266.845 301.436 266.881 301.196 266.953C300.956 267.019 300.776 267.118 300.656 267.25C300.542 267.376 300.485 267.52 300.485 267.682C300.485 267.868 300.542 268.024 300.656 268.15C300.776 268.276 300.932 268.381 301.124 268.465C301.316 268.543 301.535 268.615 301.781 268.681C302.027 268.747 302.276 268.816 302.528 268.888C302.786 268.954 303.035 269.032 303.275 269.122C303.521 269.206 303.74 269.314 303.932 269.446C304.13 269.572 304.286 269.734 304.4 269.932C304.514 270.124 304.571 270.361 304.571 270.643C304.571 271.081 304.463 271.438 304.247 271.714C304.031 271.984 303.734 272.182 303.356 272.308C302.978 272.434 302.54 272.497 302.042 272.497ZM307.747 272.497C307.279 272.497 306.883 272.41 306.559 272.236C306.241 272.056 305.998 271.783 305.83 271.417C305.668 271.051 305.587 270.586 305.587 270.022C305.587 269.452 305.668 268.987 305.83 268.627C305.998 268.261 306.244 267.991 306.568 267.817C306.892 267.637 307.297 267.547 307.783 267.547C308.227 267.547 308.599 267.634 308.899 267.808C309.199 267.976 309.424 268.231 309.574 268.573C309.73 268.909 309.808 269.332 309.808 269.842V270.22H306.406C306.418 270.598 306.472 270.91 306.568 271.156C306.67 271.396 306.82 271.573 307.018 271.687C307.216 271.795 307.465 271.849 307.765 271.849C307.969 271.849 308.146 271.825 308.296 271.777C308.452 271.723 308.581 271.648 308.683 271.552C308.791 271.456 308.872 271.342 308.926 271.21C308.98 271.078 309.01 270.934 309.016 270.778H309.79C309.784 271.03 309.736 271.264 309.646 271.48C309.556 271.69 309.424 271.87 309.25 272.02C309.076 272.17 308.863 272.287 308.611 272.371C308.359 272.455 308.071 272.497 307.747 272.497ZM306.424 269.626H308.989C308.989 269.362 308.959 269.14 308.899 268.96C308.839 268.78 308.752 268.633 308.638 268.519C308.53 268.405 308.401 268.324 308.251 268.276C308.107 268.222 307.942 268.195 307.756 268.195C307.48 268.195 307.246 268.246 307.054 268.348C306.862 268.45 306.715 268.606 306.613 268.816C306.511 269.026 306.448 269.296 306.424 269.626ZM310.967 273.946V267.655H311.597L311.678 268.33H311.741C311.903 268.066 312.11 267.871 312.362 267.745C312.614 267.613 312.899 267.547 313.217 267.547C313.613 267.547 313.949 267.634 314.225 267.808C314.501 267.982 314.714 268.255 314.864 268.627C315.014 268.993 315.089 269.47 315.089 270.058C315.089 270.61 315.011 271.069 314.855 271.435C314.705 271.795 314.492 272.062 314.216 272.236C313.94 272.41 313.619 272.497 313.253 272.497C313.049 272.497 312.857 272.473 312.677 272.425C312.497 272.377 312.335 272.302 312.191 272.2C312.047 272.092 311.921 271.957 311.813 271.795H311.759V273.946H310.967ZM313.001 271.804C313.295 271.804 313.535 271.747 313.721 271.633C313.907 271.513 314.045 271.33 314.135 271.084C314.225 270.832 314.27 270.511 314.27 270.121V269.932C314.27 269.518 314.222 269.188 314.126 268.942C314.03 268.69 313.889 268.51 313.703 268.402C313.523 268.294 313.298 268.24 313.028 268.24C312.734 268.24 312.491 268.306 312.299 268.438C312.113 268.564 311.975 268.756 311.885 269.014C311.801 269.272 311.759 269.587 311.759 269.959V270.094C311.759 270.424 311.789 270.7 311.849 270.922C311.915 271.138 312.005 271.312 312.119 271.444C312.239 271.576 312.374 271.669 312.524 271.723C312.674 271.777 312.833 271.804 313.001 271.804Z" fill="#4D4D4D"/>
<path d="M324.546 272.497C323.904 272.497 323.352 272.38 322.89 272.146C322.434 271.912 322.08 271.558 321.828 271.084C321.582 270.61 321.459 270.016 321.459 269.302C321.459 268.582 321.582 267.988 321.828 267.52C322.08 267.046 322.434 266.692 322.89 266.458C323.352 266.224 323.904 266.107 324.546 266.107C325.188 266.107 325.737 266.224 326.193 266.458C326.655 266.692 327.009 267.046 327.255 267.52C327.507 267.988 327.633 268.582 327.633 269.302C327.633 270.016 327.507 270.61 327.255 271.084C327.009 271.558 326.655 271.912 326.193 272.146C325.737 272.38 325.188 272.497 324.546 272.497ZM324.546 271.759C324.882 271.759 325.185 271.714 325.455 271.624C325.731 271.534 325.962 271.393 326.148 271.201C326.34 271.003 326.487 270.757 326.589 270.463C326.691 270.163 326.742 269.809 326.742 269.401V269.212C326.742 268.798 326.691 268.444 326.589 268.15C326.487 267.85 326.34 267.604 326.148 267.412C325.962 267.214 325.731 267.07 325.455 266.98C325.185 266.89 324.882 266.845 324.546 266.845C324.204 266.845 323.898 266.89 323.628 266.98C323.358 267.07 323.127 267.214 322.935 267.412C322.743 267.604 322.596 267.85 322.494 268.15C322.398 268.444 322.35 268.798 322.35 269.212V269.401C322.35 269.809 322.398 270.163 322.494 270.463C322.596 270.757 322.743 271.003 322.935 271.201C323.127 271.393 323.358 271.534 323.628 271.624C323.898 271.714 324.204 271.759 324.546 271.759ZM330.694 272.497C330.238 272.497 329.854 272.41 329.542 272.236C329.236 272.056 329.002 271.783 328.84 271.417C328.684 271.045 328.606 270.58 328.606 270.022C328.606 269.464 328.684 269.002 328.84 268.636C329.002 268.27 329.239 267.997 329.551 267.817C329.869 267.637 330.259 267.547 330.721 267.547C331.045 267.547 331.324 267.589 331.558 267.673C331.798 267.757 331.996 267.88 332.152 268.042C332.308 268.204 332.422 268.399 332.494 268.627C332.572 268.855 332.611 269.116 332.611 269.41H331.81C331.81 269.134 331.771 268.909 331.693 268.735C331.621 268.555 331.504 268.423 331.342 268.339C331.18 268.249 330.967 268.204 330.703 268.204C330.439 268.204 330.211 268.264 330.019 268.384C329.827 268.498 329.68 268.681 329.578 268.933C329.476 269.185 329.425 269.518 329.425 269.932V270.121C329.425 270.511 329.473 270.835 329.569 271.093C329.671 271.351 329.818 271.54 330.01 271.66C330.202 271.78 330.436 271.84 330.712 271.84C330.982 271.84 331.198 271.792 331.36 271.696C331.528 271.6 331.648 271.462 331.72 271.282C331.798 271.102 331.837 270.886 331.837 270.634H332.611C332.611 270.898 332.572 271.144 332.494 271.372C332.422 271.6 332.308 271.798 332.152 271.966C331.996 272.134 331.798 272.266 331.558 272.362C331.318 272.452 331.03 272.497 330.694 272.497ZM334.848 272.497C334.602 272.497 334.41 272.452 334.272 272.362C334.134 272.266 334.035 272.143 333.975 271.993C333.915 271.837 333.885 271.672 333.885 271.498V268.321H333.273V267.655H333.903L334.047 266.332H334.677V267.655H335.568V268.321H334.677V271.381C334.677 271.531 334.704 271.645 334.758 271.723C334.812 271.795 334.914 271.831 335.064 271.831H335.568V272.353C335.508 272.383 335.436 272.407 335.352 272.425C335.268 272.443 335.181 272.458 335.091 272.47C335.007 272.488 334.926 272.497 334.848 272.497Z" fill="#4D4D4D"/>
<path d="M341.774 272.389V266.215H342.602L345.599 270.283C345.629 270.319 345.668 270.373 345.716 270.445C345.764 270.517 345.812 270.589 345.86 270.661C345.908 270.727 345.947 270.787 345.977 270.841H346.013C346.013 270.745 346.013 270.652 346.013 270.562C346.013 270.466 346.013 270.373 346.013 270.283V266.215H346.85V272.389H346.067L343.034 268.249C342.992 268.183 342.929 268.09 342.845 267.97C342.767 267.85 342.701 267.754 342.647 267.682H342.602C342.602 267.778 342.602 267.874 342.602 267.97C342.602 268.06 342.602 268.153 342.602 268.249V272.389H341.774ZM350.372 272.497C349.892 272.497 349.487 272.41 349.157 272.236C348.833 272.056 348.584 271.783 348.41 271.417C348.242 271.051 348.158 270.586 348.158 270.022C348.158 269.452 348.242 268.987 348.41 268.627C348.584 268.261 348.833 267.991 349.157 267.817C349.487 267.637 349.892 267.547 350.372 267.547C350.852 267.547 351.254 267.637 351.578 267.817C351.908 267.991 352.157 268.261 352.325 268.627C352.493 268.987 352.577 269.452 352.577 270.022C352.577 270.586 352.493 271.051 352.325 271.417C352.157 271.783 351.908 272.056 351.578 272.236C351.254 272.41 350.852 272.497 350.372 272.497ZM350.372 271.831C350.678 271.831 350.933 271.771 351.137 271.651C351.341 271.531 351.494 271.345 351.596 271.093C351.704 270.835 351.758 270.511 351.758 270.121V269.923C351.758 269.527 351.704 269.203 351.596 268.951C351.494 268.699 351.341 268.513 351.137 268.393C350.933 268.273 350.678 268.213 350.372 268.213C350.066 268.213 349.808 268.273 349.598 268.393C349.394 268.513 349.241 268.699 349.139 268.951C349.037 269.203 348.986 269.527 348.986 269.923V270.121C348.986 270.511 349.037 270.835 349.139 271.093C349.241 271.345 349.394 271.531 349.598 271.651C349.808 271.771 350.066 271.831 350.372 271.831ZM354.948 272.389L353.193 267.655H354.021L354.885 270.022C354.927 270.136 354.975 270.28 355.029 270.454C355.083 270.622 355.137 270.796 355.191 270.976C355.251 271.15 355.299 271.306 355.335 271.444H355.38C355.422 271.312 355.47 271.159 355.524 270.985C355.578 270.805 355.632 270.631 355.686 270.463C355.746 270.289 355.797 270.142 355.839 270.022L356.694 267.655H357.495L355.74 272.389H354.948Z" fill="#4D4D4D"/>
<path d="M363.774 272.389V266.215H366.078C366.726 266.215 367.278 266.323 367.734 266.539C368.19 266.755 368.538 267.091 368.778 267.547C369.024 267.997 369.147 268.582 369.147 269.302C369.147 270.01 369.024 270.592 368.778 271.048C368.538 271.504 368.19 271.843 367.734 272.065C367.278 272.281 366.726 272.389 366.078 272.389H363.774ZM364.629 271.651H366.06C366.402 271.651 366.708 271.609 366.978 271.525C367.248 271.435 367.479 271.3 367.671 271.12C367.863 270.94 368.007 270.709 368.103 270.427C368.205 270.139 368.256 269.797 368.256 269.401V269.221C368.256 268.813 368.205 268.468 368.103 268.186C368.007 267.898 367.863 267.664 367.671 267.484C367.485 267.304 367.257 267.172 366.987 267.088C366.717 266.998 366.408 266.953 366.06 266.953H364.629V271.651ZM372.3 272.497C371.832 272.497 371.436 272.41 371.112 272.236C370.794 272.056 370.551 271.783 370.383 271.417C370.221 271.051 370.14 270.586 370.14 270.022C370.14 269.452 370.221 268.987 370.383 268.627C370.551 268.261 370.797 267.991 371.121 267.817C371.445 267.637 371.85 267.547 372.336 267.547C372.78 267.547 373.152 267.634 373.452 267.808C373.752 267.976 373.977 268.231 374.127 268.573C374.283 268.909 374.361 269.332 374.361 269.842V270.22H370.959C370.971 270.598 371.025 270.91 371.121 271.156C371.223 271.396 371.373 271.573 371.571 271.687C371.769 271.795 372.018 271.849 372.318 271.849C372.522 271.849 372.699 271.825 372.849 271.777C373.005 271.723 373.134 271.648 373.236 271.552C373.344 271.456 373.425 271.342 373.479 271.21C373.533 271.078 373.563 270.934 373.569 270.778H374.343C374.337 271.03 374.289 271.264 374.199 271.48C374.109 271.69 373.977 271.87 373.803 272.02C373.629 272.17 373.416 272.287 373.164 272.371C372.912 272.455 372.624 272.497 372.3 272.497ZM370.977 269.626H373.542C373.542 269.362 373.512 269.14 373.452 268.96C373.392 268.78 373.305 268.633 373.191 268.519C373.083 268.405 372.954 268.324 372.804 268.276C372.66 268.222 372.495 268.195 372.309 268.195C372.033 268.195 371.799 268.246 371.607 268.348C371.415 268.45 371.268 268.606 371.166 268.816C371.064 269.026 371.001 269.296 370.977 269.626ZM377.321 272.497C376.865 272.497 376.481 272.41 376.169 272.236C375.863 272.056 375.629 271.783 375.467 271.417C375.311 271.045 375.233 270.58 375.233 270.022C375.233 269.464 375.311 269.002 375.467 268.636C375.629 268.27 375.866 267.997 376.178 267.817C376.496 267.637 376.886 267.547 377.348 267.547C377.672 267.547 377.951 267.589 378.185 267.673C378.425 267.757 378.623 267.88 378.779 268.042C378.935 268.204 379.049 268.399 379.121 268.627C379.199 268.855 379.238 269.116 379.238 269.41H378.437C378.437 269.134 378.398 268.909 378.32 268.735C378.248 268.555 378.131 268.423 377.969 268.339C377.807 268.249 377.594 268.204 377.33 268.204C377.066 268.204 376.838 268.264 376.646 268.384C376.454 268.498 376.307 268.681 376.205 268.933C376.103 269.185 376.052 269.518 376.052 269.932V270.121C376.052 270.511 376.1 270.835 376.196 271.093C376.298 271.351 376.445 271.54 376.637 271.66C376.829 271.78 377.063 271.84 377.339 271.84C377.609 271.84 377.825 271.792 377.987 271.696C378.155 271.6 378.275 271.462 378.347 271.282C378.425 271.102 378.464 270.886 378.464 270.634H379.238C379.238 270.898 379.199 271.144 379.121 271.372C379.049 271.6 378.935 271.798 378.779 271.966C378.623 272.134 378.425 272.266 378.185 272.362C377.945 272.452 377.657 272.497 377.321 272.497Z" fill="#4D4D4D"/>
<path d="M101 107.389H395V283.389C395 287.255 391.866 290.389 388 290.389H108C104.134 290.389 101 287.255 101 283.389V107.389Z" stroke="#146EB4" stroke-width="2"/>
<rect x="131" y="155" width="37.9986" height="38" rx="3" fill="white"/>
<path d="M146.165 165.778C146.397 165.168 146.716 164.606 147.189 164.151C149.084 162.301 152.216 162.766 153.501 165.091C154.468 166.854 155.492 168.578 156.488 170.322C158.15 173.218 159.832 176.115 161.475 179.021C162.858 181.453 161.359 184.523 158.614 184.94C156.933 185.192 155.357 184.417 154.487 182.906C153.028 180.358 151.558 177.81 150.099 175.272C150.07 175.214 150.031 175.165 149.993 175.117C149.838 174.991 149.77 174.807 149.674 174.642C149.026 173.499 148.359 172.366 147.711 171.232C147.296 170.496 146.861 169.77 146.445 169.033C146.068 168.375 145.894 167.658 145.914 166.902C145.943 166.515 145.991 166.127 146.165 165.778Z" fill="#3C8BD9"/>
<path d="M146.17 165.778C146.083 166.127 146.005 166.475 145.986 166.843C145.957 167.657 146.16 168.413 146.566 169.12C147.629 170.951 148.692 172.791 149.746 174.632C149.843 174.797 149.92 174.961 150.017 175.116C149.437 176.124 148.857 177.122 148.267 178.129C147.455 179.534 146.643 180.948 145.822 182.353C145.783 182.353 145.773 182.334 145.764 182.304C145.754 182.227 145.783 182.159 145.802 182.082C146.199 180.629 145.87 179.34 144.875 178.236C144.266 177.567 143.492 177.19 142.603 177.064C141.443 176.899 140.419 177.199 139.5 177.926C139.336 178.052 139.23 178.236 139.036 178.333C138.998 178.333 138.978 178.313 138.969 178.284C139.433 177.48 139.887 176.676 140.351 175.872C142.265 172.54 144.179 169.207 146.102 165.884C146.121 165.846 146.15 165.817 146.17 165.778Z" fill="#FABC04"/>
<path d="M139.005 178.314C139.189 178.149 139.363 177.975 139.556 177.82C141.905 175.96 145.433 177.306 145.945 180.251C146.071 180.958 146.003 181.636 145.79 182.314C145.781 182.373 145.771 182.421 145.752 182.479C145.665 182.634 145.587 182.799 145.491 182.954C144.63 184.378 143.364 185.085 141.702 184.978C139.798 184.843 138.299 183.409 138.038 181.51C137.913 180.59 138.096 179.728 138.57 178.934C138.667 178.759 138.783 178.604 138.889 178.43C138.937 178.391 138.918 178.314 139.005 178.314Z" fill="#34A852"/>
<rect x="131" y="155" width="37.9986" height="38" rx="3" stroke="#5CAAE7" stroke-width="2"/>
<g filter="url(#filter0_d_4143_156661)">
<path d="M217 142.5H274C274.828 142.5 275.5 143.172 275.5 144V163C275.5 163.828 274.828 164.5 274 164.5H253.699C253.08 164.5 252.483 164.73 252.024 165.144L246.733 169.919C246.162 170.435 245.294 170.435 244.723 169.919L239.433 165.144C238.973 164.73 238.376 164.5 237.758 164.5H217C216.172 164.5 215.5 163.828 215.5 163V144C215.5 143.172 216.172 142.5 217 142.5Z" fill="white" stroke="#146EB4"/>
<path d="M226.356 157L223.727 154.371V153.051H226.004C226.275 153.051 226.499 152.992 226.675 152.875C226.851 152.75 226.968 152.578 227.027 152.358H223.727V151.456H227.038C226.972 151.236 226.851 151.067 226.675 150.95C226.506 150.825 226.282 150.763 226.004 150.763H223.727V149.454H229.711V150.345H228.314C228.431 150.492 228.523 150.66 228.589 150.851C228.662 151.042 228.713 151.243 228.743 151.456H229.711V152.358H228.721C228.669 152.769 228.537 153.124 228.325 153.425C228.119 153.726 227.841 153.96 227.489 154.129C227.137 154.29 226.719 154.371 226.235 154.371H225.982L228.567 157H226.356Z" fill="#146EB4"/>
<path d="M233.341 157.132C232.703 157.132 232.175 157.037 231.757 156.846C231.347 156.655 231.039 156.395 230.833 156.065C230.635 155.728 230.536 155.35 230.536 154.932C230.536 154.507 230.635 154.147 230.833 153.854C231.039 153.553 231.347 153.315 231.757 153.139C231.405 152.926 231.149 152.681 230.987 152.402C230.833 152.116 230.756 151.797 230.756 151.445C230.756 151.034 230.855 150.671 231.053 150.356C231.251 150.033 231.545 149.78 231.933 149.597C232.322 149.414 232.791 149.322 233.341 149.322C233.884 149.322 234.346 149.414 234.727 149.597C235.116 149.78 235.413 150.033 235.618 150.356C235.824 150.671 235.926 151.034 235.926 151.445C235.926 151.797 235.842 152.116 235.673 152.402C235.512 152.688 235.259 152.934 234.914 153.139C235.332 153.315 235.64 153.553 235.838 153.854C236.036 154.147 236.135 154.507 236.135 154.932C236.135 155.35 236.033 155.728 235.827 156.065C235.629 156.395 235.321 156.655 234.903 156.846C234.493 157.037 233.972 157.132 233.341 157.132ZM233.341 155.955C233.73 155.955 234.031 155.856 234.243 155.658C234.463 155.46 234.573 155.189 234.573 154.844C234.573 154.485 234.463 154.21 234.243 154.019C234.023 153.821 233.723 153.722 233.341 153.722C232.953 153.722 232.648 153.821 232.428 154.019C232.208 154.21 232.098 154.485 232.098 154.844C232.098 155.189 232.205 155.46 232.417 155.658C232.637 155.856 232.945 155.955 233.341 155.955ZM233.341 152.567C233.671 152.567 233.939 152.479 234.144 152.303C234.35 152.127 234.452 151.87 234.452 151.533C234.452 151.196 234.35 150.939 234.144 150.763C233.946 150.58 233.679 150.488 233.341 150.488C232.997 150.488 232.725 150.58 232.527 150.763C232.329 150.939 232.23 151.196 232.23 151.533C232.23 151.87 232.329 152.127 232.527 152.303C232.725 152.479 232.997 152.567 233.341 152.567Z" fill="#146EB4"/>
<path d="M240.114 157.132C239.476 157.132 238.948 157.037 238.53 156.846C238.119 156.655 237.811 156.395 237.606 156.065C237.408 155.728 237.309 155.35 237.309 154.932C237.309 154.507 237.408 154.147 237.606 153.854C237.811 153.553 238.119 153.315 238.53 153.139C238.178 152.926 237.921 152.681 237.76 152.402C237.606 152.116 237.529 151.797 237.529 151.445C237.529 151.034 237.628 150.671 237.826 150.356C238.024 150.033 238.317 149.78 238.706 149.597C239.095 149.414 239.564 149.322 240.114 149.322C240.657 149.322 241.119 149.414 241.5 149.597C241.889 149.78 242.186 150.033 242.391 150.356C242.596 150.671 242.699 151.034 242.699 151.445C242.699 151.797 242.615 152.116 242.446 152.402C242.285 152.688 242.032 152.934 241.687 153.139C242.105 153.315 242.413 153.553 242.611 153.854C242.809 154.147 242.908 154.507 242.908 154.932C242.908 155.35 242.805 155.728 242.6 156.065C242.402 156.395 242.094 156.655 241.676 156.846C241.265 157.037 240.745 157.132 240.114 157.132ZM240.114 155.955C240.503 155.955 240.803 155.856 241.016 155.658C241.236 155.46 241.346 155.189 241.346 154.844C241.346 154.485 241.236 154.21 241.016 154.019C240.796 153.821 240.495 153.722 240.114 153.722C239.725 153.722 239.421 153.821 239.201 154.019C238.981 154.21 238.871 154.485 238.871 154.844C238.871 155.189 238.977 155.46 239.19 155.658C239.41 155.856 239.718 155.955 240.114 155.955ZM240.114 152.567C240.444 152.567 240.712 152.479 240.917 152.303C241.122 152.127 241.225 151.87 241.225 151.533C241.225 151.196 241.122 150.939 240.917 150.763C240.719 150.58 240.451 150.488 240.114 150.488C239.769 150.488 239.498 150.58 239.3 150.763C239.102 150.939 239.003 151.196 239.003 151.533C239.003 151.87 239.102 152.127 239.3 152.303C239.498 152.479 239.769 152.567 240.114 152.567Z" fill="#146EB4"/>
<path d="M244.434 158.859V158.221C244.617 158.192 244.771 158.118 244.896 158.001C245.02 157.891 245.116 157.748 245.182 157.572C245.248 157.396 245.281 157.205 245.281 157H244.5V155.427H246.095V156.846C246.095 157.293 246.018 157.656 245.864 157.935C245.71 158.214 245.504 158.426 245.248 158.573C244.998 158.72 244.727 158.815 244.434 158.859Z" fill="#146EB4"/>
<path d="M250.381 157.132C249.824 157.132 249.358 157.029 248.984 156.824C248.617 156.619 248.342 156.336 248.159 155.977C247.976 155.618 247.884 155.203 247.884 154.734H249.38C249.38 154.991 249.417 155.211 249.49 155.394C249.563 155.577 249.677 155.717 249.831 155.812C249.985 155.9 250.179 155.944 250.414 155.944C250.759 155.944 251.019 155.856 251.195 155.68C251.371 155.497 251.488 155.233 251.547 154.888C251.613 154.536 251.65 154.118 251.657 153.634C251.591 153.707 251.481 153.795 251.327 153.898C251.18 154.001 250.993 154.092 250.766 154.173C250.546 154.246 250.3 154.283 250.029 154.283C249.508 154.283 249.072 154.18 248.72 153.975C248.368 153.77 248.1 153.48 247.917 153.106C247.741 152.732 247.653 152.31 247.653 151.841C247.653 151.313 247.767 150.862 247.994 150.488C248.221 150.114 248.537 149.828 248.94 149.63C249.343 149.425 249.805 149.322 250.326 149.322C250.788 149.322 251.199 149.388 251.558 149.52C251.917 149.645 252.218 149.85 252.46 150.136C252.709 150.422 252.896 150.803 253.021 151.28C253.153 151.749 253.219 152.325 253.219 153.007C253.219 153.777 253.157 154.426 253.032 154.954C252.907 155.482 252.724 155.907 252.482 156.23C252.247 156.545 251.95 156.776 251.591 156.923C251.239 157.062 250.836 157.132 250.381 157.132ZM250.381 153.161C250.652 153.161 250.876 153.106 251.052 152.996C251.235 152.879 251.367 152.721 251.448 152.523C251.536 152.318 251.58 152.087 251.58 151.83C251.58 151.566 251.536 151.335 251.448 151.137C251.367 150.939 251.235 150.785 251.052 150.675C250.876 150.558 250.652 150.499 250.381 150.499C250.117 150.499 249.897 150.558 249.721 150.675C249.545 150.792 249.413 150.95 249.325 151.148C249.237 151.346 249.193 151.573 249.193 151.83C249.193 152.094 249.237 152.325 249.325 152.523C249.413 152.721 249.545 152.879 249.721 152.996C249.897 153.106 250.117 153.161 250.381 153.161Z" fill="#146EB4"/>
<path d="M254.525 157V156.604C254.525 156.274 254.584 155.973 254.701 155.702C254.818 155.431 254.98 155.181 255.185 154.954C255.39 154.727 255.618 154.51 255.867 154.305C256.116 154.1 256.373 153.902 256.637 153.711C256.938 153.484 257.22 153.26 257.484 153.04C257.755 152.82 257.975 152.585 258.144 152.336C258.313 152.079 258.397 151.797 258.397 151.489C258.397 151.342 258.36 151.196 258.287 151.049C258.214 150.902 258.096 150.781 257.935 150.686C257.781 150.583 257.572 150.532 257.308 150.532C257.037 150.532 256.813 150.58 256.637 150.675C256.461 150.763 256.325 150.891 256.23 151.06C256.142 151.221 256.098 151.423 256.098 151.665V152.061H254.624C254.617 152.024 254.609 151.973 254.602 151.907C254.595 151.841 254.591 151.76 254.591 151.665C254.591 151.13 254.712 150.69 254.954 150.345C255.203 150 255.537 149.744 255.955 149.575C256.38 149.406 256.861 149.322 257.396 149.322C257.88 149.322 258.283 149.392 258.606 149.531C258.936 149.663 259.2 149.843 259.398 150.07C259.596 150.29 259.735 150.532 259.816 150.796C259.904 151.053 259.948 151.302 259.948 151.544C259.948 151.889 259.886 152.204 259.761 152.49C259.636 152.776 259.468 153.044 259.255 153.293C259.042 153.542 258.789 153.784 258.496 154.019C258.203 154.246 257.891 154.474 257.561 154.701C257.392 154.818 257.231 154.932 257.077 155.042C256.93 155.152 256.802 155.258 256.692 155.361C256.589 155.456 256.509 155.552 256.45 155.647H260.003V157H254.525Z" fill="#146EB4"/>
<path d="M264.026 157.132C263.454 157.132 262.955 157.033 262.53 156.835C262.112 156.63 261.789 156.34 261.562 155.966C261.334 155.592 261.221 155.148 261.221 154.635H262.728C262.728 154.892 262.775 155.123 262.871 155.328C262.973 155.526 263.12 155.68 263.311 155.79C263.501 155.893 263.725 155.944 263.982 155.944C264.231 155.944 264.444 155.889 264.62 155.779C264.803 155.669 264.946 155.511 265.049 155.306C265.151 155.093 265.203 154.833 265.203 154.525C265.203 154.239 265.151 154.001 265.049 153.81C264.953 153.612 264.814 153.465 264.631 153.37C264.455 153.267 264.246 153.216 264.004 153.216C263.813 153.216 263.644 153.249 263.498 153.315C263.358 153.374 263.237 153.447 263.135 153.535C263.032 153.623 262.944 153.718 262.871 153.821L261.496 153.645L261.804 149.454H266.336V150.807H263.08L262.959 152.512C263.039 152.453 263.146 152.391 263.278 152.325C263.41 152.259 263.571 152.2 263.762 152.149C263.96 152.09 264.187 152.061 264.444 152.061C264.884 152.061 265.276 152.153 265.621 152.336C265.973 152.519 266.251 152.794 266.457 153.161C266.662 153.52 266.765 153.979 266.765 154.536C266.765 155.071 266.651 155.533 266.424 155.922C266.204 156.311 265.888 156.611 265.478 156.824C265.074 157.029 264.59 157.132 264.026 157.132Z" fill="#146EB4"/>
</g>
<g filter="url(#filter1_d_4143_156661)">
<rect x="270" y="55" width="110" height="40" rx="4" fill="white"/>
<circle cx="296" cy="75" r="10" fill="#C1E5FF"/>
<circle cx="296.003" cy="71.3635" r="4.04959" fill="#146EB4"/>
<circle cx="296.003" cy="71.3635" r="4.04959" fill="#146EB4"/>
<path fill-rule="evenodd" clip-rule="evenodd" d="M288.174 81.2224C289.355 79.0842 292.413 77.5608 296 77.5608C299.588 77.5608 302.647 79.085 303.828 81.2241C301.995 83.5242 299.171 84.9985 296.001 84.9985C292.831 84.9985 290.006 83.5235 288.174 81.2224Z" fill="#146EB4"/>
<path d="M314.06 79L317.264 70.768H319.232L322.448 79H320.756L320.096 77.248H316.328L315.668 79H314.06ZM316.82 75.928H319.592L318.764 73.696C318.732 73.616 318.692 73.516 318.644 73.396C318.604 73.268 318.56 73.132 318.512 72.988C318.464 72.836 318.416 72.684 318.368 72.532C318.32 72.38 318.276 72.244 318.236 72.124H318.176C318.128 72.284 318.068 72.468 317.996 72.676C317.932 72.884 317.868 73.08 317.804 73.264C317.74 73.448 317.688 73.592 317.648 73.696L316.82 75.928ZM325.484 79.144C324.972 79.144 324.528 79.028 324.152 78.796C323.776 78.564 323.484 78.204 323.276 77.716C323.076 77.228 322.976 76.6 322.976 75.832C322.976 75.072 323.08 74.452 323.288 73.972C323.496 73.484 323.784 73.124 324.152 72.892C324.52 72.66 324.936 72.544 325.4 72.544C325.688 72.544 325.952 72.576 326.192 72.64C326.432 72.704 326.644 72.804 326.828 72.94C327.012 73.068 327.168 73.228 327.296 73.42H327.368V70.324H328.832V79H327.62L327.5 78.16H327.416C327.216 78.488 326.944 78.736 326.6 78.904C326.264 79.064 325.892 79.144 325.484 79.144ZM325.94 77.884C326.276 77.884 326.548 77.808 326.756 77.656C326.964 77.504 327.116 77.284 327.212 76.996C327.316 76.708 327.368 76.356 327.368 75.94V75.784C327.368 75.472 327.34 75.192 327.284 74.944C327.228 74.696 327.14 74.488 327.02 74.32C326.908 74.152 326.76 74.024 326.576 73.936C326.4 73.848 326.188 73.804 325.94 73.804C325.58 73.804 325.292 73.876 325.076 74.02C324.868 74.156 324.716 74.372 324.62 74.668C324.532 74.956 324.488 75.324 324.488 75.772V75.94C324.488 76.38 324.532 76.744 324.62 77.032C324.716 77.32 324.868 77.536 325.076 77.68C325.292 77.816 325.58 77.884 325.94 77.884ZM332.585 79.144C332.073 79.144 331.629 79.028 331.253 78.796C330.877 78.564 330.585 78.204 330.377 77.716C330.177 77.228 330.077 76.6 330.077 75.832C330.077 75.072 330.181 74.452 330.389 73.972C330.597 73.484 330.885 73.124 331.253 72.892C331.621 72.66 332.037 72.544 332.501 72.544C332.789 72.544 333.053 72.576 333.293 72.64C333.533 72.704 333.745 72.804 333.929 72.94C334.113 73.068 334.269 73.228 334.397 73.42H334.469V70.324H335.933V79H334.721L334.601 78.16H334.517C334.317 78.488 334.045 78.736 333.701 78.904C333.365 79.064 332.993 79.144 332.585 79.144ZM333.041 77.884C333.377 77.884 333.649 77.808 333.857 77.656C334.065 77.504 334.217 77.284 334.313 76.996C334.417 76.708 334.469 76.356 334.469 75.94V75.784C334.469 75.472 334.441 75.192 334.385 74.944C334.329 74.696 334.241 74.488 334.121 74.32C334.009 74.152 333.861 74.024 333.677 73.936C333.501 73.848 333.289 73.804 333.041 73.804C332.681 73.804 332.393 73.876 332.177 74.02C331.969 74.156 331.817 74.372 331.721 74.668C331.633 74.956 331.589 75.324 331.589 75.772V75.94C331.589 76.38 331.633 76.744 331.721 77.032C331.817 77.32 331.969 77.536 332.177 77.68C332.393 77.816 332.681 77.884 333.041 77.884ZM342.353 79.144C341.897 79.144 341.497 79.096 341.153 79C340.809 78.896 340.521 78.756 340.289 78.58C340.057 78.404 339.881 78.2 339.761 77.968C339.649 77.728 339.593 77.468 339.593 77.188C339.593 77.148 339.593 77.112 339.593 77.08C339.601 77.048 339.605 77.024 339.605 77.008H341.045C341.045 77.024 341.045 77.04 341.045 77.056C341.045 77.072 341.045 77.088 341.045 77.104C341.053 77.32 341.121 77.496 341.249 77.632C341.377 77.76 341.545 77.852 341.753 77.908C341.961 77.964 342.181 77.992 342.413 77.992C342.621 77.992 342.817 77.972 343.001 77.932C343.193 77.884 343.349 77.812 343.469 77.716C343.597 77.612 343.661 77.48 343.661 77.32C343.661 77.112 343.581 76.952 343.421 76.84C343.261 76.728 343.049 76.636 342.785 76.564C342.529 76.492 342.253 76.416 341.957 76.336C341.693 76.264 341.429 76.184 341.165 76.096C340.901 76.008 340.661 75.896 340.445 75.76C340.237 75.624 340.065 75.448 339.929 75.232C339.801 75.016 339.737 74.748 339.737 74.428C339.737 74.116 339.805 73.844 339.941 73.612C340.077 73.38 340.265 73.188 340.505 73.036C340.745 72.876 341.029 72.756 341.357 72.676C341.685 72.596 342.041 72.556 342.425 72.556C342.801 72.556 343.141 72.596 343.445 72.676C343.757 72.756 344.025 72.872 344.249 73.024C344.481 73.168 344.657 73.348 344.777 73.564C344.905 73.772 344.969 74.004 344.969 74.26C344.969 74.316 344.965 74.372 344.957 74.428C344.957 74.484 344.957 74.516 344.957 74.524H343.529V74.44C343.529 74.288 343.481 74.16 343.385 74.056C343.297 73.944 343.165 73.856 342.989 73.792C342.821 73.728 342.609 73.696 342.353 73.696C342.161 73.696 341.993 73.712 341.849 73.744C341.705 73.776 341.585 73.82 341.489 73.876C341.401 73.932 341.333 73.996 341.285 74.068C341.237 74.14 341.213 74.22 341.213 74.308C341.213 74.46 341.273 74.58 341.393 74.668C341.513 74.756 341.673 74.832 341.873 74.896C342.081 74.96 342.305 75.028 342.545 75.1C342.833 75.18 343.129 75.264 343.433 75.352C343.737 75.432 344.017 75.536 344.273 75.664C344.537 75.792 344.749 75.972 344.909 76.204C345.069 76.436 345.149 76.744 345.149 77.128C345.149 77.496 345.077 77.812 344.933 78.076C344.797 78.332 344.601 78.54 344.345 78.7C344.097 78.852 343.801 78.964 343.457 79.036C343.121 79.108 342.753 79.144 342.353 79.144ZM348.053 79.144C347.661 79.144 347.353 79.068 347.129 78.916C346.905 78.756 346.745 78.556 346.649 78.316C346.561 78.068 346.517 77.816 346.517 77.56V73.888H345.761V72.688H346.553L346.817 70.924H347.981V72.688H349.073V73.888H347.981V77.416C347.981 77.584 348.025 77.716 348.113 77.812C348.201 77.9 348.333 77.944 348.509 77.944H349.073V78.952C348.993 78.984 348.893 79.012 348.773 79.036C348.661 79.068 348.541 79.092 348.413 79.108C348.285 79.132 348.165 79.144 348.053 79.144ZM351.779 79.144C351.603 79.144 351.399 79.12 351.167 79.072C350.943 79.032 350.723 78.952 350.507 78.832C350.299 78.712 350.127 78.536 349.991 78.304C349.855 78.064 349.787 77.752 349.787 77.368C349.787 76.936 349.883 76.58 350.075 76.3C350.267 76.012 350.535 75.788 350.879 75.628C351.231 75.46 351.647 75.344 352.127 75.28C352.615 75.208 353.147 75.172 353.723 75.172V74.656C353.723 74.472 353.695 74.308 353.639 74.164C353.583 74.02 353.479 73.908 353.327 73.828C353.183 73.74 352.963 73.696 352.667 73.696C352.371 73.696 352.139 73.732 351.971 73.804C351.803 73.876 351.687 73.964 351.623 74.068C351.559 74.172 351.527 74.28 351.527 74.392V74.56H350.111C350.103 74.52 350.099 74.48 350.099 74.44C350.099 74.4 350.099 74.352 350.099 74.296C350.099 73.936 350.207 73.624 350.423 73.36C350.639 73.096 350.939 72.896 351.323 72.76C351.707 72.616 352.151 72.544 352.655 72.544C353.231 72.544 353.703 72.624 354.071 72.784C354.447 72.944 354.727 73.172 354.911 73.468C355.095 73.764 355.187 74.124 355.187 74.548V77.524C355.187 77.676 355.231 77.784 355.319 77.848C355.407 77.912 355.503 77.944 355.607 77.944H355.991V78.952C355.911 78.984 355.795 79.02 355.643 79.06C355.491 79.108 355.303 79.132 355.079 79.132C354.871 79.132 354.683 79.096 354.515 79.024C354.355 78.96 354.219 78.864 354.107 78.736C353.995 78.608 353.915 78.456 353.867 78.28H353.795C353.659 78.448 353.495 78.6 353.303 78.736C353.119 78.864 352.899 78.964 352.643 79.036C352.395 79.108 352.107 79.144 351.779 79.144ZM352.223 77.944C352.463 77.944 352.675 77.908 352.859 77.836C353.051 77.764 353.207 77.664 353.327 77.536C353.455 77.408 353.551 77.252 353.615 77.068C353.687 76.884 353.723 76.684 353.723 76.468V76.18C353.283 76.18 352.875 76.208 352.499 76.264C352.131 76.32 351.835 76.424 351.611 76.576C351.395 76.728 351.287 76.944 351.287 77.224C351.287 77.368 351.319 77.496 351.383 77.608C351.455 77.712 351.559 77.796 351.695 77.86C351.839 77.916 352.015 77.944 352.223 77.944ZM357.127 79V73.888H356.215V72.688H357.127V71.884C357.127 71.604 357.171 71.34 357.259 71.092C357.355 70.836 357.519 70.628 357.751 70.468C357.983 70.308 358.307 70.228 358.723 70.228C358.843 70.228 358.963 70.236 359.083 70.252C359.211 70.268 359.331 70.292 359.443 70.324C359.555 70.348 359.651 70.376 359.731 70.408V71.428H359.131C358.955 71.428 358.819 71.476 358.723 71.572C358.635 71.66 358.591 71.792 358.591 71.968V72.688H360.511V71.884C360.511 71.604 360.559 71.34 360.655 71.092C360.751 70.836 360.915 70.628 361.147 70.468C361.379 70.308 361.703 70.228 362.119 70.228C362.231 70.228 362.347 70.236 362.467 70.252C362.595 70.268 362.715 70.292 362.827 70.324C362.939 70.348 363.035 70.376 363.115 70.408V71.428H362.515C362.339 71.428 362.203 71.476 362.107 71.572C362.019 71.66 361.975 71.792 361.975 71.968V72.688H363.115V73.888H361.975V79H360.511V73.888H358.591V79H357.127Z" fill="#146EB4"/>
<rect x="271" y="56" width="108" height="38" rx="3" stroke="#146EB4" stroke-width="2"/>
</g>
<rect x="80" y="129" width="38.0008" height="38" rx="3" fill="white"/>
<path d="M98.0862 143.687V157.14H87L98.0862 143.687Z" fill="#00393C"/>
<path d="M98.0862 138.86C98.0862 141.936 95.6036 144.431 92.5431 144.431C89.4826 144.431 87 141.936 87 138.86H98.0862Z" fill="#00393C"/>
<path d="M99.9141 157.14C99.9141 154.061 102.394 151.569 105.457 151.569C108.521 151.569 111 154.064 111 157.14H99.9141Z" fill="#00393C"/>
<path d="M99.9141 152.309V138.86H111L99.9141 152.309Z" fill="#00393C"/>
<rect x="80" y="129" width="38.0008" height="38" rx="3" stroke="#5CAAE7" stroke-width="2"/>
<rect x="80" y="181" width="38" height="38" rx="3" fill="white"/>
<path d="M111 197.677C110.996 196.432 110.501 195.238 109.621 194.358C108.741 193.477 107.549 192.98 106.305 192.977C104.075 192.977 103.371 193.858 101.024 194.152C99.6162 194.328 99.6744 193.564 98.0901 193.564C96.9169 193.564 95.7427 194.152 95.7427 194.152C95.7427 194.152 94.6286 192.8 93.9829 192.977C93.1025 193.27 93.9829 195.914 93.9829 195.914C93.513 196.779 92.9199 197.571 92.2222 198.264C91.3418 199.146 89.2882 199.616 88.2323 199.91C88.2905 194.505 92.6887 190.098 98.0901 190.098C100.36 190.092 102.561 190.882 104.311 192.33C104.721 192.213 105.249 192.155 105.777 192.095C103.71 190.063 100.929 188.923 98.0319 188.923C91.9875 188.923 87 193.917 87 200.032C87 206.147 91.9875 211.077 98.0901 211.077C103.43 211.077 107.89 207.316 108.887 202.264L107.479 202.968C106.867 204.914 105.671 206.623 104.054 207.863C102.437 209.104 100.477 209.816 98.442 209.901C99.0296 208.9 100.379 207.022 102.139 205.319C106.071 201.559 111 202.147 111 197.682V197.677ZM98.9704 197.092C98.7389 197.086 98.5183 196.992 98.3544 196.828C98.1905 196.664 98.0958 196.443 98.0901 196.211C98.0958 195.979 98.1904 195.758 98.3543 195.594C98.5182 195.43 98.7388 195.336 98.9704 195.33C99.2021 195.336 99.4227 195.43 99.5866 195.594C99.7504 195.758 99.845 195.979 99.8508 196.211C99.845 196.443 99.7504 196.664 99.5865 196.828C99.4226 196.992 99.202 197.086 98.9704 197.092" fill="#7FAD34"/>
<rect x="80" y="181" width="38" height="38" rx="3" stroke="#5CAAE7" stroke-width="2"/>
<rect x="80" y="233" width="38" height="38" rx="3" fill="white"/>
<path fill-rule="evenodd" clip-rule="evenodd" d="M110.056 255.374C110.058 255.383 110.06 255.389 110.061 255.393C110.427 255.393 111 255.817 111 256.827C111 257.837 110.581 258.981 110.482 259.235C108.974 262.853 105.374 264.867 101.086 264.739C97.0908 264.62 93.6778 262.509 92.1854 259.067C91.2828 259.068 90.3532 258.671 89.6456 258.044C88.9006 257.383 88.4413 256.529 88.3518 255.637C88.2788 254.993 88.3586 254.342 88.5848 253.735L87.7466 253.024C83.9118 249.784 95.9067 236.441 99.744 239.79C99.7648 239.807 101.052 241.072 101.052 241.072L101.766 240.77C105.13 239.375 107.861 240.048 107.864 242.273C107.864 243.431 107.128 244.779 105.946 246.005C106.374 246.402 106.716 247.023 106.913 247.732C107.078 248.257 107.107 248.789 107.122 249.129C107.143 249.601 107.167 250.7 107.167 250.719C107.181 250.723 107.263 250.746 107.357 250.772C107.464 250.802 107.586 250.835 107.641 250.851C108.544 251.103 109.187 251.441 109.501 251.771C109.815 252.101 109.971 252.42 110.028 252.795C110.081 253.097 110.073 253.631 109.676 254.228C109.753 254.405 109.82 254.586 109.877 254.771C109.967 255.053 110.035 255.297 110.056 255.374ZM92.1179 258.13C92.251 258.133 92.384 258.124 92.5153 258.102C93.917 257.863 94.2837 256.342 94.0525 254.844C93.7919 253.155 92.6502 252.559 91.8751 252.517C91.6806 252.506 91.4855 252.52 91.2944 252.558C89.9117 252.837 89.1306 254.015 89.2845 255.544C89.4236 256.928 90.8229 258.095 92.1179 258.13ZM88.984 252.973C89.4488 252.299 90.2103 251.81 91.0688 251.643C92.1664 248.7 93.9942 245.987 96.4151 244.122C98.2123 242.621 100.151 241.544 100.151 241.544C100.151 241.544 99.1069 240.333 98.7917 240.243C96.8522 239.719 92.6637 242.61 89.989 246.429C88.9074 247.975 87.3579 250.711 88.0986 252.119C88.1899 252.294 88.7062 252.742 88.984 252.973ZM104.699 257.499C104.691 257.513 104.679 257.523 104.665 257.53C104.665 257.53 103.106 258.254 100.63 257.488C100.699 258.067 101.265 258.33 101.535 258.435C101.766 258.521 102.005 258.586 102.248 258.628C105.315 259.157 108.182 257.402 108.828 256.959C108.877 256.926 108.905 256.962 108.87 257.018C108.834 257.074 108.832 257.077 108.809 257.107C108.018 258.128 105.894 259.308 103.131 259.308C101.925 259.308 100.72 258.883 100.278 258.23C99.5919 257.217 100.244 255.738 101.387 255.892L101.888 255.949C103.318 256.108 105.387 255.908 107.092 255.115C108.653 254.391 109.242 253.593 109.153 252.947C109.124 252.747 109.03 252.561 108.885 252.419C108.604 252.145 108.16 251.931 107.409 251.72C107.353 251.704 107.3 251.69 107.251 251.676C107.084 251.63 106.952 251.594 106.813 251.547C106.49 251.44 106.331 251.355 106.295 250.749C106.278 250.484 106.233 249.56 106.217 249.179C106.189 248.508 106.109 247.597 105.542 247.219C105.398 247.124 105.23 247.071 105.058 247.064C104.961 247.058 104.864 247.068 104.77 247.092C104.461 247.147 104.273 247.304 104.049 247.491C104.039 247.5 104.028 247.509 104.017 247.518C103.31 248.108 102.714 248.204 102.05 248.176C101.844 248.167 101.631 248.146 101.406 248.124C101.199 248.104 100.983 248.082 100.751 248.068L100.47 248.052C99.3583 247.998 98.1663 248.959 97.9682 250.323C97.747 251.845 98.5864 252.778 99.1324 253.384C99.2674 253.534 99.3845 253.664 99.4631 253.778C99.5245 253.852 99.5625 253.942 99.5723 254.037C99.5723 254.146 99.5012 254.234 99.4313 254.308C98.3006 255.475 97.9327 257.329 98.3619 258.874C98.4142 259.063 98.4815 259.248 98.563 259.426C99.5655 261.771 102.676 262.863 105.714 261.87C106.112 261.74 106.498 261.576 106.868 261.382C107.533 261.053 108.133 260.605 108.636 260.059C109.442 259.216 109.924 258.3 110.108 257.171C110.199 256.567 110.067 256.333 109.883 256.221C109.754 256.149 109.604 256.121 109.458 256.143C109.38 255.668 109.243 255.204 109.051 254.763C108.166 255.463 107.025 255.954 106.158 256.204C104.9 256.558 103.592 256.7 102.287 256.622C102.122 256.61 101.968 256.59 101.825 256.571C101.243 256.496 100.852 256.446 100.685 256.991C102.601 257.693 104.63 257.393 104.63 257.393C104.649 257.391 104.667 257.396 104.682 257.407C104.697 257.419 104.706 257.436 104.709 257.454C104.71 257.47 104.707 257.485 104.699 257.499ZM99.1749 243.822C98.1264 244.358 96.9559 245.314 96.0048 246.414H96.0079C96.0021 246.422 95.9991 246.432 95.9995 246.442C95.9999 246.451 96.0036 246.461 96.0099 246.468C96.0163 246.476 96.0251 246.481 96.0347 246.483C96.0444 246.485 96.0544 246.483 96.0631 246.479C96.8841 245.881 98.013 245.325 99.4846 244.965C101.136 244.562 102.727 244.731 103.699 244.954C103.747 244.965 103.778 244.881 103.735 244.856C103.093 244.496 102.107 244.251 101.409 244.246C101.401 244.246 101.393 244.244 101.387 244.239C101.38 244.235 101.375 244.229 101.371 244.222C101.368 244.215 101.366 244.207 101.367 244.2C101.368 244.192 101.37 244.184 101.375 244.178C101.501 244.013 101.648 243.865 101.813 243.739C101.82 243.733 101.825 243.725 101.828 243.716C101.83 243.707 101.83 243.697 101.826 243.689C101.823 243.68 101.817 243.673 101.81 243.667C101.802 243.662 101.793 243.66 101.783 243.66C100.788 243.721 99.6538 244.197 99.0014 244.642C98.9944 244.647 98.9859 244.65 98.9773 244.65C98.9686 244.65 98.9601 244.647 98.953 244.642C98.9458 244.638 98.9404 244.631 98.9373 244.622C98.9342 244.614 98.9337 244.606 98.9358 244.597C98.9849 244.352 99.1467 244.029 99.2301 243.878C99.2345 243.87 99.2363 243.861 99.2351 243.852C99.2339 243.844 99.23 243.835 99.2237 243.829C99.2175 243.823 99.2094 243.818 99.2006 243.817C99.1918 243.816 99.1828 243.817 99.1749 243.822ZM105.052 251.301C105.228 251.278 105.405 251.278 105.58 251.301C105.675 251.083 105.691 250.709 105.606 250.301C105.479 249.694 105.308 249.327 104.954 249.384C104.599 249.441 104.586 249.881 104.713 250.489C104.785 250.829 104.911 251.12 105.052 251.301ZM102.012 251.781L102.049 251.797C102.28 251.899 102.424 251.962 102.482 251.904C102.521 251.863 102.509 251.787 102.449 251.688C102.326 251.483 102.067 251.276 101.794 251.159C101.51 251.042 101.202 251 100.898 251.037C100.593 251.074 100.304 251.188 100.056 251.369C99.8862 251.491 99.7255 251.665 99.7494 251.769C99.7568 251.804 99.7819 251.831 99.8414 251.838C99.8964 251.844 100.005 251.809 100.151 251.763L100.151 251.763L100.151 251.763L100.151 251.763L100.151 251.763C100.377 251.692 100.691 251.593 101.033 251.572C101.43 251.545 101.758 251.67 102.012 251.781ZM100.875 252.335C100.992 252.233 101.174 252.124 101.504 252.072C101.959 252.018 102.292 252.231 102.369 252.357C102.381 252.372 102.388 252.39 102.39 252.409C102.392 252.427 102.388 252.446 102.379 252.463C102.344 252.519 102.267 252.51 102.108 252.492L102.098 252.49C101.74 252.435 101.374 252.473 101.035 252.601C100.958 252.633 100.877 252.656 100.794 252.668C100.774 252.669 100.754 252.661 100.739 252.648C100.731 252.64 100.724 252.63 100.72 252.62C100.715 252.609 100.713 252.598 100.714 252.586C100.713 252.519 100.775 252.422 100.875 252.335ZM104.026 253.141C104.25 253.251 104.497 253.208 104.578 253.044C104.659 252.881 104.542 252.658 104.318 252.549C104.094 252.439 103.847 252.482 103.766 252.645C103.685 252.808 103.802 253.028 104.026 253.141ZM105.132 252.328C105.136 252.078 105.285 251.878 105.469 251.881C105.651 251.884 105.796 252.089 105.792 252.339C105.787 252.589 105.636 252.789 105.454 252.786C105.272 252.782 105.128 252.577 105.132 252.328ZM93.2365 256.386C93.1912 256.33 93.1139 256.347 93.0446 256.364C92.9892 256.379 92.9322 256.387 92.8748 256.388C92.814 256.389 92.7537 256.375 92.6995 256.348C92.6452 256.32 92.5986 256.28 92.5639 256.23C92.4805 256.102 92.4854 255.913 92.5774 255.695C92.5896 255.665 92.6038 255.633 92.6197 255.597L92.62 255.597C92.766 255.269 93.0101 254.721 92.7362 254.198C92.5296 253.804 92.1923 253.559 91.7876 253.508C91.5965 253.484 91.4023 253.505 91.2211 253.571C91.0399 253.636 90.8768 253.744 90.7452 253.885C90.3424 254.329 90.2792 254.934 90.3571 255.148C90.3859 255.227 90.43 255.248 90.4625 255.252C90.5312 255.262 90.6324 255.212 90.6962 255.041C90.7 255.03 90.7052 255.014 90.7118 254.994L90.7118 254.994L90.7146 254.985C90.7534 254.848 90.8094 254.716 90.8813 254.592C90.9326 254.512 90.9993 254.442 91.0776 254.388C91.156 254.334 91.2444 254.296 91.3375 254.277C91.4328 254.256 91.5312 254.254 91.627 254.272C91.7228 254.29 91.8141 254.327 91.8955 254.38C92.0321 254.471 92.1334 254.606 92.1826 254.762C92.2318 254.918 92.2259 255.087 92.1659 255.239C92.1046 255.41 92.0022 255.737 92.0243 256.005C92.0697 256.548 92.4032 256.766 92.7031 256.789C92.995 256.8 93.1985 256.636 93.25 256.516C93.261 256.496 93.2655 256.473 93.2631 256.449C93.2607 256.426 93.2515 256.404 93.2365 256.386Z" fill="black"/>
<rect x="80" y="233" width="38" height="38" rx="3" stroke="#5CAAE7" stroke-width="2"/>
<defs>
<filter id="filter0_d_4143_156661" x="203" y="134" width="85" height="52.8059" filterUnits="userSpaceOnUse" color-interpolation-filters="sRGB">
<feFlood flood-opacity="0" result="BackgroundImageFix"/>
<feColorMatrix in="SourceAlpha" type="matrix" values="0 0 0 0 0 0 0 0 0 0 0 0 0 0 0 0 0 0 127 0" result="hardAlpha"/>
<feOffset dy="4"/>
<feGaussianBlur stdDeviation="6"/>
<feColorMatrix type="matrix" values="0 0 0 0 0 0 0 0 0 0 0 0 0 0 0 0 0 0 0.1 0"/>
<feBlend mode="normal" in2="BackgroundImageFix" result="effect1_dropShadow_4143_156661"/>
<feBlend mode="normal" in="SourceGraphic" in2="effect1_dropShadow_4143_156661" result="shape"/>
</filter>
<filter id="filter1_d_4143_156661" x="258" y="47" width="134" height="64" filterUnits="userSpaceOnUse" color-interpolation-filters="sRGB">
<feFlood flood-opacity="0" result="BackgroundImageFix"/>
<feColorMatrix in="SourceAlpha" type="matrix" values="0 0 0 0 0 0 0 0 0 0 0 0 0 0 0 0 0 0 127 0" result="hardAlpha"/>
<feOffset dy="4"/>
<feGaussianBlur stdDeviation="6"/>
<feColorMatrix type="matrix" values="0 0 0 0 0 0 0 0 0 0 0 0 0 0 0 0 0 0 0.1 0"/>
<feBlend mode="normal" in2="BackgroundImageFix" result="effect1_dropShadow_4143_156661"/>
<feBlend mode="normal" in="SourceGraphic" in2="effect1_dropShadow_4143_156661" result="shape"/>
</filter>
</defs>
</svg>
