<svg width="64" height="64" viewBox="0 0 64 64" fill="none" xmlns="http://www.w3.org/2000/svg">
<path d="M43.991 23.8707C43.5146 30.4531 37.7181 35.3701 31.1275 34.8943C25.2516 34.4185 20.5668 29.7394 20.0904 23.8707C19.9316 22.5225 20.9638 21.3329 22.3137 21.1743C23.6636 21.0157 24.8546 22.0467 25.0134 23.3949V23.4742C25.331 27.3602 28.7454 30.2945 32.6362 29.898C36.0506 29.5808 38.8297 26.8844 39.0679 23.4742C39.1473 22.126 40.3384 21.095 41.6883 21.2536C43.1175 21.3329 44.0704 22.5225 43.991 23.8707Z" fill="#1A181E"/>
<path d="M31.9998 0C14.3721 0 0 14.3544 0 32.0397C0 49.7249 14.3721 64 31.9998 64C49.6275 64 63.9997 49.6456 63.9997 32.0397C64.0791 14.3544 49.7069 0 31.9998 0C32.0792 0 32.0792 0 31.9998 0ZM49.1511 44.0942C49.1511 46.7113 47.0866 48.7732 44.4663 48.7732H19.6128C16.9925 48.7732 14.928 46.632 14.928 44.0942V19.9058C14.928 17.2887 17.0719 15.2268 19.6128 15.2268H44.4663C47.0866 15.2268 49.1511 17.2887 49.1511 19.9058V44.0942Z" fill="#1A181E"/>
</svg>
